<svg width="483" height="500" viewBox="0 0 483 500" fill="none" xmlns="http://www.w3.org/2000/svg">
<g clip-path="url(#clip0_164_30)">
<path d="M55.6191 31.0227V396.939H421.268V31.0227H55.6191ZM413.292 388.647H63.5942V39.3133H413.292V388.647Z" fill="#DBDBDB"/>
<path d="M413.291 39.3133H63.5938V388.647H413.291V39.3133Z" fill="#151515"/>
<path d="M232.128 100.453L233.024 102.34L235.026 102.642L233.578 104.109L233.92 106.184L232.128 105.205L230.337 106.184L230.679 104.109L229.229 102.642L231.233 102.34L232.128 100.453Z" fill="white"/>
<path d="M87.3203 295.555L88.2152 297.441L90.2188 297.744L88.769 299.212L89.1113 301.287L87.3203 300.307L85.5293 301.287L85.8705 299.212L84.4219 297.744L86.4243 297.441L87.3203 295.555Z" fill="white"/>
<path d="M229.229 235.345L230.125 237.232L232.128 237.534L230.679 239.003L231.021 241.076L229.229 240.097L227.438 241.076L227.781 239.003L226.332 237.534L228.334 237.232L229.229 235.345Z" fill="white"/>
<path d="M392.799 62.6135L393.695 64.4993L395.697 64.8026L394.247 66.2704L394.59 68.3448L392.799 67.3655L391.008 68.3448L391.349 66.2704L389.9 64.8026L391.903 64.4993L392.799 62.6135Z" fill="white"/>
<path d="M108.035 79.2962L108.931 81.1819L110.934 81.4853L109.484 82.953L109.826 85.0275L108.035 84.0482L106.244 85.0275L106.585 82.953L105.137 81.4853L107.139 81.1819L108.035 79.2962Z" fill="white"/>
<path d="M185.194 226.754L185.748 227.92L186.985 228.107L186.09 229.014L186.302 230.296L185.194 229.692L184.088 230.296L184.299 229.014L183.403 228.107L184.641 227.92L185.194 226.754Z" fill="white"/>
<path d="M159.961 192.653L160.515 193.818L161.752 194.006L160.857 194.913L161.068 196.195L159.961 195.589L158.853 196.195L159.065 194.913L158.17 194.006L159.407 193.818L159.961 192.653Z" fill="white"/>
<path d="M394.59 137.609L395.144 138.774L396.381 138.962L395.486 139.869L395.697 141.151L394.59 140.545L393.483 141.151L393.694 139.869L392.799 138.962L394.036 138.774L394.59 137.609Z" fill="white"/>
<path d="M94.6125 70.3297L95.1662 71.4953L96.4034 71.6828L95.5074 72.5904L95.7199 73.8719L94.6125 73.2664L93.505 73.8719L93.7164 72.5904L92.8203 71.6828L94.0587 71.4953L94.6125 70.3297Z" fill="white"/>
<path d="M323.785 84.3026L324.339 85.4682L325.576 85.6545L324.681 86.5622L324.893 87.8448L323.785 87.2393L322.678 87.8448L322.889 86.5622L321.994 85.6545L323.231 85.4682L323.785 84.3026Z" fill="white"/>
<path d="M279.904 125.482L280.458 126.648L281.695 126.835L280.799 127.743L281.011 129.024L279.904 128.419L278.797 129.024L279.008 127.743L278.112 126.835L279.351 126.648L279.904 125.482Z" fill="white"/>
<path d="M243.542 185.832L244.096 186.999L245.333 187.185L244.438 188.093L244.649 189.374L243.542 188.769L242.435 189.374L242.646 188.093L241.751 187.185L242.988 186.999L243.542 185.832Z" fill="white"/>
<path d="M82.2814 133.872L82.8351 135.039L84.0724 135.225L83.1763 136.133L83.3877 137.414L82.2814 136.809L81.1739 137.414L81.3853 136.133L80.4893 135.225L81.7277 135.039L82.2814 133.872Z" fill="white"/>
<path d="M121.686 254.617L122.239 255.784L123.477 255.97L122.581 256.878L122.793 258.159L121.686 257.555L120.578 258.159L120.79 256.878L119.894 255.97L121.132 255.784L121.686 254.617Z" fill="white"/>
<path d="M374.62 182.891L375.174 184.057L376.412 184.244L375.516 185.151L375.728 186.433L374.62 185.828L373.514 186.433L373.725 185.151L372.829 184.244L374.068 184.057L374.62 182.891Z" fill="white"/>
<path d="M266.714 56.918L267.267 58.0836L268.505 58.2711L267.609 59.1776L267.82 60.459L266.714 59.8547L265.607 60.459L265.818 59.1776L264.922 58.2711L266.16 58.0836L266.714 56.918Z" fill="white"/>
<path d="M197.249 158.709L197.803 159.876L199.04 160.062L198.145 160.97L198.356 162.251L197.249 161.646L196.142 162.251L196.353 160.97L195.458 160.062L196.695 159.876L197.249 158.709Z" fill="white"/>
<path d="M165.887 62.1191L166.439 63.2847L167.678 63.4722L166.782 64.3798L166.993 65.6613L165.887 65.0558L164.779 65.6613L164.991 64.3798L164.095 63.4722L165.333 63.2847L165.887 62.1191Z" fill="white"/>
<path d="M158.17 275.329L158.724 276.495L159.961 276.682L159.065 277.59L159.276 278.871L158.17 278.266L157.062 278.871L157.274 277.59L156.379 276.682L157.616 276.495L158.17 275.329Z" fill="white"/>
<path d="M202.113 86.0737L202.667 87.2393L203.905 87.4268L203.009 88.3332L203.221 89.6147L202.113 89.0104L201.007 89.6147L201.218 88.3332L200.322 87.4268L201.561 87.2393L202.113 86.0737Z" fill="white"/>
<path d="M341.481 110.102C345.996 118.303 354.5 123.832 364.243 123.832C378.738 123.832 390.477 111.619 390.477 96.5486C390.477 83.5621 381.755 72.7015 370.057 69.957C378.49 73.9901 384.335 82.8503 384.335 93.1234C384.335 107.213 373.341 118.632 359.789 118.632C352.505 118.633 345.966 115.343 341.481 110.102Z" fill="white"/>
<path d="M348.491 112.27H311.344V388.644H348.491V112.27Z" fill="#37474F"/>
<path d="M348.491 129.528H311.348V132.766H348.491V129.528Z" fill="#263238"/>
<path d="M322.011 142.281H315.175V160.29H322.011V142.281Z" fill="#263238"/>
<path d="M322.011 165.005H315.175V183.015H322.011V165.005Z" fill="#263238"/>
<path d="M322.011 187.729H315.175V205.738H322.011V187.729Z" fill="#263238"/>
<path d="M322.011 210.44H315.175V228.449H322.011V210.44Z" fill="#263238"/>
<path d="M322.011 233.163H315.175V251.173H322.011V233.163Z" fill="#263238"/>
<path d="M322.011 255.888H315.175V273.897H322.011V255.888Z" fill="#263238"/>
<path d="M322.011 278.598H315.175V296.608H322.011V278.598Z" fill="#263238"/>
<path d="M322.011 301.323H315.175V319.332H322.011V301.323Z" fill="#263238"/>
<path d="M322.011 324.046H315.175V342.055H322.011V324.046Z" fill="#263238"/>
<path d="M322.011 346.757H315.175V364.767H322.011V346.757Z" fill="#263238"/>
<path d="M322.011 369.481H315.175V387.49H322.011V369.481Z" fill="#263238"/>
<path d="M322.011 142.281H315.175V160.29H322.011V142.281Z" fill="#263238"/>
<path d="M322.011 165.005H315.175V183.015H322.011V165.005Z" fill="#263238"/>
<path d="M322.011 187.729H315.175V205.738H322.011V187.729Z" fill="#263238"/>
<path d="M322.011 210.44H315.175V228.449H322.011V210.44Z" fill="#263238"/>
<path d="M322.011 233.163H315.175V251.173H322.011V233.163Z" fill="#263238"/>
<path d="M322.011 255.888H315.175V273.897H322.011V255.888Z" fill="#263238"/>
<path d="M322.011 278.598H315.175V296.608H322.011V278.598Z" fill="#263238"/>
<path d="M322.011 301.323H315.175V319.332H322.011V301.323Z" fill="#263238"/>
<path d="M322.011 324.046H315.175V342.055H322.011V324.046Z" fill="#263238"/>
<path d="M322.011 346.757H315.175V364.767H322.011V346.757Z" fill="#263238"/>
<path d="M322.011 369.481H315.175V387.49H322.011V369.481Z" fill="#263238"/>
<path d="M333.338 142.281H326.501V160.29H333.338V142.281Z" fill="#263238"/>
<path d="M333.338 165.005H326.501V183.015H333.338V165.005Z" fill="#263238"/>
<path d="M333.338 187.729H326.501V205.738H333.338V187.729Z" fill="#263238"/>
<path d="M333.338 210.44H326.501V228.449H333.338V210.44Z" fill="#263238"/>
<path d="M333.338 233.163H326.501V251.173H333.338V233.163Z" fill="#263238"/>
<path d="M333.338 255.888H326.501V273.897H333.338V255.888Z" fill="#263238"/>
<path d="M333.338 278.598H326.501V296.608H333.338V278.598Z" fill="#263238"/>
<path d="M333.338 301.323H326.501V319.332H333.338V301.323Z" fill="#263238"/>
<path d="M333.338 324.046H326.501V342.055H333.338V324.046Z" fill="#263238"/>
<path d="M333.338 346.757H326.501V364.767H333.338V346.757Z" fill="#263238"/>
<path d="M333.338 369.481H326.501V387.49H333.338V369.481Z" fill="#263238"/>
<path d="M333.338 142.281H326.501V160.29H333.338V142.281Z" fill="#263238"/>
<path d="M333.338 165.005H326.501V183.015H333.338V165.005Z" fill="#263238"/>
<path d="M333.338 187.729H326.501V205.738H333.338V187.729Z" fill="#EBEBEB"/>
<path d="M333.338 210.44H326.501V228.449H333.338V210.44Z" fill="#263238"/>
<path d="M333.338 233.163H326.501V251.173H333.338V233.163Z" fill="#263238"/>
<path d="M333.338 255.888H326.501V273.897H333.338V255.888Z" fill="#263238"/>
<path d="M333.338 278.598H326.501V296.608H333.338V278.598Z" fill="#263238"/>
<path d="M333.338 301.323H326.501V319.332H333.338V301.323Z" fill="#EBEBEB"/>
<path d="M333.338 324.046H326.501V342.055H333.338V324.046Z" fill="#263238"/>
<path d="M333.338 346.757H326.501V364.767H333.338V346.757Z" fill="#263238"/>
<path d="M333.338 369.481H326.501V387.49H333.338V369.481Z" fill="#263238"/>
<path d="M344.663 142.281H337.826V160.29H344.663V142.281Z" fill="#263238"/>
<path d="M344.663 165.005H337.826V183.015H344.663V165.005Z" fill="#263238"/>
<path d="M344.663 187.729H337.826V205.738H344.663V187.729Z" fill="#263238"/>
<path d="M344.663 210.44H337.826V228.449H344.663V210.44Z" fill="#263238"/>
<path d="M344.663 233.163H337.826V251.173H344.663V233.163Z" fill="#263238"/>
<path d="M344.663 255.888H337.826V273.897H344.663V255.888Z" fill="#263238"/>
<path d="M344.663 278.598H337.826V296.608H344.663V278.598Z" fill="#263238"/>
<path d="M344.663 301.323H337.826V319.332H344.663V301.323Z" fill="#263238"/>
<path d="M344.663 324.046H337.826V342.055H344.663V324.046Z" fill="#263238"/>
<path d="M344.663 346.757H337.826V364.767H344.663V346.757Z" fill="#263238"/>
<path d="M344.663 369.481H337.826V387.49H344.663V369.481Z" fill="#263238"/>
<path d="M344.663 142.281H337.826V160.29H344.663V142.281Z" fill="#EBEBEB"/>
<path d="M344.663 165.005H337.826V183.015H344.663V165.005Z" fill="#263238"/>
<path d="M344.663 187.729H337.826V205.738H344.663V187.729Z" fill="#263238"/>
<path d="M344.663 210.44H337.826V228.449H344.663V210.44Z" fill="#263238"/>
<path d="M344.663 233.163H337.826V251.173H344.663V233.163Z" fill="#263238"/>
<path d="M344.663 255.888H337.826V273.897H344.663V255.888Z" fill="#263238"/>
<path d="M344.663 278.598H337.826V296.608H344.663V278.598Z" fill="#263238"/>
<path d="M344.663 301.323H337.826V319.332H344.663V301.323Z" fill="#263238"/>
<path d="M344.663 324.046H337.826V342.055H344.663V324.046Z" fill="#263238"/>
<path d="M344.663 346.757H337.826V364.767H344.663V346.757Z" fill="#263238"/>
<path d="M344.663 369.481H337.826V387.49H344.663V369.481Z" fill="#263238"/>
<path d="M311.344 112.27H247.851V388.644H311.344V112.27Z" fill="#37474F"/>
<path d="M311.348 129.528H247.851V132.766H311.348V129.528Z" fill="#263238"/>
<path d="M265.754 142.281H254.654V160.29H265.754V142.281Z" fill="#263238"/>
<path d="M265.754 165.005H254.654V183.015H265.754V165.005Z" fill="#263238"/>
<path d="M265.754 187.729H254.654V205.738H265.754V187.729Z" fill="#263238"/>
<path d="M265.754 210.44H254.654V228.449H265.754V210.44Z" fill="#263238"/>
<path d="M265.754 233.163H254.654V251.173H265.754V233.163Z" fill="#263238"/>
<path d="M265.754 255.888H254.654V273.897H265.754V255.888Z" fill="#263238"/>
<path d="M265.754 278.598H254.654V296.608H265.754V278.598Z" fill="#263238"/>
<path d="M265.754 301.323H254.654V319.332H265.754V301.323Z" fill="#263238"/>
<path d="M265.754 324.046H254.654V342.055H265.754V324.046Z" fill="#263238"/>
<path d="M265.754 346.757H254.654V364.767H265.754V346.757Z" fill="#263238"/>
<path d="M265.754 369.481H254.654V387.49H265.754V369.481Z" fill="#263238"/>
<path d="M265.754 142.281H254.654V160.29H265.754V142.281Z" fill="#263238"/>
<path d="M265.754 165.005H254.654V183.015H265.754V165.005Z" fill="#263238"/>
<path d="M265.754 187.729H254.654V205.738H265.754V187.729Z" fill="#263238"/>
<path d="M265.754 210.44H254.654V228.449H265.754V210.44Z" fill="#263238"/>
<path d="M265.754 233.163H254.654V251.173H265.754V233.163Z" fill="#263238"/>
<path d="M265.754 255.888H254.654V273.897H265.754V255.888Z" fill="#263238"/>
<path d="M265.754 278.598H254.654V296.608H265.754V278.598Z" fill="#263238"/>
<path d="M265.754 301.323H254.654V319.332H265.754V301.323Z" fill="#263238"/>
<path d="M265.754 324.046H254.654V342.055H265.754V324.046Z" fill="#263238"/>
<path d="M265.754 346.757H254.654V364.767H265.754V346.757Z" fill="#EBEBEB"/>
<path d="M265.754 369.481H254.654V387.49H265.754V369.481Z" fill="#263238"/>
<path d="M284.141 142.281H273.041V160.29H284.141V142.281Z" fill="#263238"/>
<path d="M284.141 165.005H273.041V183.015H284.141V165.005Z" fill="#263238"/>
<path d="M284.141 187.729H273.041V205.738H284.141V187.729Z" fill="#263238"/>
<path d="M284.141 210.44H273.041V228.449H284.141V210.44Z" fill="#263238"/>
<path d="M284.141 233.163H273.041V251.173H284.141V233.163Z" fill="#263238"/>
<path d="M284.141 255.888H273.041V273.897H284.141V255.888Z" fill="#263238"/>
<path d="M284.141 278.598H273.041V296.608H284.141V278.598Z" fill="#263238"/>
<path d="M284.141 301.323H273.041V319.332H284.141V301.323Z" fill="#263238"/>
<path d="M284.141 324.046H273.041V342.055H284.141V324.046Z" fill="#263238"/>
<path d="M284.141 346.757H273.041V364.767H284.141V346.757Z" fill="#263238"/>
<path d="M284.141 369.481H273.041V387.49H284.141V369.481Z" fill="#263238"/>
<path d="M284.141 142.281H273.041V160.29H284.141V142.281Z" fill="#263238"/>
<path d="M284.141 165.005H273.041V183.015H284.141V165.005Z" fill="#EBEBEB"/>
<path d="M284.141 187.729H273.041V205.738H284.141V187.729Z" fill="#263238"/>
<path d="M284.141 210.44H273.041V228.449H284.141V210.44Z" fill="#263238"/>
<path d="M284.141 233.163H273.041V251.173H284.141V233.163Z" fill="#263238"/>
<path d="M284.141 255.888H273.041V273.897H284.141V255.888Z" fill="#263238"/>
<path d="M284.141 278.598H273.041V296.608H284.141V278.598Z" fill="#263238"/>
<path d="M284.141 301.323H273.041V319.332H284.141V301.323Z" fill="#EBEBEB"/>
<path d="M284.141 324.046H273.041V342.055H284.141V324.046Z" fill="#263238"/>
<path d="M284.141 346.757H273.041V364.767H284.141V346.757Z" fill="#263238"/>
<path d="M284.141 369.481H273.041V387.49H284.141V369.481Z" fill="#263238"/>
<path d="M302.529 142.281H291.429V160.29H302.529V142.281Z" fill="#263238"/>
<path d="M302.529 165.005H291.429V183.015H302.529V165.005Z" fill="#263238"/>
<path d="M302.529 187.729H291.429V205.738H302.529V187.729Z" fill="#263238"/>
<path d="M302.529 210.44H291.429V228.449H302.529V210.44Z" fill="#263238"/>
<path d="M302.529 233.163H291.429V251.173H302.529V233.163Z" fill="#263238"/>
<path d="M302.529 255.888H291.429V273.897H302.529V255.888Z" fill="#263238"/>
<path d="M302.529 278.598H291.429V296.608H302.529V278.598Z" fill="#263238"/>
<path d="M302.529 301.323H291.429V319.332H302.529V301.323Z" fill="#263238"/>
<path d="M302.529 324.046H291.429V342.055H302.529V324.046Z" fill="#263238"/>
<path d="M302.529 346.757H291.429V364.767H302.529V346.757Z" fill="#263238"/>
<path d="M302.529 369.481H291.429V387.49H302.529V369.481Z" fill="#263238"/>
<path d="M302.529 142.281H291.429V160.29H302.529V142.281Z" fill="#263238"/>
<path d="M302.529 165.005H291.429V183.015H302.529V165.005Z" fill="#263238"/>
<path d="M302.529 187.729H291.429V205.738H302.529V187.729Z" fill="#263238"/>
<path d="M302.529 210.44H291.429V228.449H302.529V210.44Z" fill="#263238"/>
<path d="M302.529 233.163H291.429V251.173H302.529V233.163Z" fill="#EBEBEB"/>
<path d="M302.529 255.888H291.429V273.897H302.529V255.888Z" fill="#263238"/>
<path d="M302.529 278.598H291.429V296.608H302.529V278.598Z" fill="#263238"/>
<path d="M302.529 301.323H291.429V319.332H302.529V301.323Z" fill="#263238"/>
<path d="M302.529 324.046H291.429V342.055H302.529V324.046Z" fill="#263238"/>
<path d="M302.529 346.757H291.429V364.767H302.529V346.757Z" fill="#263238"/>
<path d="M302.529 369.481H291.429V387.49H302.529V369.481Z" fill="#263238"/>
<path d="M311.344 388.644C310.596 300.115 310.591 200.799 311.344 112.27C312.098 200.799 312.091 300.115 311.344 388.644Z" fill="#37474F"/>
<path d="M362.373 234.386H296.817V388.644H362.373V234.386Z" fill="#455A64"/>
<path d="M362.133 213.332H313.073V234.385H362.133V213.332Z" fill="#455A64"/>
<path d="M321.352 216.581H317.157V231.138H321.352V216.581Z" fill="#263238"/>
<path d="M328.691 216.581H324.497V231.138H328.691V216.581Z" fill="#263238"/>
<path d="M336.031 216.581H331.837V231.138H336.031V216.581Z" fill="#263238"/>
<path d="M343.369 216.581H339.176V231.138H343.369V216.581Z" fill="#263238"/>
<path d="M350.709 216.581H346.515V231.138H350.709V216.581Z" fill="#263238"/>
<path d="M358.048 216.581H353.854V231.138H358.048V216.581Z" fill="#263238"/>
<path d="M384.442 213.332H362.133V234.385H384.442V213.332Z" fill="#455A64"/>
<path d="M368.827 216.581H365.26V231.138H368.827V216.581Z" fill="#263238"/>
<path d="M375.071 216.581H371.504V231.138H375.071V216.581Z" fill="#263238"/>
<path d="M381.313 216.581H377.746V231.138H381.313V216.581Z" fill="#263238"/>
<path d="M395.753 234.386H362.374V388.644H395.753V234.386Z" fill="#455A64"/>
<path d="M323.878 202.665H322.377V213.332H323.878V202.665Z" fill="#455A64"/>
<path d="M352.828 202.665H351.326V213.332H352.828V202.665Z" fill="#455A64"/>
<path d="M359.477 184.013H315.728V202.665H359.477V184.013Z" fill="#455A64"/>
<path d="M322.335 248.799H310.233V268.063H322.335V248.799Z" fill="#EBEBEB"/>
<path d="M346.97 248.799H334.868V268.063H346.97V248.799Z" fill="#263238"/>
<path d="M322.336 279.157H310.234V298.422H322.336V279.157Z" fill="#263238"/>
<path d="M346.97 279.157H334.868V298.422H346.97V279.157Z" fill="#263238"/>
<path d="M322.336 309.514H310.234V328.779H322.336V309.514Z" fill="#263238"/>
<path d="M346.97 309.514H334.868V328.779H346.97V309.514Z" fill="#263238"/>
<path d="M322.336 339.871H310.234V359.136H322.336V339.871Z" fill="#263238"/>
<path d="M346.97 339.871H334.868V359.136H346.97V339.871Z" fill="#EBEBEB"/>
<path d="M322.333 370.229H310.23V388.645H322.333V370.229Z" fill="#263238"/>
<path d="M346.97 370.229H334.867V388.645H346.97V370.229Z" fill="#263238"/>
<path d="M375.218 248.799H368.263V268.063H375.218V248.799Z" fill="#263238"/>
<path d="M389.373 248.799H382.418V268.063H389.373V248.799Z" fill="#263238"/>
<path d="M375.218 279.157H368.263V298.422H375.218V279.157Z" fill="#263238"/>
<path d="M389.373 279.157H382.418V298.422H389.373V279.157Z" fill="#EBEBEB"/>
<path d="M375.218 309.514H368.263V328.779H375.218V309.514Z" fill="#263238"/>
<path d="M389.373 309.514H382.418V328.779H389.373V309.514Z" fill="#263238"/>
<path d="M375.218 339.871H368.263V359.136H375.218V339.871Z" fill="#EBEBEB"/>
<path d="M389.373 339.871H382.418V359.136H389.373V339.871Z" fill="#263238"/>
<path d="M375.216 370.229H368.265V388.645H375.216V370.229Z" fill="#263238"/>
<path d="M389.369 370.229H382.418V388.645H389.369V370.229Z" fill="#263238"/>
<path d="M362.374 388.644C361.611 339.082 361.629 283.983 362.374 234.386C363.118 283.994 363.137 339.071 362.374 388.644Z" fill="#37474F"/>
<path d="M276.889 257.525H245.334V388.645H276.889V257.525Z" fill="#455A64"/>
<path d="M252.637 269.25H248.356V286.696H252.637V269.25Z" fill="#263238"/>
<path d="M252.637 293.016H248.356V310.462H252.637V293.016Z" fill="#263238"/>
<path d="M252.637 316.784H248.356V334.228H252.637V316.784Z" fill="#263238"/>
<path d="M252.637 340.549H248.356V357.995H252.637V340.549Z" fill="#263238"/>
<path d="M252.637 364.317H248.356V381.762H252.637V364.317Z" fill="#263238"/>
<path d="M252.639 388.082H248.358V388.645H252.639V388.082Z" fill="#263238"/>
<path d="M259.712 269.25H255.432V286.696H259.712V269.25Z" fill="#263238"/>
<path d="M259.712 293.016H255.432V310.462H259.712V293.016Z" fill="#263238"/>
<path d="M259.712 316.784H255.432V334.228H259.712V316.784Z" fill="#EBEBEB"/>
<path d="M259.712 340.549H255.432V357.995H259.712V340.549Z" fill="#263238"/>
<path d="M259.712 364.317H255.432V381.762H259.712V364.317Z" fill="#263238"/>
<path d="M259.71 388.082H255.43V388.645H259.71V388.082Z" fill="#263238"/>
<path d="M266.788 269.25H262.508V286.696H266.788V269.25Z" fill="#263238"/>
<path d="M266.788 293.016H262.508V310.462H266.788V293.016Z" fill="#263238"/>
<path d="M266.788 316.784H262.508V334.228H266.788V316.784Z" fill="#263238"/>
<path d="M266.788 340.549H262.508V357.995H266.788V340.549Z" fill="#263238"/>
<path d="M266.788 364.317H262.508V381.762H266.788V364.317Z" fill="#263238"/>
<path d="M266.788 388.082H262.508V388.645H266.788V388.082Z" fill="#263238"/>
<path d="M273.863 269.25H269.583V286.696H273.863V269.25Z" fill="#263238"/>
<path d="M273.863 293.016H269.583V310.462H273.863V293.016Z" fill="#263238"/>
<path d="M273.863 316.784H269.583V334.228H273.863V316.784Z" fill="#263238"/>
<path d="M273.863 340.549H269.583V357.995H273.863V340.549Z" fill="#263238"/>
<path d="M273.863 364.317H269.583V381.762H273.863V364.317Z" fill="#263238"/>
<path d="M273.865 388.082H269.585V388.645H273.865V388.082Z" fill="#263238"/>
<path d="M245.334 257.525H180.645V388.645H245.334V257.525Z" fill="#455A64"/>
<path d="M272.365 249.042H183.743V257.528H272.365V249.042Z" fill="#455A64"/>
<path d="M195.608 269.25H186.828V286.696H195.608V269.25Z" fill="#263238"/>
<path d="M195.608 293.016H186.828V310.462H195.608V293.016Z" fill="#263238"/>
<path d="M195.608 316.784H186.828V334.228H195.608V316.784Z" fill="#263238"/>
<path d="M195.608 340.549H186.828V357.995H195.608V340.549Z" fill="#263238"/>
<path d="M195.608 364.317H186.828V381.762H195.608V364.317Z" fill="#263238"/>
<path d="M195.612 388.082H186.832V388.645H195.612V388.082Z" fill="#263238"/>
<path d="M210.121 269.25H201.341V286.696H210.121V269.25Z" fill="#263238"/>
<path d="M210.121 293.016H201.341V310.462H210.121V293.016Z" fill="#263238"/>
<path d="M210.121 316.784H201.341V334.228H210.121V316.784Z" fill="#263238"/>
<path d="M210.121 340.549H201.341V357.995H210.121V340.549Z" fill="#263238"/>
<path d="M210.121 364.317H201.341V381.762H210.121V364.317Z" fill="#263238"/>
<path d="M210.118 388.082H201.338V388.645H210.118V388.082Z" fill="#EBEBEB"/>
<path d="M224.634 269.25H215.854V286.696H224.634V269.25Z" fill="#263238"/>
<path d="M224.634 293.016H215.854V310.462H224.634V293.016Z" fill="#EBEBEB"/>
<path d="M224.634 316.784H215.854V334.228H224.634V316.784Z" fill="#263238"/>
<path d="M224.634 340.549H215.854V357.995H224.634V340.549Z" fill="#263238"/>
<path d="M224.634 364.317H215.854V381.762H224.634V364.317Z" fill="#263238"/>
<path d="M224.633 388.082H215.853V388.645H224.633V388.082Z" fill="#263238"/>
<path d="M239.146 269.25H230.365V286.696H239.146V269.25Z" fill="#263238"/>
<path d="M239.146 293.016H230.365V310.462H239.146V293.016Z" fill="#263238"/>
<path d="M239.146 316.784H230.365V334.228H239.146V316.784Z" fill="#263238"/>
<path d="M239.146 340.549H230.365V357.995H239.146V340.549Z" fill="#263238"/>
<path d="M239.146 364.317H230.365V381.762H239.146V364.317Z" fill="#EBEBEB"/>
<path d="M239.148 388.082H230.367V388.645H239.148V388.082Z" fill="#263238"/>
<path d="M245.334 388.644C244.571 346.517 244.589 299.68 245.334 257.524C246.078 299.689 246.098 346.508 245.334 388.644Z" fill="#37474F"/>
<path d="M276.889 257.527C245.911 258.313 211.631 258.313 180.645 257.527C211.634 256.742 245.907 256.742 276.889 257.527Z" fill="#37474F"/>
<path d="M180.644 257.525C181.407 299.652 181.389 346.488 180.644 388.645C179.9 346.48 179.882 299.661 180.644 257.525Z" fill="#37474F"/>
<path d="M183.743 257.528C182.956 254.709 182.95 251.86 183.743 249.042C184.535 251.861 184.53 254.71 183.743 257.528Z" fill="#37474F"/>
<path d="M63.5862 218.119L413.286 218.119V209.831L63.5862 209.831V218.119Z" fill="#C7C7C7"/>
<path d="M27.5578 420.724L449.314 420.724V396.935L27.5578 396.935V420.724Z" fill="#C7C7C7"/>
<path d="M63.5869 39.3038H413.287V388.646H63.5869V39.3038ZM405.902 46.9805H70.9715V380.971H405.903L405.902 46.9805Z" fill="#C7C7C7"/>
<path d="M299.558 39.3038H295.571V380.971H299.558V39.3038Z" fill="#C7C7C7"/>
<path d="M181.302 39.3038H177.315V380.971H181.302V39.3038Z" fill="#C7C7C7"/>
<path d="M395.428 368.124C392.634 368.23 370.047 370.365 363.27 374.314C356.494 378.263 344.585 394.7 343.146 396.3C341.709 397.902 332.572 402.277 330.929 402.704C329.286 403.13 324.563 403.984 323.228 405.906C321.893 407.827 320.764 411.144 321.893 411.46C323.023 411.777 330.518 412.105 332.16 411.46C333.803 410.815 338.218 410.069 339.039 409.749C339.861 409.429 348.485 403.771 348.485 403.771L366.905 392.778C366.905 392.778 347.987 397.148 339.477 399.227C339.477 399.227 334.513 399.048 332.593 399.538C330.267 400.13 327.049 402.101 327.151 404.075C327.254 406.049 337.084 407.154 338.316 405.766C338.954 405.047 349.244 400.727 357.493 398.782C365.158 396.975 370.829 397.518 371.175 397.262C371.894 396.728 385.549 397.689 393.352 394.807L395.428 368.124Z" fill="#E08F30"/>
<path opacity="0.1" d="M395.428 368.124C392.634 368.23 370.047 370.365 363.27 374.314C356.494 378.263 344.585 394.7 343.146 396.3C341.709 397.902 332.572 402.277 330.929 402.704C329.286 403.13 324.563 403.984 323.228 405.906C321.893 407.827 320.764 411.144 321.893 411.46C323.023 411.777 330.518 412.105 332.16 411.46C333.803 410.815 338.218 410.069 339.039 409.749C339.861 409.429 348.485 403.771 348.485 403.771L366.905 392.778C366.905 392.778 347.987 397.148 339.477 399.227C339.477 399.227 334.513 399.048 332.593 399.538C330.267 400.13 327.049 402.101 327.151 404.075C327.254 406.049 337.084 407.154 338.316 405.766C338.954 405.047 349.244 400.727 357.493 398.782C365.158 396.975 370.829 397.518 371.175 397.262C371.894 396.728 385.549 397.689 393.352 394.807L395.428 368.124Z" fill="black"/>
<path d="M325.258 407.158C324.91 407.387 324.529 407.555 324.254 407.881C323.971 408.217 323.745 408.612 323.603 409.024C323.443 409.487 323.356 409.983 323.365 410.474C323.372 410.867 323.383 411.349 323.652 411.663C323.708 411.729 323.826 411.654 323.797 411.576C323.658 411.202 324.081 409.565 324.204 409.173C324.312 408.828 324.432 408.5 324.611 408.183C324.797 407.854 324.984 407.459 325.312 407.246C325.367 407.209 325.313 407.121 325.258 407.158Z" fill="#263238"/>
<path d="M328.415 407.686C328 407.907 327.611 408.105 327.27 408.445C326.933 408.778 326.674 409.182 326.498 409.628C326.165 410.473 326.076 411.639 326.734 412.349C326.767 412.383 326.834 412.345 326.815 412.297C326.646 411.891 326.665 411.4 326.73 410.969C326.79 410.567 326.877 410.156 327.023 409.776C327.165 409.406 327.355 409.044 327.575 408.717C327.812 408.366 328.11 407.992 328.47 407.776C328.527 407.744 328.474 407.655 328.415 407.686Z" fill="#263238"/>
<path d="M338.722 399.034C337.646 399.512 336.601 400.004 335.559 400.564C334.524 401.119 333.502 401.732 332.417 402.176C331.495 402.553 330.51 402.672 329.542 402.859C329.098 402.945 328.649 403.051 328.225 403.219C327.778 403.394 327.424 403.657 327.029 403.922C326.974 403.959 327.029 404.052 327.083 404.013C327.886 403.437 329.058 403.327 329.994 403.197C330.936 403.066 331.876 402.943 332.777 402.611C333.795 402.236 334.744 401.643 335.693 401.114C336.223 400.819 336.759 400.534 337.28 400.219C337.802 399.902 338.291 399.547 338.799 399.212C338.888 399.156 338.825 398.988 338.722 399.034Z" fill="#263238"/>
<path d="M375.518 387.731C375.559 387.705 375.521 387.648 375.48 387.668C370.354 390.078 365.465 393.014 360.698 396.114C359.347 396.993 358.027 397.912 356.723 398.864C356.658 398.912 356.719 399.015 356.789 398.974C359.244 397.548 361.66 396.057 364.096 394.597C365.817 393.565 367.547 392.549 369.273 391.525C369.731 391.383 370.191 391.242 370.638 391.063C371.445 390.74 372.263 390.42 373.02 389.979C373.098 389.934 373.04 389.811 372.957 389.833C372.206 390.045 371.481 390.348 370.756 390.642C370.975 390.51 371.196 390.381 371.415 390.249C372.787 389.416 374.158 388.585 375.518 387.731Z" fill="#263238"/>
<path d="M384.589 348.649C383.198 348.429 381.797 348.304 380.395 348.171C378.991 348.068 377.586 347.987 376.18 347.935C373.367 347.831 370.55 347.864 367.736 347.975C364.925 348.127 362.114 348.334 359.321 348.709C357.923 348.882 356.533 349.106 355.144 349.339C353.756 349.579 352.379 349.885 351.004 350.18C353.793 349.806 356.573 349.406 359.37 349.158C360.765 349.018 362.163 348.904 363.562 348.791C364.961 348.705 366.36 348.604 367.762 348.562C370.562 348.402 373.368 348.377 376.172 348.384C378.977 348.396 381.784 348.473 384.589 348.649Z" fill="#263238"/>
<path d="M383.474 350.364C380.938 350.287 378.401 350.375 375.869 350.526C373.336 350.676 370.81 350.948 368.29 351.252C365.774 351.596 363.264 351.993 360.774 352.51C358.283 353.006 355.817 353.647 353.382 354.377C354.633 354.15 355.863 353.842 357.114 353.636L358.98 353.274L360.853 352.955L364.6 352.346C365.853 352.17 367.104 351.983 368.36 351.836C370.866 351.485 373.383 351.221 375.901 350.977C377.16 350.851 378.421 350.741 379.683 350.645C380.945 350.53 382.209 350.449 383.474 350.364Z" fill="#263238"/>
<path d="M384.222 352.002C382.113 352.161 380.017 352.479 377.932 352.843C375.846 353.206 373.775 353.653 371.715 354.154C369.66 354.673 367.609 355.217 365.589 355.871C364.576 356.185 363.572 356.531 362.568 356.871C361.57 357.232 360.575 357.605 359.587 357.995C361.634 357.442 363.663 356.845 365.707 356.307C367.748 355.758 369.793 355.231 371.844 354.727C373.892 354.212 375.952 353.752 378.012 353.285C379.041 353.05 380.075 352.836 381.11 352.625C382.145 352.401 383.182 352.204 384.222 352.002Z" fill="#263238"/>
<path d="M394.87 326.455C394.87 326.455 386.448 317.926 379.043 316.613C378.419 316.502 381.987 335.918 382.369 336.858C382.75 337.797 394.87 326.455 394.87 326.455Z" fill="#E08F30"/>
<path opacity="0.1" d="M394.87 326.455C394.87 326.455 386.448 317.926 379.043 316.613C378.419 316.502 381.987 335.918 382.369 336.858C382.75 337.797 394.87 326.455 394.87 326.455Z" fill="black"/>
<path opacity="0.1" d="M392.615 328.057C392.615 328.057 386.203 321.565 380.566 320.565C380.092 320.48 382.808 335.26 383.098 335.977C383.389 336.693 392.615 328.057 392.615 328.057Z" fill="black"/>
<path d="M439.659 396.509C436.678 400.356 390.579 398.003 389.448 398.334C388.316 398.653 368.614 408.894 367.683 409.53C366.764 410.18 361.933 410.707 359.682 410.707C357.419 410.707 351.976 410.18 350.95 409.53C349.925 408.894 352.694 405.378 354.132 404.092C355.569 402.805 360.802 403.026 362.145 402.279C363.477 401.531 371.489 396.84 372.514 395.014C373.539 393.201 386.615 368.76 386.615 368.123C386.615 368.123 374.815 357.2 375.416 353.059C376.005 348.931 384.952 328.984 388.805 327.637C395.44 325.334 407.737 325.748 407.737 325.748C407.737 325.748 408.208 311.182 409.834 311.966C418.354 316.033 427.947 331.774 430.585 338.561C430.915 339.418 431.139 340.129 431.233 340.656C431.881 344.318 429.236 366.414 429.236 366.414C429.129 366.943 442.64 392.676 439.659 396.509Z" fill="#E08F30"/>
<path opacity="0.1" d="M439.659 396.509C436.678 400.356 390.579 398.003 389.448 398.334C388.316 398.653 368.614 408.894 367.683 409.53C366.764 410.18 361.933 410.707 359.682 410.707C357.419 410.707 351.976 410.18 350.95 409.53C349.925 408.894 352.694 405.378 354.132 404.092C355.569 402.805 360.802 403.026 362.145 402.279C363.477 401.531 371.489 396.84 372.514 395.014C373.539 393.201 386.615 368.76 386.615 368.123C386.615 368.123 374.815 357.2 375.416 353.059C376.005 348.931 384.952 328.984 388.805 327.637C395.44 325.334 407.737 325.748 407.737 325.748C407.737 325.748 408.208 311.182 409.834 311.966C418.354 316.033 427.947 331.774 430.585 338.561C430.915 339.418 431.139 340.129 431.233 340.656C431.881 344.318 429.236 366.414 429.236 366.414C429.129 366.943 442.64 392.676 439.659 396.509Z" fill="black"/>
<path opacity="0.1" d="M396.476 367.497C396.499 367.445 396.427 367.4 396.401 367.453C395.502 369.346 394.779 371.342 394.481 373.44C394.325 374.526 394.201 375.67 394.314 376.767C394.371 377.324 394.476 377.87 394.691 378.386C394.834 378.73 395.075 379.092 395.474 379.099C395.987 379.109 396.122 378.513 396.268 378.117C396.337 377.931 396.4 377.74 396.465 377.55C396.439 378.577 396.618 379.609 396.976 380.574C397.496 381.982 398.453 383.385 399.747 384.126C399.836 384.177 399.928 384.053 399.855 383.978C398.828 382.923 397.976 381.799 397.457 380.382C396.952 378.999 396.809 377.492 397.022 376.031C397.055 375.802 396.754 375.709 396.682 375.937C396.478 376.577 396.176 377.2 395.905 377.812C395.849 377.938 395.794 378.065 395.736 378.19C395.682 378.309 395.642 378.538 395.485 378.476C395.29 378.398 395.213 377.904 395.168 377.738C394.857 376.597 394.881 375.355 394.952 374.181C395.087 371.894 395.546 369.583 396.476 367.497Z" fill="black"/>
<path d="M407.025 339.197C411.204 338.898 413.527 342.082 413.785 345.976C413.994 349.13 411.728 352.529 407.717 352.817C403.707 353.105 400.976 349.497 400.778 346.535C400.583 343.573 402.489 339.522 407.025 339.197Z" fill="#263238"/>
<path d="M406.677 340.043C410.605 339.761 412.789 342.754 413.031 346.414C413.228 349.38 411.098 352.574 407.328 352.844C403.557 353.114 400.991 349.724 400.806 346.939C400.622 344.156 402.413 340.349 406.677 340.043Z" fill="white"/>
<path d="M406.094 340.671C409.169 340.45 410.877 342.793 411.068 345.658C411.222 347.98 409.554 350.481 406.604 350.692C403.653 350.904 401.643 348.249 401.499 346.069C401.353 343.891 402.755 340.911 406.094 340.671Z" fill="#263238"/>
<path d="M386.412 338.044C383.148 337.398 380.928 340.232 380.253 343.922C379.706 346.911 381.083 350.346 384.216 350.966C387.348 351.586 389.942 348.383 390.455 345.576C390.969 342.768 389.954 338.745 386.412 338.044Z" fill="#263238"/>
<path d="M386.584 338.88C383.516 338.273 381.43 340.936 380.795 344.404C380.28 347.213 381.576 350.443 384.52 351.025C387.465 351.608 389.903 348.596 390.385 345.959C390.868 343.321 389.914 339.538 386.584 338.88Z" fill="white"/>
<path d="M386.097 339.277C383.696 338.802 382.062 340.887 381.565 343.603C381.162 345.802 382.176 348.33 384.48 348.786C386.785 349.242 388.693 346.885 389.071 344.82C389.45 342.755 388.704 339.793 386.097 339.277Z" fill="#263238"/>
<path d="M391.431 347.426C391.484 347.781 393.74 349.073 393.997 349.069C394.25 349.067 396.481 347.727 396.532 347.372C396.582 347.021 394.506 346.911 393.977 346.916C393.444 346.922 391.373 347.076 391.431 347.426Z" fill="#263238"/>
<path d="M400.003 350.309C399.556 350.848 399.078 351.354 398.565 351.793C398.058 352.215 397.46 352.621 396.921 352.572C396.342 352.523 395.844 352.146 395.452 351.656C395.067 351.164 394.735 350.556 394.526 349.96L393.928 348.255L393.704 350.049C393.636 350.59 393.499 351.157 393.325 351.663C393.145 352.161 392.873 352.647 392.526 352.663C392.344 352.674 392.115 352.58 391.908 352.425C391.698 352.269 391.503 352.069 391.317 351.857C390.951 351.424 390.622 350.938 390.316 350.432C390.483 351.005 390.714 351.561 391.026 352.082C391.181 352.344 391.364 352.595 391.593 352.819C391.822 353.034 392.114 353.26 392.512 353.286C392.914 353.322 393.299 353.086 393.525 352.828C393.759 352.563 393.917 352.27 394.048 351.979C394.31 351.387 394.442 350.794 394.546 350.163L393.725 350.252C394.008 350.974 394.35 351.625 394.867 352.197C395.124 352.478 395.419 352.737 395.769 352.924C396.117 353.108 396.519 353.21 396.913 353.194C397.336 353.189 397.704 353.002 398.007 352.795C398.313 352.584 398.575 352.333 398.813 352.065C399.286 351.532 399.679 350.937 400.003 350.309Z" fill="#263238"/>
<path d="M414.497 351.104C417.298 350.85 420.101 350.692 422.905 350.602C425.709 350.514 428.514 350.459 431.318 350.541C432.721 350.542 434.121 350.605 435.523 350.651C436.923 350.723 438.323 350.797 439.723 350.898C442.525 351.065 445.314 351.387 448.112 351.681C446.729 351.424 445.345 351.158 443.951 350.959C442.557 350.765 441.161 350.58 439.759 350.447C436.957 350.151 434.143 350.026 431.328 349.954C428.513 349.923 425.696 349.969 422.887 350.152C421.482 350.246 420.079 350.367 418.68 350.51C417.279 350.68 415.881 350.845 414.497 351.104Z" fill="#263238"/>
<path d="M415.657 352.787C416.924 352.836 418.189 352.881 419.453 352.959C420.717 353.02 421.98 353.094 423.243 353.184C425.767 353.357 428.29 353.548 430.804 353.828C432.065 353.94 433.32 354.09 434.577 354.231L438.338 354.734L440.219 354.999L442.092 355.307C443.349 355.478 444.587 355.75 445.843 355.941C443.389 355.281 440.909 354.71 438.405 354.286C435.904 353.84 433.383 353.516 430.859 353.243C428.332 353.012 425.801 352.81 423.265 352.733C420.728 352.653 418.189 352.639 415.657 352.787Z" fill="#263238"/>
<path d="M414.953 354.446C415.997 354.618 417.039 354.786 418.078 354.981C419.118 355.161 420.157 355.346 421.192 355.553C423.264 355.961 425.335 356.363 427.396 356.819C429.459 357.264 431.518 357.733 433.572 358.223C435.629 358.703 437.673 359.242 439.734 359.736C438.737 359.373 437.733 359.031 436.724 358.697C435.711 358.386 434.698 358.069 433.678 357.784C431.642 357.188 429.577 356.703 427.51 356.243C425.438 355.8 423.356 355.412 421.26 355.109C419.169 354.803 417.066 354.545 414.953 354.446Z" fill="#263238"/>
<path opacity="0.1" d="M419.898 330.445C419.898 330.445 416.428 319.262 410.944 316.024C410.535 315.783 409.797 326.598 410.067 326.649C414.713 327.532 419.898 330.445 419.898 330.445Z" fill="black"/>
<path d="M354.257 405.774C353.909 406.002 353.528 406.171 353.253 406.497C352.97 406.832 352.744 407.228 352.602 407.64C352.443 408.103 352.355 408.599 352.364 409.09C352.371 409.482 352.382 409.965 352.651 410.279C352.707 410.345 352.825 410.27 352.796 410.191C352.657 409.817 353.08 408.18 353.203 407.788C353.311 407.443 353.431 407.114 353.61 406.798C353.796 406.468 353.983 406.074 354.311 405.86C354.366 405.826 354.312 405.738 354.257 405.774Z" fill="#263238"/>
<path d="M357.414 406.303C356.999 406.524 356.61 406.723 356.269 407.062C355.932 407.395 355.673 407.799 355.497 408.245C355.164 409.09 355.075 410.256 355.733 410.966C355.766 411 355.833 410.962 355.814 410.914C355.645 410.508 355.664 410.018 355.729 409.586C355.789 409.184 355.876 408.773 356.022 408.393C356.164 408.022 356.354 407.661 356.574 407.334C356.811 406.983 357.109 406.609 357.469 406.393C357.527 406.36 357.473 406.272 357.414 406.303Z" fill="#263238"/>
<path d="M395.606 385.848C394.752 388.242 393.942 390.664 392.989 393.02C392.602 393.976 392.171 394.982 391.526 395.784C391.185 396.209 390.777 396.576 390.374 396.936C389.871 397.386 389.364 397.872 388.828 398.278C388.775 398.318 388.827 398.409 388.882 398.369C389.858 397.658 390.998 397.183 391.911 396.375C392.747 395.635 393.213 394.613 393.532 393.541C394.289 390.998 394.962 388.424 395.701 385.873C395.719 385.809 395.628 385.787 395.606 385.848Z" fill="#263238"/>
<path d="M369.929 397.355C370.833 396.377 371.899 395.608 372.457 394.328L373.062 393.089C375.523 388.159 378.176 383.344 381.186 378.789C378.978 383.867 376.391 388.724 373.62 393.453L372.916 394.627C372.271 395.871 370.995 396.607 369.929 397.355Z" fill="#263238"/>
<path d="M386.221 369.037C385.821 370.717 385.065 372.215 383.953 373.504C384.349 371.822 385.112 370.327 386.221 369.037Z" fill="#263238"/>
<path d="M420.602 379.22C417.218 380.735 409.924 385.09 407.358 387.225C404.791 389.359 395.798 400.566 394.545 401.42C393.292 402.274 388.363 402.594 386.926 403.768C385.489 404.942 382.921 407.931 383.538 408.571C384.154 409.211 396.372 409.105 398.322 408.571C400.273 408.037 401.104 406.97 402.023 406.863C402.943 406.757 414.647 402.274 417.008 401.954C419.37 401.634 436.161 398.2 438.052 396.492C439.941 394.785 436.617 386.277 434.199 380.391C432.897 377.223 424.839 377.322 420.602 379.22Z" fill="#E08F30"/>
<path opacity="0.1" d="M420.602 379.22C417.218 380.735 409.924 385.09 407.358 387.225C404.791 389.359 395.798 400.566 394.545 401.42C393.292 402.274 388.363 402.594 386.926 403.768C385.489 404.942 382.921 407.931 383.538 408.571C384.154 409.211 396.372 409.105 398.322 408.571C400.273 408.037 401.104 406.97 402.023 406.863C402.943 406.757 414.647 402.274 417.008 401.954C419.37 401.634 436.161 398.2 438.052 396.492C439.941 394.785 436.617 386.277 434.199 380.391C432.897 377.223 424.839 377.322 420.602 379.22Z" fill="black"/>
<path d="M387.532 404.482C387.184 404.709 386.802 404.879 386.528 405.205C386.245 405.54 386.019 405.936 385.876 406.348C385.716 406.81 385.629 407.307 385.638 407.797C385.645 408.19 385.657 408.673 385.926 408.987C385.982 409.053 386.099 408.977 386.07 408.898C385.931 408.525 386.354 406.887 386.477 406.496C386.585 406.15 386.706 405.822 386.885 405.506C387.071 405.176 387.257 404.782 387.586 404.568C387.641 404.532 387.588 404.445 387.532 404.482Z" fill="#263238"/>
<path d="M390.834 404.48C390.419 404.701 390.03 404.899 389.689 405.238C389.352 405.571 389.092 405.975 388.917 406.422C388.584 407.266 388.495 408.433 389.153 409.142C389.186 409.177 389.253 409.139 389.234 409.091C389.065 408.685 389.084 408.194 389.149 407.763C389.208 407.36 389.296 406.949 389.442 406.57C389.584 406.198 389.774 405.838 389.994 405.51C390.231 405.159 390.528 404.785 390.889 404.569C390.947 404.536 390.893 404.449 390.834 404.48Z" fill="#263238"/>
<path d="M430.641 377.519C428.141 377.436 425.583 377.488 423.15 378.157C421.951 378.486 420.846 379.014 419.753 379.61C418.537 380.273 417.326 380.947 416.12 381.627C413.757 382.961 411.363 384.304 409.101 385.818C406.913 387.282 405.192 389.283 403.413 391.228C401.273 393.567 399.188 395.997 397.205 398.482C397.162 398.535 397.23 398.603 397.279 398.556C399.276 396.621 401.184 394.584 403.091 392.555C404.874 390.656 406.49 388.479 408.61 386.968C409.683 386.204 410.834 385.558 411.964 384.889C413.092 384.223 414.223 383.562 415.359 382.911C416.543 382.232 417.723 381.549 418.909 380.875C420.004 380.254 421.097 379.603 422.24 379.081C424.893 377.87 427.79 377.727 430.644 377.634C430.713 377.63 430.71 377.522 430.641 377.519Z" fill="#263238"/>
<path d="M359.947 376.827C359.322 377.392 345.098 376.827 331.443 384.133C321.111 389.661 311.731 399.716 314.503 406.973C317.275 414.231 332.265 414.087 337.911 414.905C343.558 415.725 356.7 420.528 360.601 411.989C364.503 403.45 346.738 397.05 332.983 399.502C329.389 400.142 333.039 395.831 335.961 393.098C340.068 389.256 348.076 386.694 354.441 385.733L359.947 376.827Z" fill="#E08F30"/>
<path opacity="0.1" d="M359.947 376.827C359.322 377.392 345.098 376.827 331.443 384.133C321.111 389.661 311.731 399.716 314.503 406.973C317.275 414.231 332.265 414.087 337.911 414.905C343.558 415.725 356.7 420.528 360.601 411.989C364.503 403.45 346.738 397.05 332.983 399.502C329.389 400.142 333.039 395.831 335.961 393.098C340.068 389.256 348.076 386.694 354.441 385.733L359.947 376.827Z" fill="black"/>
<path d="M360.653 406.112C359.771 404.514 358.304 403.338 356.76 402.488C355.073 401.561 353.207 400.92 351.37 400.405C349.364 399.844 347.321 399.433 345.257 399.193C344.156 399.065 343.049 398.969 341.94 398.944C340.744 398.917 339.56 398.988 338.366 399.022C338.3 399.024 338.302 399.131 338.369 399.129C340.305 399.074 342.296 399.294 344.215 399.557C346.114 399.816 348.001 400.202 349.853 400.711C351.648 401.204 353.452 401.773 355.161 402.534C356.715 403.226 358.241 404.114 359.362 405.458C359.981 406.198 360.446 407.07 360.777 407.986C361.123 408.945 361.166 409.897 361.054 410.904C361.047 410.963 361.131 411.015 361.159 410.947C361.787 409.412 361.429 407.516 360.653 406.112Z" fill="#263238"/>
<path opacity="0.1" d="M359.944 376.826C357.106 379.351 353.905 382.939 351.062 386.361C349.973 386.609 348.864 386.889 347.763 387.212C348.112 384.694 348.64 380.956 349.056 378.212C355.206 377.108 359.607 377.135 359.944 376.826Z" fill="black"/>
<path d="M345.18 498.938C341.713 499.02 251.783 470.121 249.029 466.773C248.731 466.401 250.136 452.56 252.457 441.568C252.565 441.042 220.521 397.395 220.521 397.395L278.457 373.969L306.172 433.669L313.383 449.192C313.383 449.192 343.382 480.545 346.039 484.56C348.664 488.58 348.647 498.855 345.18 498.938Z" fill="#EBEBEB"/>
<path d="M347.712 499.463C344.097 499.564 250.215 469.772 247.324 466.283C246.221 464.966 247.9 458.929 252.457 441.568L314.008 449.273C314.008 449.273 345.775 480.283 348.549 484.462C351.303 488.637 351.326 499.364 347.712 499.463Z" fill="#97A97C"/>
<path d="M347.512 495.133C331.893 489.737 268.402 469.508 252.568 465.408C252.44 465.374 252.413 465.464 252.538 465.51C267.907 471.211 331.552 490.905 347.434 495.402C347.768 495.496 347.841 495.246 347.512 495.133Z" fill="#263238"/>
<path d="M343.54 479.037C339.855 477.694 335.666 478.38 332.952 480.045C330.346 481.645 327.756 484.235 326.871 487.664C326.845 487.762 327.018 487.819 327.061 487.724C329.839 481.607 337.093 477.761 343.481 479.242C343.609 479.272 343.666 479.082 343.54 479.037Z" fill="#263238"/>
<path d="M320.363 455.728C314.09 453.638 306.108 453.632 300.621 457.745C300.409 457.904 300.629 458.216 300.847 458.175C307.437 456.931 313.518 456.374 320.234 456.568C320.708 456.583 320.812 455.879 320.363 455.728Z" fill="#263238"/>
<path d="M324.647 459.243C318.374 457.153 310.393 457.147 304.905 461.26C304.693 461.419 304.915 461.732 305.131 461.69C311.72 460.445 317.802 459.889 324.518 460.082C324.992 460.097 325.096 459.392 324.647 459.243Z" fill="#263238"/>
<path d="M328.931 462.756C322.658 460.666 314.677 460.66 309.19 464.774C308.977 464.932 309.198 465.245 309.415 465.203C316.005 463.959 322.085 463.402 328.802 463.596C329.277 463.61 329.38 462.906 328.931 462.756Z" fill="#263238"/>
<path d="M333.215 466.27C326.943 464.18 318.961 464.174 313.474 468.287C313.261 468.447 313.482 468.759 313.699 468.717C320.29 467.473 326.371 466.916 333.088 467.109C333.561 467.124 333.664 466.419 333.215 466.27Z" fill="#263238"/>
<path d="M332.302 440.415C329.92 436.656 325.115 438.066 322.311 440.297C317.769 443.908 313.68 449.692 311.669 455.225C311.621 455.361 311.706 455.45 311.812 455.475C311.808 455.987 312.225 456.55 312.789 456.363C318.221 454.561 324.243 453.336 328.981 449.855C331.747 447.822 334.553 443.972 332.302 440.415ZM320.486 451.88C317.836 452.833 315.156 453.647 312.54 454.701C314.623 451.795 316.575 448.811 318.939 446.125C320.067 444.844 321.249 443.549 322.537 442.438C324.54 440.709 332.33 437.198 330.866 444.522C330.057 448.559 323.645 450.743 320.486 451.88Z" fill="#263238"/>
<path d="M295.307 452.686C300.535 455.303 306.669 455.474 312.313 456.316C312.899 456.403 313.22 455.776 313.136 455.272C313.236 455.229 313.306 455.127 313.236 455.002C310.373 449.892 305.417 444.891 300.362 442.112C297.241 440.396 292.277 439.832 290.528 443.95C288.873 447.846 292.255 451.159 295.307 452.686ZM292.599 447.753C289.986 440.783 298.228 442.904 300.479 444.263C301.926 445.137 303.299 446.21 304.615 447.279C307.375 449.52 309.774 452.127 312.293 454.634C309.545 454.044 306.773 453.704 304.006 453.22C300.709 452.645 294.038 451.595 292.599 447.753Z" fill="#263238"/>
<path d="M309.105 436.454L245.239 446.261C245.239 446.261 210.386 380.471 196.31 364.107L196.275 364.079C195.352 362.999 194.489 362.127 193.701 361.466L193.675 361.456C192.783 360.925 191.225 360.528 189.066 360.258L189.039 360.249C170.155 357.864 106.596 364.284 62.6758 361.338L83.1866 332.834L92.276 320.192C141.755 314.324 202.476 293.295 229.876 307.583C259.633 323.102 309.105 436.454 309.105 436.454Z" fill="#263238"/>
<path d="M301.1 425.178C290.243 426.631 293.34 426.063 282.5 427.635C277.195 428.404 250.522 432.208 245.688 433.781C245.581 433.816 245.607 433.997 245.719 433.998C250.785 434.04 277.372 429.639 282.662 428.769C293.474 426.99 290.351 427.385 301.143 425.487C301.347 425.453 301.304 425.151 301.1 425.178Z" fill="#37474F"/>
<path d="M245.565 432.856C238.338 420.293 205.43 358.285 198.88 355.844C192.919 353.622 73.6342 356.2 71.8685 356.213C71.7421 356.215 71.7318 356.418 71.8593 356.415C85.9782 356.228 195.011 355.824 198.12 357.103C204.585 359.762 243.938 431.692 244.903 433.194C245.163 433.594 245.813 433.287 245.565 432.856Z" fill="#37474F"/>
<path d="M29.3128 335.403C29.3128 335.403 25.5412 372.796 43.7924 391.394C65.6347 413.653 209.776 408.029 232.113 400.524C254.452 393.018 255.15 355.546 230.73 346.862C207.506 338.604 104.508 333.857 102.069 332.845C99.6302 331.834 92.4904 319.984 92.4904 319.984L29.3128 335.403Z" fill="#263238"/>
<path d="M59.8158 334.35C59.7871 334.171 59.5206 334.229 59.5206 334.399C59.5401 339.121 57.8571 344.089 54.8748 347.67C51.4536 351.775 46.4103 354.074 41.8392 356.477C41.3992 356.709 41.7324 357.423 42.1873 357.281C44.9732 356.413 47.7188 355.149 50.2588 353.666C52.5714 352.315 54.7082 350.622 56.3292 348.42C59.3184 344.36 60.6246 339.41 59.8158 334.35Z" fill="#37474F"/>
<path d="M101.086 330.515C100.067 329.161 98.9554 327.872 97.8905 326.556C95.3746 323.443 92.8461 320.316 90.2084 317.314C89.9591 317.029 89.4697 317.432 89.6995 317.744C91.4755 320.157 93.3561 322.496 95.2057 324.85C96.1535 326.056 97.1047 327.26 98.064 328.457C98.9589 329.575 100.067 330.686 100.73 331.975C101.42 333.313 100.513 334.457 99.1783 334.605C97.9836 334.738 96.8818 334.105 95.9651 333.375C93.8834 331.718 92.2452 329.344 90.514 327.318C89.4548 326.078 88.3956 324.84 87.3192 323.616C86.1749 322.314 84.9549 321.079 83.8153 319.78C83.7418 319.696 83.6005 319.813 83.6648 319.906C84.662 321.326 85.5833 322.813 86.5816 324.238C87.5799 325.66 88.592 327.071 89.6237 328.469C90.599 329.793 91.6088 331.088 92.6473 332.359C93.5296 333.439 94.5337 334.49 95.7158 335.213C97.6274 336.381 100.944 336.633 101.962 334.068C102.465 332.796 101.837 331.511 101.086 330.515Z" fill="#37474F"/>
<path d="M229.059 400.664C221.367 400.813 213.682 401.278 205.989 401.449C198.36 401.618 190.729 401.662 183.098 401.588C167.773 401.438 152.451 400.83 137.16 399.731C121.709 398.621 105.043 397.021 89.6965 394.811C82.3521 393.753 74.9078 392.873 67.6508 391.25C61.1026 389.785 55.1632 386.957 50.2613 382.014C40.3206 371.992 36.456 357.256 34.8684 343.178C34.6558 341.289 34.4812 339.396 34.3342 337.5C34.3238 337.371 34.1377 337.375 34.1458 337.505C35.043 351.941 37.2027 366.992 45.9371 378.597C49.7156 383.618 54.5245 387.732 60.164 390.082C67.0373 392.944 74.6666 393.615 81.9236 394.639C97.3337 396.811 114.065 398.489 129.564 399.74C145.161 400.997 160.795 401.781 176.435 402.021C192.073 402.261 207.727 402.031 223.35 401.232C225.258 401.135 227.161 401.019 229.064 400.846C229.17 400.837 229.169 400.663 229.059 400.664Z" fill="#37474F"/>
<path d="M249.593 365.721C248.126 359.382 244.453 354.068 239.292 350.404C233.757 346.475 227.135 344.686 220.581 343.695C213.165 342.574 205.654 342.002 198.197 341.249C182.895 339.704 167.584 338.278 152.262 336.967C136.951 335.658 103.968 332.994 102.114 332.919C101.953 332.913 101.919 333.197 102.083 333.217C116.865 334.924 130.313 336.39 145.125 337.788C160.008 339.194 174.887 340.666 189.759 342.195C197.169 342.957 204.579 343.727 211.985 344.523C218.848 345.26 225.91 345.987 232.348 348.742C237.871 351.107 242.837 354.909 245.653 360.495C248.375 365.89 248.948 372.34 247.859 378.274C246.848 383.783 244.355 389.151 240.714 393.305C237.126 397.398 232.573 400.531 227.324 401.708C225.97 402.011 224.335 402.228 223.09 402.488C222.995 402.508 222.898 402.715 222.994 402.718C234.065 403.01 244.306 394.604 248.304 384.092C250.505 378.303 250.997 371.785 249.593 365.721Z" fill="#37474F"/>
<path d="M87.5133 249.746C93.5514 277.375 106.107 310.508 111.484 315.893C118.285 322.703 160.522 331.743 162.773 332.001C168.345 332.599 176.228 295.606 172.954 295.559C163.829 295.43 134.65 290.241 132.687 288.135C130.65 285.933 116.831 267.73 102.624 247.164C92.8174 232.952 83.767 232.602 87.5133 249.746Z" fill="#AD6359"/>
<path d="M159.612 331.435C160.202 331.748 168.578 336.152 173.759 337.727C177.625 338.902 188.839 341.974 190.506 337.678C191.647 334.75 185.256 332.136 180.777 330.183C178.417 329.154 175.512 326.576 176.212 325C177.435 322.244 183.51 325.03 187.502 327.455C195.224 332.145 205.505 340.577 210.238 336.512C212.026 334.975 209.959 332.162 206.932 329.402C211.846 332.622 217.09 335.266 219.139 333.641C220.317 332.715 220.374 331.439 219.723 329.982C221.241 330.5 222.584 330.403 223.523 329.376C225.127 327.639 224.354 325.068 222.608 322.431C223.17 322.371 223.675 322.076 224.064 321.442C227.464 316.081 210.544 300.624 204.682 299.167C187.44 294.861 169.259 295.61 169.259 295.61C162.472 301.221 159.599 331.423 159.612 331.435Z" fill="#AD6359"/>
<path d="M185.019 314.987C189.08 315.658 193.076 317.248 196.516 319.62C200.882 322.632 203.776 326.151 207.438 329.697C207.534 329.79 207.397 329.949 207.301 329.856C205.556 328.17 198.325 321.832 196.456 320.39C193.031 317.75 189.204 315.891 185.004 315.06C184.959 315.051 184.974 314.98 185.019 314.987Z" fill="#263238"/>
<path d="M188.251 307.385C192.782 308.684 197.425 309.999 201.629 312.238C206.229 314.689 209.825 318.675 213.359 322.512C215.482 324.816 217.56 327.166 219.579 329.569C219.664 329.67 219.534 329.828 219.442 329.728C215.856 325.764 212.156 321.909 208.341 318.181C204.755 314.673 200.75 311.986 196.149 310.152C193.556 309.117 190.893 308.291 188.234 307.468C188.183 307.453 188.199 307.37 188.251 307.385Z" fill="#263238"/>
<path d="M193.11 300.741C197.513 301.691 201.355 302.506 205.25 304.97C210.407 308.231 215.38 313.718 217.125 315.662C219.053 317.81 220.909 320.023 222.734 322.266C222.809 322.357 222.657 322.494 222.58 322.404C218.411 317.499 213.917 312.839 209.172 308.535C206.905 306.478 204.439 304.685 201.669 303.436C198.931 302.201 195.995 301.499 193.104 300.771C193.084 300.767 193.09 300.737 193.11 300.741Z" fill="#263238"/>
<path d="M168.877 291.288L154.9 336.943C154.9 336.943 117.364 325.705 110.518 317.992C103.671 310.278 91.0926 270.513 87.4095 251.244C83.7265 231.976 93.0938 232.475 101.675 244.639C110.257 256.802 131.626 286.285 132.823 286.928C134.019 287.569 168.877 291.288 168.877 291.288Z" fill="#455A64"/>
<path d="M151.342 316.637C153.035 311.254 154.769 305.883 156.27 300.435C157.122 297.34 157.992 294.248 158.815 291.143C158.846 291.025 158.658 290.954 158.617 291.07C156.712 296.402 154.814 301.755 153.145 307.178C151.484 312.572 149.779 317.954 148.185 323.372C147.279 326.453 146.466 329.55 145.74 332.686C145.726 332.748 145.82 332.785 145.844 332.725C147.922 327.454 149.639 322.056 151.342 316.637Z" fill="#263238"/>
<path opacity="0.1" d="M135.971 330.617C135.416 330.414 134.862 330.211 134.308 330.006C131.182 328.837 127.994 327.582 124.993 326.298C124.605 326.138 124.223 325.972 123.85 325.805C123.247 325.543 122.644 325.276 122.062 325.007C121.764 324.877 121.48 324.738 121.189 324.608C121.086 324.558 120.981 324.514 120.877 324.464C120.572 324.318 120.274 324.174 119.976 324.029C118.784 323.457 117.654 322.884 116.602 322.305C116.36 322.174 116.11 322.037 115.875 321.898C113.955 320.812 112.363 319.74 111.249 318.722C111.117 318.599 110.986 318.476 110.868 318.353C110.737 318.23 110.626 318.107 110.523 317.991C103.672 310.279 91.0951 270.513 87.4132 251.241C87.3718 251.018 87.3304 250.794 87.2902 250.577C87.2833 250.527 87.2765 250.482 87.2696 250.432C87.0237 248.968 86.8054 247.158 86.6297 245.195V245.174C86.1311 235.589 90.4977 234.034 95.8787 238.259C109.299 268.293 129.77 317.88 135.971 330.617Z" fill="black"/>
<path d="M27.4708 341.696C27.6811 341.957 115.853 329.664 116.739 328.683C117.978 327.303 107.871 258.276 93.1449 236.671C89.4618 231.268 76.4343 230.502 70.2112 235.103C39.3702 257.9 26.7207 340.752 27.4708 341.696Z" fill="#97A97C"/>
<path d="M68.808 235.706C68.808 235.706 81.9906 261.194 83.6483 271.457C85.306 281.721 87.5117 332.985 87.1464 334.893C86.7811 336.801 85.2934 338.056 85.2934 338.056V342.981L25.885 348.231V343.912C25.885 343.912 23.0681 342.379 23.739 333.594C24.4099 324.808 49.8963 244.351 68.808 235.706Z" fill="#455A64"/>
<path d="M28.9922 343.997C46.438 341.597 64.0872 339.983 81.672 339.182C64.2216 341.584 46.5747 343.196 28.9922 343.997Z" fill="#37474F"/>
<path d="M93.1445 236.671C93.1445 236.671 96.2578 263.175 96.684 268.056C97.1102 272.937 103.953 330.596 104.625 332.157C105.297 333.718 106.421 335.888 106.421 335.888L106.892 339.183L118.488 336.526L118.067 333.011C118.067 333.011 120.487 331.256 120.132 326.637C119.78 322.019 106.08 247.814 93.1445 236.671Z" fill="#455A64"/>
<path d="M107.735 335.939C110.666 334.387 113.8 333.618 117.091 333.663C114.163 335.222 111.026 335.979 107.735 335.939Z" fill="#37474F"/>
<path d="M63.0927 239.369C44.7255 251.698 -5.22585 303.632 3.23858 317.697C11.7627 331.862 77.2667 332.942 96.7482 328.873C102.543 327.663 90.9893 288.981 85.0959 286.609C80.1893 284.634 51.3231 290.179 50.9486 288.434C50.5259 286.463 57.7611 274.621 69.6444 252.866C83.3451 227.783 71.2056 233.923 63.0927 239.369Z" fill="#AD6359"/>
<path d="M111.985 284.523C124.543 285.937 127.559 288.304 138.766 283.646C146.121 280.59 151.154 284.161 145.805 290.673C137.056 301.325 120.485 303.037 114.576 301.911L111.985 284.523Z" fill="#AD6359"/>
<path d="M76.8223 288.242C76.8223 288.242 92.3576 283.935 105.884 284.065C115.237 284.156 135.565 286.711 149.528 311.845C152.84 317.807 153.493 328.743 144.681 321.048C138.423 315.582 136.042 310.151 131.846 307.661C131.846 307.661 131.087 321.674 125.212 324.889C122.587 326.327 115.334 330.075 109.285 332.156C109.285 332.156 108.495 330.909 107.71 329.18C107.71 329.18 101.95 331.645 93.0251 328.351L76.8223 288.242Z" fill="#AD6359"/>
<path d="M114.797 285.633C118.461 289.02 126.108 296.335 130.363 304.579C135.09 313.738 141.818 332.704 135.279 336.261C130.484 338.869 127.303 331.862 127.303 331.862C127.303 331.862 128.494 340.312 123.668 341.683C119.269 342.932 117.121 337.358 117.121 337.358C117.121 337.358 116.996 342.613 112.536 342.968C107.171 343.395 108.313 332.313 102.52 327.865C101.217 326.867 114.797 285.633 114.797 285.633Z" fill="#AD6359"/>
<path d="M120.221 308.157C123.165 311.93 127.732 322.281 127.415 331.683C127.408 331.896 127.25 332.004 127.216 331.809C125.452 321.38 121.881 312.064 120.139 308.204C120.114 308.153 120.188 308.116 120.221 308.157Z" fill="#263238"/>
<path d="M111.466 313.386C113.683 316.912 117.934 327.799 117.298 337.315C117.284 337.528 117.117 337.626 117.092 337.429C115.679 326.453 112.899 317.388 111.38 313.426C111.361 313.374 111.438 313.34 111.466 313.386Z" fill="#263238"/>
<path d="M131.868 307.578C135.529 309.821 137.613 312.51 140.368 315.791C141.73 317.414 143.122 319.019 144.651 320.475C146.043 321.802 148.087 323.791 150.145 322.822C151.291 322.282 151.625 320.842 151.686 319.655C151.755 318.321 151.114 315.655 150.644 314.409C150.62 314.346 150.726 314.301 150.751 314.364C151.193 315.478 151.997 317.948 152.12 319.149C152.232 320.237 152.227 321.467 151.701 322.45C150.572 324.565 147.929 324.192 146.259 323.092C145.259 322.434 144.374 321.563 143.526 320.713C142.706 319.891 141.923 319.028 141.163 318.145C139.603 316.333 138.144 314.431 136.604 312.601C134.912 310.591 133.671 309.5 131.776 307.699C131.712 307.639 131.795 307.534 131.868 307.578Z" fill="#263238"/>
<path d="M136.65 324.205C136.194 321.594 133.014 310.383 131.763 307.656C131.731 307.586 131.824 307.53 131.864 307.597C134.211 311.439 137.214 320.8 137.742 323.686C138.265 326.538 138.79 330.146 138.102 332.993C137.065 337.288 134.127 337.386 133.063 337.331C131.794 337.265 130.636 336.682 129.691 335.814C128.64 334.847 127.798 333.192 127.258 331.868C127.23 331.798 127.324 331.738 127.359 331.809C128.382 333.873 130.357 336.165 132.676 336.446C133.682 336.568 134.78 336.365 135.577 335.68C136.514 334.877 136.884 333.594 137.074 332.394C137.502 329.676 137.119 326.887 136.65 324.205Z" fill="#263238"/>
<path d="M76.9712 286.358L86.3098 334.892C86.3098 334.892 4.38938 332.732 1.09115 316.952C-2.20708 301.171 41.1903 254.123 58.6281 241.676C78.8368 227.252 79.3205 234.08 71.8819 249.604C64.0942 265.855 51.0747 288.9 51.0747 288.9L76.9712 286.358Z" fill="#455A64"/>
<path d="M24.7148 294.282C28.9263 292.608 33.2952 291.355 37.6917 290.332C42.0468 289.318 46.4858 288.797 50.9317 288.459C53.4718 288.266 56.0106 288.201 58.5552 288.119C58.6334 288.116 58.6334 288.239 58.5564 288.244C54.0887 288.51 49.6244 289.185 45.2187 289.984C40.8314 290.781 36.4648 291.657 32.1085 292.621C29.6443 293.166 27.2054 293.832 24.7607 294.463C24.6481 294.493 24.6079 294.325 24.7148 294.282Z" fill="#263238"/>
<path d="M76.7922 286.178C76.3764 286.182 53.4105 287.919 52.6339 288.075C52.8028 287.765 59.4418 277.037 60.4263 275.469C60.5239 275.313 60.6147 275.153 60.7112 274.996C61.2833 274.332 61.8577 273.672 62.4045 272.983C63.1053 272.1 63.7992 271.213 64.4942 270.326C64.516 270.299 64.4793 270.263 64.4552 270.289C63.7234 271.14 62.9893 271.989 62.2621 272.845C61.9255 273.24 61.6015 273.647 61.2799 274.055C61.9462 272.94 62.5987 271.818 63.2524 270.691C64.2943 268.893 65.2777 267.066 66.2588 265.232C66.291 265.172 66.2048 265.128 66.1703 265.183C64.2185 268.308 62.1725 271.367 60.2115 274.485C58.2539 277.598 50.8452 289.044 50.882 289.043C50.913 289.085 76.3097 286.579 76.8072 286.5C77.0013 286.471 76.9967 286.176 76.7922 286.178Z" fill="#263238"/>
<path d="M71.3837 314.832C70.3716 309.423 69.4009 304.004 68.1958 298.633C67.5111 295.582 66.8425 292.526 66.1291 289.48C66.1026 289.365 65.9096 289.397 65.9269 289.516C66.7356 294.987 67.5593 300.472 68.6093 305.904C69.6536 311.308 70.6542 316.721 71.7663 322.112C72.3981 325.178 73.1173 328.211 73.9283 331.235C73.9444 331.295 74.0421 331.279 74.0352 331.216C73.401 325.713 72.4027 320.279 71.3837 314.832Z" fill="#263238"/>
<path d="M87.1457 335.833C86.6919 334.296 86.1772 332.115 85.6614 330.599C85.5247 330.198 85.2536 330.203 85.3421 330.61C85.6396 331.976 85.7993 333.466 86.0842 334.862C84.9411 334.803 83.7992 334.718 82.655 334.671C81.3316 334.616 80.0081 334.569 78.6847 334.51C76.0941 334.394 73.5047 334.251 70.9165 334.079C65.6756 333.733 60.4416 333.269 55.2191 332.692C44.7512 331.535 34.297 329.977 23.9979 327.697C21.1167 327.059 18.2458 326.364 15.3991 325.576C12.5087 324.776 9.38851 323.893 7.06562 322.951C6.9921 322.921 6.94385 323.052 7.01622 323.088C9.37588 324.269 11.6115 325.203 14.1136 325.995C16.6674 326.803 19.243 327.538 21.8393 328.184C27.009 329.47 32.2429 330.47 37.493 331.32C47.9047 333.008 58.391 334.226 68.9015 335.009C71.847 335.229 74.7937 335.412 77.7438 335.56C79.2315 335.634 80.7204 335.708 82.2104 335.753C83.6981 335.797 87.2227 336.095 87.1457 335.833Z" fill="#263238"/>
<path d="M186.328 340.1H93.374V343.998H186.328V340.1Z" fill="#455A64"/>
<path d="M144.807 340.1H93.374V343.998H144.807V340.1Z" fill="#A6A6A6"/>
<path d="M143.247 343.994H224.715L236.226 286.474H154.758L143.247 343.994Z" fill="#A6A6A6"/>
<path d="M146.941 343.994H228.409L239.919 286.474H158.452L146.941 343.994Z" fill="#C7C7C7"/>
<path d="M188.001 316.518C187.686 319.635 189.861 322.164 192.86 322.164C195.859 322.164 198.546 319.637 198.861 316.518C199.177 313.401 197.001 310.873 194.001 310.873C191.003 310.874 188.316 313.401 188.001 316.518Z" fill="#EBEBEB"/>
<path d="M85.9929 256.388C85.9929 256.388 70.4311 240.848 60.4388 241.3L50.2626 248.481C50.2626 248.481 46.7645 246.705 45.888 244.878C43.7179 240.361 45.6812 232.871 54.6982 225.662C62.9547 219.061 76.5727 219.416 87.9574 222.421C98.8906 225.306 108.42 232.742 105.138 240.169C101.856 247.596 85.9929 256.388 85.9929 256.388Z" fill="#97A97C"/>
<path opacity="0.1" d="M87.0558 252.902C87.0558 252.902 99.4848 243.501 100.729 237.975C101.972 232.449 91.3225 227.295 84.4561 225.298C73.8285 222.208 66.6162 222.983 60.7286 228.921C54.8409 234.858 87.0558 252.902 87.0558 252.902Z" fill="black"/>
<path d="M85.5888 252.41C81.6576 251.771 75.0347 242.499 73.1185 235.454C72.9898 234.97 74.6188 230.597 76.3581 225.187C77.4001 221.899 78.4869 218.212 79.2451 214.774L98.8346 224.953C98.8346 224.953 95.2066 231.675 93.9211 237.678C93.8189 238.18 93.7637 238.658 93.7522 239.123C93.7442 239.19 93.7453 239.272 93.7304 239.364C93.5615 242.144 91.7453 253.411 85.5888 252.41Z" fill="#AD6359"/>
<path d="M93.7496 239.124C93.7427 239.192 93.7508 239.266 93.7335 239.366C93.0569 239.305 92.3504 239.18 91.5703 238.973C79.8387 235.885 80.2454 220.258 80.6624 215.51L98.8434 224.95C98.8434 224.95 95.2143 231.673 93.9139 237.68C93.8243 238.179 93.7623 238.651 93.7496 239.124Z" fill="#263238"/>
<path d="M100.265 210.14C99.3521 215.377 102.194 220.299 106.614 221.132C111.033 221.966 115.357 218.396 116.271 213.158C117.184 207.921 114.342 203.001 109.922 202.167C105.503 201.334 101.18 204.903 100.265 210.14Z" fill="#37474F"/>
<path d="M97.0271 209.983C96.0104 215.808 99.1719 221.283 104.089 222.211C109.006 223.137 113.816 219.166 114.831 213.34C115.848 207.514 112.687 202.039 107.77 201.113C102.853 200.185 98.0438 204.156 97.0271 209.983Z" fill="#DBDBDB"/>
<path d="M80.7936 191.21C77.0909 198.453 76.8382 221.488 81.1784 227.513C87.4704 236.248 99.8454 239.465 107.508 231.11C114.936 223.011 114.755 192.984 109.714 187.288C102.29 178.897 86.2619 180.512 80.7936 191.21Z" fill="#AD6359"/>
<path d="M97.0616 206.936C97.7371 206.897 98.354 206.741 99.018 206.63C99.7671 206.504 100.377 206.485 100.956 205.923C101.266 205.622 101.28 204.973 101.027 204.632C100.438 203.837 99.4833 203.754 98.5757 203.867C97.5901 203.99 96.8606 204.346 96.1724 205.087C95.5061 205.806 96.1701 206.99 97.0616 206.936Z" fill="#263238"/>
<path d="M111.229 208.337C110.586 208.116 110.029 207.801 109.416 207.515C108.723 207.191 108.139 207.009 107.72 206.31C107.495 205.935 107.643 205.306 107.973 205.044C108.74 204.435 109.682 204.613 110.531 204.967C111.453 205.351 112.068 205.891 112.547 206.793C113.014 207.664 112.076 208.628 111.229 208.337Z" fill="#263238"/>
<path d="M96.0196 224.348C96.3344 224.753 96.6319 225.293 97.1638 225.405C97.675 225.514 98.3069 225.346 98.8009 225.213C98.8491 225.2 98.8916 225.257 98.856 225.3C98.4034 225.845 97.5521 226.116 96.8801 225.906C96.2229 225.701 95.9587 225.058 95.8691 224.4C95.8565 224.309 95.9736 224.29 96.0196 224.348Z" fill="#263238"/>
<path d="M98.1008 219.926C98.7786 221.365 99.916 222.245 101.205 222.674C101.779 222.869 102.397 222.967 103.011 222.983C103.13 222.995 103.252 222.996 103.362 222.984C103.472 222.984 103.571 222.983 103.693 222.973C103.869 222.968 103.982 222.83 104.03 222.664L104.031 222.654C104.036 222.598 104.041 222.551 104.034 222.495C104.034 222.495 104.034 222.495 104.036 222.483L104.048 222.348C104.214 221.166 104.308 219.347 104.308 219.347C104.701 219.615 106.713 220.871 106.75 220.246C107.037 215.078 107.358 209.332 106.594 204.126C106.577 203.953 106.324 203.961 106.319 204.132C105.854 209.087 106.23 214.093 105.839 219.078C105.191 218.727 104.14 218.095 103.543 218.034C103.375 218.063 103.421 221.551 103.306 222.076C103.306 222.076 103.304 222.098 103.29 222.131C101.344 222.151 99.9665 221.371 98.2571 219.804C98.1548 219.703 98.025 219.792 98.1008 219.926Z" fill="#263238"/>
<path d="M99.7266 210.455C99.7209 210.396 99.6048 210.516 99.6002 210.58C99.5095 212.119 99.1557 213.866 97.7748 214.245C97.7323 214.257 97.7288 214.334 97.7794 214.332C99.4302 214.252 99.8771 211.929 99.7266 210.455Z" fill="#263238"/>
<path d="M98.5528 208.725C96.1954 208.307 95.5636 213.239 97.7486 213.626C99.8981 214.007 100.529 209.075 98.5528 208.725Z" fill="#263238"/>
<path d="M108.14 211.207C108.159 211.15 108.245 211.296 108.234 211.358C107.98 212.877 107.936 214.662 109.195 215.364C109.234 215.385 109.219 215.462 109.171 215.447C107.584 214.972 107.665 212.604 108.14 211.207Z" fill="#263238"/>
<path d="M109.667 209.805C112.053 209.963 111.572 214.915 109.36 214.767C107.184 214.621 107.667 209.671 109.667 209.805Z" fill="#263238"/>
<path d="M77.7606 213.973C80.9463 215.111 86.2871 210.48 87.2383 208.432C88.1895 206.383 87.9184 196.182 89.6749 193.131C91.4314 190.08 94.9043 188.543 97.5224 189.528C100.142 190.514 103.156 194.373 105.136 194.309C107.115 194.243 107.353 190.25 108.723 190.336C111.739 190.523 112.861 198.369 113.206 201.84C113.206 201.84 115.883 184.426 99.8097 181.867C85.8034 179.637 80.6797 189.452 79.1966 193.789C76.3579 202.099 77.7606 213.973 77.7606 213.973Z" fill="#263238"/>
<path d="M83.9696 211.103C83.9696 211.103 81.6616 202.49 78.0601 203.108C74.4586 203.727 74.562 215.027 77.6396 217.694C80.7173 220.361 83.1482 217.447 83.1482 217.447L83.9696 211.103Z" fill="#AD6359"/>
<path d="M78.1673 206.346C78.1122 206.32 78.0731 206.398 78.1156 206.438C80.2455 208.393 80.7418 211.265 80.8165 214.082C80.4017 212.857 79.5734 211.965 78.0329 212.428C77.9525 212.453 77.9777 212.581 78.0536 212.591C79.1472 212.736 79.8193 213.188 80.2202 214.287C80.504 215.064 80.5798 215.944 80.6935 216.765C80.7315 217.038 81.1737 217.061 81.1795 216.765C81.1795 216.743 81.1795 216.719 81.1795 216.698C82.357 213.429 81.4552 207.922 78.1673 206.346Z" fill="#263238"/>
<path d="M109.69 186.715C107.76 184.794 105.403 182.662 102.363 181.033C99.323 179.404 88.9929 176.388 85.8463 177.563C82.6997 178.738 78.5985 188.336 78.0252 189.753C77.452 191.168 75.0085 200.105 77.2992 203.358C79.5899 206.611 85.087 191.941 91.6007 188.861C98.1145 185.779 109.69 186.715 109.69 186.715Z" fill="#97A97C"/>
<path opacity="0.1" d="M109.69 186.718C109.69 186.718 98.1119 185.779 91.6015 188.863C85.0866 191.936 79.5907 206.611 77.2943 203.359C76.2856 201.925 76.1213 200.303 76.3856 197.782C78.5419 193.705 82.5834 187.643 87.683 184.319C92.4597 181.205 98.8149 181.133 105.035 182.704C106.845 183.983 108.366 185.397 109.69 186.718Z" fill="black"/>
<path d="M74.9519 212.414C76.5787 208.653 83.9965 199.754 90.0462 195.337C96.0958 190.92 108.987 191.84 110.558 192.611C112.211 193.42 111.741 196.025 112.497 195.896C113.253 195.767 112.948 190.25 112.078 189.133C111.208 188.016 109.705 186.205 107.971 185.593C106.236 184.982 95.2537 182.043 89.7463 185.274C84.2389 188.506 74.1512 199.598 73.9617 203.35C73.9169 204.249 74.7681 205.165 74.6935 206.437C74.5958 208.107 74.2868 209.965 74.3534 211.184C74.4074 212.167 74.8106 212.741 74.9519 212.414Z" fill="#97A97C"/>
<path d="M91.8954 193.024C91.1889 192.091 90.5628 191.131 90.0171 190.087C89.4783 189.058 88.9682 187.947 88.6787 186.811C88.6581 186.728 88.5351 186.743 88.5489 186.832C88.7442 188.058 89.0303 189.221 89.584 190.332C90.1159 191.398 90.8672 192.4 91.7415 193.189C91.838 193.277 91.9712 193.125 91.8954 193.024Z" fill="#263238"/>
<path d="M76.2751 208.543C76.2705 208.226 76.1809 207.912 76.1476 207.595C76.1097 207.234 76.1016 206.87 76.1372 206.508C76.2062 205.816 76.4509 205.178 76.3762 204.473C76.3164 203.914 76.1361 203.385 75.958 202.857C75.7558 202.256 75.5663 201.635 75.7788 201.01C75.8064 200.928 75.6858 200.877 75.6559 200.96C75.2377 202.131 75.7018 203.253 75.8489 204.422C75.9431 205.171 75.6766 205.878 75.6513 206.622C75.6295 207.251 75.6754 208.088 76.0637 208.608C76.1223 208.684 76.2762 208.656 76.2751 208.543Z" fill="#263238"/>
<path d="M79.0262 204.858C78.8286 204.283 78.5885 203.746 78.4449 203.149C78.3071 202.577 78.2175 201.987 78.1554 201.4C78.0934 200.821 78.0773 200.238 78.0268 199.659C77.967 198.974 77.828 198.288 77.8004 197.602C77.797 197.513 77.6672 197.536 77.6706 197.623C77.7005 198.336 77.6098 199.055 77.6155 199.769C77.6212 200.385 77.6856 201.005 77.7671 201.615C77.8476 202.203 77.9693 202.777 78.1566 203.339C78.3335 203.87 78.5897 204.482 78.9653 204.896C78.9918 204.927 79.04 204.899 79.0262 204.858Z" fill="#263238"/>
<path d="M81.7062 201.598C81.1789 200.627 80.755 199.543 80.5195 198.454C80.2875 197.379 80.1151 196.284 79.9532 195.195C79.9428 195.121 79.8233 195.119 79.8233 195.199C79.8176 196.35 79.8061 197.49 80.0703 198.618C80.1956 199.152 80.346 199.708 80.5884 200.199C80.8527 200.733 81.2111 201.219 81.5891 201.672C81.6373 201.728 81.7464 201.672 81.7062 201.598Z" fill="#263238"/>
<path d="M84.4509 198.543C84.1224 198.123 83.9845 197.639 83.8306 197.133C83.6617 196.578 83.5043 196.018 83.3653 195.454C83.2321 194.912 83.0839 194.375 82.9506 193.834C82.8162 193.289 82.6898 192.724 82.784 192.162C82.7967 192.086 82.6795 192.057 82.6577 192.129C82.4911 192.678 82.5014 193.235 82.5531 193.801C82.6094 194.421 82.7036 195.031 82.861 195.632C83.0172 196.222 83.1999 196.804 83.4262 197.369C83.6238 197.861 83.8777 198.386 84.3246 198.678C84.4084 198.732 84.521 198.631 84.4509 198.543Z" fill="#263238"/>
<path d="M87.1267 194.363C86.905 193.88 86.689 193.399 86.5052 192.9C86.3226 192.403 86.1629 191.895 86.0113 191.388C85.8527 190.856 85.6792 190.321 85.5529 189.781C85.5322 189.695 85.4173 189.715 85.4231 189.803C85.4575 190.365 85.4954 190.915 85.6138 191.468C85.7286 192.009 85.8849 192.534 86.0721 193.054C86.2559 193.564 86.4581 194.074 86.7028 194.555C86.9395 195.02 87.2049 195.556 87.6012 195.893C87.6598 195.943 87.7666 195.883 87.7471 195.802C87.6253 195.299 87.3393 194.827 87.1267 194.363Z" fill="#263238"/>
<path d="M95.5155 191.913C95.3167 191.299 95.1226 190.7 94.8675 190.108C94.609 189.506 94.3104 188.92 93.9887 188.353C93.3591 187.241 92.6653 186.182 91.8174 185.237C91.7703 185.185 91.6658 185.235 91.7049 185.308C92.9111 187.541 94.2081 189.723 95.3937 191.969C95.4362 192.046 95.543 191.997 95.5155 191.913Z" fill="#263238"/>
<path d="M98.9261 189.464C98.7136 188.857 98.4425 188.281 98.1036 187.74C97.3947 186.608 96.4952 185.63 95.5693 184.688C95.5107 184.628 95.4142 184.7 95.4659 184.773C96.1942 185.805 96.941 186.824 97.6119 187.899C97.9427 188.428 98.269 188.971 98.5413 189.535C98.8158 190.104 98.964 190.717 99.2133 191.292C99.2328 191.336 99.3041 191.329 99.3075 191.277C99.3397 190.671 99.1226 190.026 98.9261 189.464Z" fill="#263238"/>
<path d="M102.553 189.127C102.369 188.538 102.121 187.979 101.826 187.442C101.267 186.421 100.545 185.526 99.6962 184.754C99.6399 184.702 99.5595 184.792 99.6054 184.85C100.31 185.758 100.941 186.736 101.486 187.755C101.759 188.267 102.006 188.794 102.26 189.316C102.513 189.835 102.673 190.432 102.974 190.922C102.999 190.961 103.054 190.928 103.05 190.887C102.983 190.297 102.729 189.689 102.553 189.127Z" fill="#263238"/>
<path d="M105.465 188.053C105.192 187.574 104.894 187.112 104.593 186.652C104.296 186.197 103.989 185.746 103.568 185.407C103.505 185.357 103.441 185.443 103.478 185.505C104.016 186.422 104.538 187.355 105.057 188.285C105.548 189.162 105.743 190.124 106.046 191.075C106.06 191.117 106.126 191.105 106.128 191.062C106.18 189.996 105.991 188.973 105.465 188.053Z" fill="#263238"/>
<path d="M108.472 188.493C108.021 187.491 107.326 186.693 106.56 185.943C106.506 185.891 106.417 185.985 106.469 186.04C107.16 186.792 107.664 187.734 108.102 188.66C108.55 189.606 108.834 190.609 109.074 191.629C109.086 191.678 109.164 191.685 109.165 191.627C109.193 190.546 108.91 189.465 108.472 188.493Z" fill="#263238"/>
<path d="M111.515 191.611C111.497 191.373 111.452 191.136 111.404 190.903C111.304 190.432 111.136 189.975 110.945 189.538C110.554 188.639 109.986 187.844 109.432 187.049C109.383 186.977 109.278 187.063 109.329 187.134C109.883 187.897 110.326 188.741 110.69 189.619C110.869 190.051 111.008 190.494 111.124 190.949C111.182 191.172 111.224 191.396 111.262 191.622C111.298 191.834 111.303 192.085 111.377 192.286C111.397 192.34 111.482 192.34 111.499 192.283C111.561 192.08 111.531 191.82 111.515 191.611Z" fill="#263238"/>
<path d="M112.644 193.202C112.644 192.802 112.626 192.409 112.583 192.011C112.539 191.616 112.476 191.23 112.384 190.843C112.291 190.449 112.183 190.057 112.107 189.658C112.089 189.563 111.956 189.598 111.982 189.693C112.085 190.087 112.131 190.497 112.168 190.902C112.203 191.285 112.243 191.668 112.278 192.052C112.314 192.435 112.351 192.817 112.384 193.201C112.417 193.588 112.402 193.995 112.477 194.376C112.489 194.439 112.568 194.436 112.582 194.376C112.667 194.003 112.644 193.584 112.644 193.202Z" fill="#263238"/>
<path d="M76.96 204.808C76.96 204.808 76.9829 192.718 81.5403 187.221C88.9731 178.256 103.483 181.295 108.528 185.39C108.528 185.39 94.7837 179.427 85.869 188.278C82.1135 192.006 80.6293 205.578 80.6293 205.578L76.96 204.808Z" fill="#DBDBDB"/>
<path d="M86.6794 211.939C86.0556 217.824 81.5235 222.134 76.5572 221.566C71.5909 220.997 68.0698 215.765 68.6925 209.88C69.3163 203.994 73.8483 199.684 78.8146 200.253C83.7821 200.82 87.3032 206.053 86.6794 211.939Z" fill="#DBDBDB"/>
<path d="M84.095 211.305C83.5344 216.595 79.4607 220.469 74.9953 219.958C70.531 219.447 67.366 214.744 67.9266 209.453C68.4873 204.163 72.5609 200.289 77.0252 200.8C81.4906 201.311 84.6556 206.014 84.095 211.305Z" fill="#37474F"/>
<path opacity="0.1" d="M79.6835 210.896C79.3388 214.147 76.8356 216.528 74.0922 216.214C71.3488 215.9 69.4039 213.01 69.7486 209.759C70.0932 206.508 72.5964 204.127 75.3398 204.441C78.0832 204.755 80.0281 207.645 79.6835 210.896Z" fill="black"/>
<path d="M87.0559 252.902C87.0559 252.902 74.4972 231.256 59.0342 229.251L60.438 241.301C60.438 241.301 69.6526 241.236 85.9921 256.389L87.0559 252.902Z" fill="#97A97C"/>
<path d="M56.2764 241.56C59.1001 241.168 61.9159 241.793 64.5754 242.637C67.2533 243.494 69.7829 244.781 72.1989 246.246C74.6366 247.678 76.9159 249.389 79.1549 251.145L82.4083 253.932L85.5412 256.874L85.8927 257.205L86.2798 256.994C89.1679 255.422 91.9159 253.653 94.5582 251.698C95.8735 250.715 97.1763 249.71 98.3711 248.568C99.5716 247.438 104.549 242.543 105.551 238.995C103.769 242.438 96.7696 249.164 94.0814 250.958C92.7315 251.848 91.3415 252.675 89.9399 253.474C88.5395 254.271 87.1288 255.072 85.7043 255.789L86.443 255.908L83.3056 252.869C82.2222 251.899 81.1125 250.954 80.0016 250.016C78.839 249.143 77.6936 248.246 76.5 247.418C75.2777 246.633 74.0829 245.805 72.794 245.136C70.2804 243.688 67.5749 242.586 64.7879 241.85C64.0952 241.653 63.3806 241.534 62.6764 241.394C61.9607 241.308 61.2496 241.203 60.5316 241.176C59.1047 241.084 57.6469 241.145 56.2764 241.56Z" fill="#263238"/>
<path d="M50.2627 248.481C52.1812 247.477 53.9285 246.324 55.6357 245.138C57.321 243.932 58.9661 242.691 60.4389 241.3C58.5192 242.303 56.7719 243.455 55.0659 244.643C53.3806 245.85 51.7366 247.092 50.2627 248.481Z" fill="#263238"/>
<path d="M80.7405 249.08C80.7405 249.08 79.5572 255.314 79.5216 264.303C79.5078 267.86 81.0323 280.595 84.8279 280.067C88.6224 279.539 82.2937 271.414 81.0966 264.705C79.8812 257.894 81.5481 253.038 81.7135 249.005L80.7405 249.08Z" fill="#263238"/>
<path d="M94.2429 249.544C94.2429 249.544 96.1281 256.233 97.3171 264.291C97.787 267.479 98.0581 279.114 94.5864 279.168C91.1147 279.223 95.7455 271.055 95.9557 264.871C96.1694 258.593 94.028 253.207 93.3617 249.613L94.2429 249.544Z" fill="#263238"/>
<path d="M117.741 166.749C117.185 167.991 115.766 168.529 114.571 167.953C113.376 167.375 112.858 165.9 113.413 164.658C113.969 163.416 115.388 162.877 116.583 163.454C117.777 164.032 118.295 165.507 117.741 166.749Z" fill="#97A97C"/>
<path d="M122.801 155.424L121.148 154.625L116.092 165.932L117.744 166.73L122.801 155.424Z" fill="#97A97C"/>
<path d="M126.205 166.862C125.649 168.104 124.231 168.643 123.036 168.066C121.841 167.488 121.323 166.013 121.878 164.771C122.434 163.529 123.853 162.99 125.047 163.567C126.243 164.145 126.761 165.62 126.205 166.862Z" fill="#97A97C"/>
<path d="M131.266 155.538L129.614 154.739L124.558 166.045L126.21 166.844L131.266 155.538Z" fill="#97A97C"/>
<path d="M131.265 155.554L120.479 156.131L121.155 154.619L131.94 154.043L131.265 155.554Z" fill="#97A97C"/>
<g opacity="0.3">
<path d="M117.741 166.749C117.185 167.991 115.766 168.529 114.571 167.953C113.376 167.375 112.858 165.9 113.413 164.658C113.969 163.416 115.388 162.877 116.583 163.454C117.777 164.032 118.295 165.507 117.741 166.749Z" fill="white"/>
<path d="M122.801 155.424L121.148 154.625L116.092 165.932L117.744 166.73L122.801 155.424Z" fill="white"/>
<path d="M126.205 166.862C125.649 168.104 124.231 168.643 123.036 168.066C121.841 167.488 121.323 166.013 121.878 164.771C122.434 163.529 123.853 162.99 125.047 163.567C126.243 164.145 126.761 165.62 126.205 166.862Z" fill="white"/>
<path d="M131.266 155.538L129.614 154.739L124.558 166.045L126.21 166.844L131.266 155.538Z" fill="white"/>
<path d="M131.265 155.554L120.479 156.131L121.155 154.619L131.94 154.043L131.265 155.554Z" fill="white"/>
</g>
<path d="M145.31 132.546C145.31 134.739 143.601 136.516 141.492 136.516C139.382 136.516 137.672 134.739 137.673 132.546C137.673 130.353 139.382 128.576 141.492 128.576C143.601 128.576 145.31 130.353 145.31 132.546Z" fill="#97A97C"/>
<path d="M145.31 112.542H142.394V132.501H145.31V112.542Z" fill="#97A97C"/>
<path d="M155.219 107.404H152.302V113.174H155.219V107.404Z" fill="#97A97C"/>
<path d="M155.219 108.171L142.394 115.211V112.542L155.219 105.503V108.171Z" fill="#97A97C"/>
<path d="M155.219 113.201L142.394 120.24V117.572L155.219 110.533V113.201Z" fill="#97A97C"/>
<path d="M136.636 187.301C136.241 188.453 135.021 189.053 133.913 188.642C132.805 188.231 132.227 186.963 132.623 185.812C133.018 184.659 134.238 184.06 135.346 184.471C136.454 184.881 137.032 186.15 136.636 187.301Z" fill="#97A97C"/>
<path d="M140.25 176.792L138.717 176.223L135.116 186.71L136.649 187.279L140.25 176.792Z" fill="#97A97C"/>
<path d="M146.387 176.033L144.854 175.464L143.812 178.495L145.345 179.064L146.387 176.033Z" fill="#97A97C"/>
<path d="M146.24 176.426L138.231 177.624L138.713 176.222L146.722 175.024L146.24 176.426Z" fill="#97A97C"/>
<path d="M145.334 179.069L137.324 180.267L137.806 178.865L145.815 177.667L145.334 179.069Z" fill="#97A97C"/>
<path d="M159.124 4.22571C159.909 6.28463 159.915 8.38534 159.124 10.4443C158.331 8.38534 158.337 6.28582 159.124 4.22571Z" fill="#263238"/>
<path d="M151.182 12.6811C153.162 11.8642 155.183 11.8583 157.163 12.6811C155.183 13.5052 153.162 13.498 151.182 12.6811Z" fill="#263238"/>
<path d="M159.314 20.9371C158.528 18.8782 158.523 16.7775 159.314 14.7186C160.107 16.7775 160.1 18.8782 159.314 20.9371Z" fill="#263238"/>
<path d="M167.255 12.4817C165.275 13.2985 163.254 13.3045 161.273 12.4817C163.254 11.6588 165.275 11.6648 167.255 12.4817Z" fill="#263238"/>
<path d="M455.452 334.625C456.238 336.683 456.243 338.784 455.452 340.843C454.66 338.784 454.666 336.685 455.452 334.625Z" fill="#263238"/>
<path d="M447.51 343.08C449.49 342.263 451.511 342.257 453.492 343.08C451.511 343.904 449.49 343.897 447.51 343.08Z" fill="#263238"/>
<path d="M455.644 351.336C454.858 349.277 454.851 347.176 455.644 345.117C456.435 347.176 456.429 349.277 455.644 351.336Z" fill="#263238"/>
<path d="M463.585 342.882C461.605 343.699 459.584 343.705 457.604 342.882C459.584 342.058 461.605 342.064 463.585 342.882Z" fill="#263238"/>
<path d="M21.2302 180.404C22.016 182.463 22.0217 184.564 21.2302 186.623C20.4386 184.564 20.4444 182.463 21.2302 180.404Z" fill="#263238"/>
<path d="M13.2881 188.859C15.2686 188.043 17.2894 188.037 19.2699 188.859C17.2894 189.682 15.2686 189.676 13.2881 188.859Z" fill="#263238"/>
<path d="M21.4216 197.115C20.6358 195.056 20.63 192.956 21.4216 190.897C22.2131 192.956 22.2074 195.055 21.4216 197.115Z" fill="#263238"/>
<path d="M29.3637 188.66C27.3831 189.477 25.3624 189.483 23.3818 188.66C25.3624 187.837 27.3831 187.843 29.3637 188.66Z" fill="#263238"/>
<path d="M444.783 61.2161C445.568 62.5716 445.575 63.9809 444.783 65.3363C443.993 63.982 443.998 62.5716 444.783 61.2161Z" fill="#263238"/>
<path d="M439.521 66.8184C440.825 66.0027 442.182 65.9968 443.485 66.8184C442.182 67.6401 440.825 67.6341 439.521 66.8184Z" fill="#263238"/>
<path d="M444.91 72.2882C444.126 70.9327 444.119 69.5223 444.91 68.168C445.701 69.5223 445.695 70.9327 444.91 72.2882Z" fill="#263238"/>
<path d="M450.172 66.687C448.868 67.5027 447.513 67.5087 446.209 66.687C447.512 65.8642 448.868 65.8702 450.172 66.687Z" fill="#263238"/>
<path d="M448.431 364.223C449.216 365.579 449.223 366.988 448.431 368.344C447.641 366.988 447.647 365.578 448.431 364.223Z" fill="#263238"/>
<path d="M443.17 369.824C444.473 369.008 445.829 369.002 447.132 369.824C445.831 370.647 444.474 370.641 443.17 369.824Z" fill="#263238"/>
<path d="M448.559 375.294C447.774 373.939 447.767 372.528 448.559 371.174C449.349 372.529 449.343 373.94 448.559 375.294Z" fill="#263238"/>
<path d="M453.821 369.693C452.518 370.509 451.161 370.515 449.858 369.693C451.16 368.87 452.517 368.876 453.821 369.693Z" fill="#263238"/>
<path d="M36.5661 203.42C37.3507 204.775 37.3576 206.185 36.5661 207.54C35.7746 206.185 35.7803 204.774 36.5661 203.42Z" fill="#263238"/>
<path d="M31.3047 209.021C32.6086 208.205 33.9653 208.199 35.2681 209.021C33.9642 209.844 32.6074 209.837 31.3047 209.021Z" fill="#263238"/>
<path d="M36.6926 214.491C35.908 213.135 35.9011 211.725 36.6926 210.371C37.4842 211.725 37.4784 213.135 36.6926 214.491Z" fill="#263238"/>
<path d="M41.9546 208.89C40.6507 209.705 39.2951 209.711 37.9912 208.89C39.294 208.067 40.6507 208.073 41.9546 208.89Z" fill="#263238"/>
</g>
<defs>
<clipPath id="clip0_164_30">
<rect width="482.5" height="500" fill="white" transform="translate(0.25)"/>
</clipPath>
</defs>
</svg>
