<svg width="516" height="514" viewBox="0 0 516 514" fill="none" xmlns="http://www.w3.org/2000/svg">
<path d="M59.5991 31.8914V408.053H449.877V31.8914H59.5991ZM441.364 399.529H68.1113V40.4141H441.364V399.529Z" fill="#DBDBDB"/>
<path d="M441.364 40.4141H68.1113V399.529H441.364V40.4141Z" fill="#1C1C1E"/>
<path d="M247.997 103.265L248.954 105.205L251.091 105.516L249.545 107.025L249.91 109.157L247.997 108.15L246.085 109.157L246.451 107.025L244.903 105.516L247.042 105.205L247.997 103.265Z" fill="white"/>
<path d="M93.4358 303.831L94.391 305.769L96.5295 306.081L94.9821 307.59L95.3475 309.723L93.4358 308.716L91.5242 309.723L91.8884 307.59L90.3422 306.081L92.4794 305.769L93.4358 303.831Z" fill="white"/>
<path d="M244.903 241.935L245.86 243.875L247.997 244.185L246.451 245.695L246.816 247.827L244.903 246.82L242.992 247.827L243.357 245.695L241.811 244.185L243.948 243.875L244.903 241.935Z" fill="white"/>
<path d="M419.491 64.3666L420.447 66.3052L422.585 66.617L421.037 68.1259L421.403 70.2584L419.491 69.2517L417.579 70.2584L417.943 68.1259L416.397 66.617L418.534 66.3052L419.491 64.3666Z" fill="white"/>
<path d="M115.546 81.5165L116.503 83.455L118.64 83.7669L117.093 85.2757L117.458 87.4082L115.546 86.4015L113.635 87.4082L113.999 85.2757L112.453 83.7669L114.59 83.455L115.546 81.5165Z" fill="white"/>
<path d="M197.902 233.103L198.493 234.302L199.814 234.494L198.859 235.427L199.084 236.744L197.902 236.123L196.722 236.744L196.947 235.427L195.991 234.494L197.311 234.302L197.902 233.103Z" fill="white"/>
<path d="M170.969 198.047L171.56 199.245L172.881 199.438L171.926 200.371L172.151 201.688L170.969 201.066L169.787 201.688L170.013 200.371L169.057 199.438L170.378 199.245L170.969 198.047Z" fill="white"/>
<path d="M421.403 141.462L421.994 142.66L423.314 142.853L422.359 143.786L422.585 145.103L421.403 144.481L420.222 145.103L420.446 143.786L419.491 142.853L420.812 142.66L421.403 141.462Z" fill="white"/>
<path d="M101.22 72.2989L101.811 73.4971L103.131 73.6899L102.175 74.6229L102.402 75.9403L101.22 75.3178L100.038 75.9403L100.263 74.6229L99.3069 73.6899L100.629 73.4971L101.22 72.2989Z" fill="white"/>
<path d="M345.829 86.663L346.42 87.8613L347.74 88.0528L346.785 88.9859L347.011 90.3044L345.829 89.682L344.647 90.3044L344.872 88.9859L343.917 88.0528L345.238 87.8613L345.829 86.663Z" fill="white"/>
<path d="M298.992 128.996L299.583 130.194L300.904 130.387L299.947 131.32L300.173 132.637L298.992 132.015L297.81 132.637L298.036 131.32L297.079 130.387L298.401 130.194L298.992 128.996Z" fill="white"/>
<path d="M260.181 191.035L260.772 192.235L262.092 192.426L261.137 193.359L261.363 194.677L260.181 194.054L258.999 194.677L259.224 193.359L258.269 192.426L259.59 192.235L260.181 191.035Z" fill="white"/>
<path d="M88.0578 137.62L88.6488 138.82L89.9694 139.011L89.013 139.944L89.2386 141.262L88.0578 140.639L86.8757 141.262L87.1013 139.944L86.1449 139.011L87.4667 138.82L88.0578 137.62Z" fill="white"/>
<path d="M130.116 261.746L130.707 262.946L132.028 263.137L131.071 264.07L131.298 265.388L130.116 264.767L128.934 265.388L129.16 264.07L128.203 263.137L129.525 262.946L130.116 261.746Z" fill="white"/>
<path d="M400.088 188.012L400.679 189.211L402.001 189.402L401.044 190.336L401.27 191.653L400.088 191.032L398.907 191.653L399.132 190.336L398.176 189.402L399.498 189.211L400.088 188.012Z" fill="white"/>
<path d="M284.913 58.5117L285.503 59.71L286.825 59.9027L285.868 60.8345L286.094 62.1519L284.913 61.5307L283.731 62.1519L283.956 60.8345L283 59.9027L284.322 59.71L284.913 58.5117Z" fill="white"/>
<path d="M210.769 163.153L211.36 164.352L212.68 164.544L211.725 165.477L211.951 166.794L210.769 166.172L209.587 166.794L209.812 165.477L208.857 164.544L210.178 164.352L210.769 163.153Z" fill="white"/>
<path d="M177.295 63.8584L177.885 65.0566L179.207 65.2494L178.25 66.1824L178.476 67.4998L177.295 66.8773L176.113 67.4998L176.339 66.1824L175.382 65.2494L176.704 65.0566L177.295 63.8584Z" fill="white"/>
<path d="M169.057 283.039L169.649 284.237L170.969 284.429L170.013 285.363L170.238 286.68L169.057 286.057L167.875 286.68L168.101 285.363L167.146 284.429L168.466 284.237L169.057 283.039Z" fill="white"/>
<path d="M215.962 88.4837L216.553 89.6819L217.875 89.8747L216.918 90.8065L217.144 92.1239L215.962 91.5026L214.781 92.1239L215.006 90.8065L214.05 89.8747L215.372 89.6819L215.962 88.4837Z" fill="white"/>
<path d="M364.717 113.185C369.536 121.616 378.612 127.299 389.012 127.299C404.484 127.299 417.013 114.744 417.013 99.252C417.013 85.9019 407.704 74.7371 395.217 71.9158C404.219 76.0618 410.458 85.1702 410.458 95.7309C410.458 110.215 398.723 121.953 384.258 121.953C376.484 121.955 369.504 118.572 364.717 113.185Z" fill="white"/>
<path d="M372.198 115.414H332.549V399.526H372.198V115.414Z" fill="#37474F"/>
<path d="M372.198 133.155H332.553V136.483H372.198V133.155Z" fill="#263238"/>
<path d="M343.935 146.265H336.638V164.778H343.935V146.265Z" fill="#263238"/>
<path d="M343.935 169.625H336.638V188.139H343.935V169.625Z" fill="#263238"/>
<path d="M343.935 192.985H336.638V211.499H343.935V192.985Z" fill="#263238"/>
<path d="M343.935 216.332H336.638V234.846H343.935V216.332Z" fill="#263238"/>
<path d="M343.935 239.692H336.638V258.206H343.935V239.692Z" fill="#263238"/>
<path d="M343.935 263.053H336.638V281.566H343.935V263.053Z" fill="#263238"/>
<path d="M343.935 286.399H336.638V304.913H343.935V286.399Z" fill="#263238"/>
<path d="M343.935 309.76H336.638V328.273H343.935V309.76Z" fill="#263238"/>
<path d="M343.935 333.119H336.638V351.633H343.935V333.119Z" fill="#263238"/>
<path d="M343.935 356.466H336.638V374.98H343.935V356.466Z" fill="#263238"/>
<path d="M343.935 379.826H336.638V398.34H343.935V379.826Z" fill="#263238"/>
<path d="M343.935 146.265H336.638V164.778H343.935V146.265Z" fill="#263238"/>
<path d="M343.935 169.625H336.638V188.139H343.935V169.625Z" fill="#263238"/>
<path d="M343.935 192.985H336.638V211.499H343.935V192.985Z" fill="#263238"/>
<path d="M343.935 216.332H336.638V234.846H343.935V216.332Z" fill="#263238"/>
<path d="M343.935 239.692H336.638V258.206H343.935V239.692Z" fill="#263238"/>
<path d="M343.935 263.053H336.638V281.566H343.935V263.053Z" fill="#263238"/>
<path d="M343.935 286.399H336.638V304.913H343.935V286.399Z" fill="#263238"/>
<path d="M343.935 309.76H336.638V328.273H343.935V309.76Z" fill="#263238"/>
<path d="M343.935 333.119H336.638V351.633H343.935V333.119Z" fill="#263238"/>
<path d="M343.935 356.466H336.638V374.98H343.935V356.466Z" fill="#263238"/>
<path d="M343.935 379.826H336.638V398.34H343.935V379.826Z" fill="#263238"/>
<path d="M356.025 146.265H348.727V164.778H356.025V146.265Z" fill="#263238"/>
<path d="M356.025 169.625H348.727V188.139H356.025V169.625Z" fill="#263238"/>
<path d="M356.025 192.985H348.727V211.499H356.025V192.985Z" fill="#263238"/>
<path d="M356.025 216.332H348.727V234.846H356.025V216.332Z" fill="#263238"/>
<path d="M356.025 239.692H348.727V258.206H356.025V239.692Z" fill="#263238"/>
<path d="M356.025 263.053H348.727V281.566H356.025V263.053Z" fill="#263238"/>
<path d="M356.025 286.399H348.727V304.913H356.025V286.399Z" fill="#263238"/>
<path d="M356.025 309.76H348.727V328.273H356.025V309.76Z" fill="#263238"/>
<path d="M356.025 333.119H348.727V351.633H356.025V333.119Z" fill="#263238"/>
<path d="M356.025 356.466H348.727V374.98H356.025V356.466Z" fill="#263238"/>
<path d="M356.025 379.826H348.727V398.34H356.025V379.826Z" fill="#263238"/>
<path d="M356.025 146.265H348.727V164.778H356.025V146.265Z" fill="#263238"/>
<path d="M356.025 169.625H348.727V188.139H356.025V169.625Z" fill="#263238"/>
<path d="M356.025 192.985H348.727V211.499H356.025V192.985Z" fill="#EBEBEB"/>
<path d="M356.025 216.332H348.727V234.846H356.025V216.332Z" fill="#263238"/>
<path d="M356.025 239.692H348.727V258.206H356.025V239.692Z" fill="#263238"/>
<path d="M356.025 263.053H348.727V281.566H356.025V263.053Z" fill="#263238"/>
<path d="M356.025 286.399H348.727V304.913H356.025V286.399Z" fill="#263238"/>
<path d="M356.025 309.76H348.727V328.273H356.025V309.76Z" fill="#EBEBEB"/>
<path d="M356.025 333.119H348.727V351.633H356.025V333.119Z" fill="#263238"/>
<path d="M356.025 356.466H348.727V374.98H356.025V356.466Z" fill="#263238"/>
<path d="M356.025 379.826H348.727V398.34H356.025V379.826Z" fill="#263238"/>
<path d="M368.112 146.265H360.815V164.778H368.112V146.265Z" fill="#263238"/>
<path d="M368.112 169.625H360.815V188.139H368.112V169.625Z" fill="#263238"/>
<path d="M368.112 192.985H360.815V211.499H368.112V192.985Z" fill="#263238"/>
<path d="M368.112 216.332H360.815V234.846H368.112V216.332Z" fill="#263238"/>
<path d="M368.112 239.692H360.815V258.206H368.112V239.692Z" fill="#263238"/>
<path d="M368.112 263.053H360.815V281.566H368.112V263.053Z" fill="#263238"/>
<path d="M368.112 286.399H360.815V304.913H368.112V286.399Z" fill="#263238"/>
<path d="M368.112 309.76H360.815V328.273H368.112V309.76Z" fill="#263238"/>
<path d="M368.112 333.119H360.815V351.633H368.112V333.119Z" fill="#263238"/>
<path d="M368.112 356.466H360.815V374.98H368.112V356.466Z" fill="#263238"/>
<path d="M368.112 379.826H360.815V398.34H368.112V379.826Z" fill="#263238"/>
<path d="M368.112 146.265H360.815V164.778H368.112V146.265Z" fill="#EBEBEB"/>
<path d="M368.112 169.625H360.815V188.139H368.112V169.625Z" fill="#263238"/>
<path d="M368.112 192.985H360.815V211.499H368.112V192.985Z" fill="#263238"/>
<path d="M368.112 216.332H360.815V234.846H368.112V216.332Z" fill="#263238"/>
<path d="M368.112 239.692H360.815V258.206H368.112V239.692Z" fill="#263238"/>
<path d="M368.112 263.053H360.815V281.566H368.112V263.053Z" fill="#263238"/>
<path d="M368.112 286.399H360.815V304.913H368.112V286.399Z" fill="#263238"/>
<path d="M368.112 309.76H360.815V328.273H368.112V309.76Z" fill="#263238"/>
<path d="M368.112 333.119H360.815V351.633H368.112V333.119Z" fill="#263238"/>
<path d="M368.112 356.466H360.815V374.98H368.112V356.466Z" fill="#263238"/>
<path d="M368.112 379.826H360.815V398.34H368.112V379.826Z" fill="#263238"/>
<path d="M332.549 115.414H264.779V399.526H332.549V115.414Z" fill="#37474F"/>
<path d="M332.553 133.155H264.779V136.483H332.553V133.155Z" fill="#263238"/>
<path d="M283.888 146.265H272.04V164.778H283.888V146.265Z" fill="#263238"/>
<path d="M283.888 169.625H272.04V188.139H283.888V169.625Z" fill="#263238"/>
<path d="M283.888 192.985H272.04V211.499H283.888V192.985Z" fill="#263238"/>
<path d="M283.888 216.332H272.04V234.846H283.888V216.332Z" fill="#263238"/>
<path d="M283.888 239.692H272.04V258.206H283.888V239.692Z" fill="#263238"/>
<path d="M283.888 263.053H272.04V281.566H283.888V263.053Z" fill="#263238"/>
<path d="M283.888 286.399H272.04V304.913H283.888V286.399Z" fill="#263238"/>
<path d="M283.888 309.76H272.04V328.273H283.888V309.76Z" fill="#263238"/>
<path d="M283.888 333.119H272.04V351.633H283.888V333.119Z" fill="#263238"/>
<path d="M283.888 356.466H272.04V374.98H283.888V356.466Z" fill="#263238"/>
<path d="M283.888 379.826H272.04V398.34H283.888V379.826Z" fill="#263238"/>
<path d="M283.888 146.265H272.04V164.778H283.888V146.265Z" fill="#263238"/>
<path d="M283.888 169.625H272.04V188.139H283.888V169.625Z" fill="#263238"/>
<path d="M283.888 192.985H272.04V211.499H283.888V192.985Z" fill="#263238"/>
<path d="M283.888 216.332H272.04V234.846H283.888V216.332Z" fill="#263238"/>
<path d="M283.888 239.692H272.04V258.206H283.888V239.692Z" fill="#263238"/>
<path d="M283.888 263.053H272.04V281.566H283.888V263.053Z" fill="#263238"/>
<path d="M283.888 286.399H272.04V304.913H283.888V286.399Z" fill="#263238"/>
<path d="M283.888 309.76H272.04V328.273H283.888V309.76Z" fill="#263238"/>
<path d="M283.888 333.119H272.04V351.633H283.888V333.119Z" fill="#263238"/>
<path d="M283.888 356.466H272.04V374.98H283.888V356.466Z" fill="#EBEBEB"/>
<path d="M283.888 379.826H272.04V398.34H283.888V379.826Z" fill="#263238"/>
<path d="M303.513 146.265H291.666V164.778H303.513V146.265Z" fill="#263238"/>
<path d="M303.513 169.625H291.666V188.139H303.513V169.625Z" fill="#263238"/>
<path d="M303.513 192.985H291.666V211.499H303.513V192.985Z" fill="#263238"/>
<path d="M303.513 216.332H291.666V234.846H303.513V216.332Z" fill="#263238"/>
<path d="M303.513 239.692H291.666V258.206H303.513V239.692Z" fill="#263238"/>
<path d="M303.513 263.053H291.666V281.566H303.513V263.053Z" fill="#263238"/>
<path d="M303.513 286.399H291.666V304.913H303.513V286.399Z" fill="#263238"/>
<path d="M303.513 309.76H291.666V328.273H303.513V309.76Z" fill="#263238"/>
<path d="M303.513 333.119H291.666V351.633H303.513V333.119Z" fill="#263238"/>
<path d="M303.513 356.466H291.666V374.98H303.513V356.466Z" fill="#263238"/>
<path d="M303.513 379.826H291.666V398.34H303.513V379.826Z" fill="#263238"/>
<path d="M303.513 146.265H291.666V164.778H303.513V146.265Z" fill="#263238"/>
<path d="M303.513 169.625H291.666V188.139H303.513V169.625Z" fill="#EBEBEB"/>
<path d="M303.513 192.985H291.666V211.499H303.513V192.985Z" fill="#263238"/>
<path d="M303.513 216.332H291.666V234.846H303.513V216.332Z" fill="#263238"/>
<path d="M303.513 239.692H291.666V258.206H303.513V239.692Z" fill="#263238"/>
<path d="M303.513 263.053H291.666V281.566H303.513V263.053Z" fill="#263238"/>
<path d="M303.513 286.399H291.666V304.913H303.513V286.399Z" fill="#263238"/>
<path d="M303.513 309.76H291.666V328.273H303.513V309.76Z" fill="#EBEBEB"/>
<path d="M303.513 333.119H291.666V351.633H303.513V333.119Z" fill="#263238"/>
<path d="M303.513 356.466H291.666V374.98H303.513V356.466Z" fill="#263238"/>
<path d="M303.513 379.826H291.666V398.34H303.513V379.826Z" fill="#263238"/>
<path d="M323.139 146.265H311.292V164.778H323.139V146.265Z" fill="#263238"/>
<path d="M323.139 169.625H311.292V188.139H323.139V169.625Z" fill="#263238"/>
<path d="M323.139 192.985H311.292V211.499H323.139V192.985Z" fill="#263238"/>
<path d="M323.139 216.332H311.292V234.846H323.139V216.332Z" fill="#263238"/>
<path d="M323.139 239.692H311.292V258.206H323.139V239.692Z" fill="#263238"/>
<path d="M323.139 263.053H311.292V281.566H323.139V263.053Z" fill="#263238"/>
<path d="M323.139 286.399H311.292V304.913H323.139V286.399Z" fill="#263238"/>
<path d="M323.139 309.76H311.292V328.273H323.139V309.76Z" fill="#263238"/>
<path d="M323.139 333.119H311.292V351.633H323.139V333.119Z" fill="#263238"/>
<path d="M323.139 356.466H311.292V374.98H323.139V356.466Z" fill="#263238"/>
<path d="M323.139 379.826H311.292V398.34H323.139V379.826Z" fill="#263238"/>
<path d="M323.139 146.265H311.292V164.778H323.139V146.265Z" fill="#263238"/>
<path d="M323.139 169.625H311.292V188.139H323.139V169.625Z" fill="#263238"/>
<path d="M323.139 192.985H311.292V211.499H323.139V192.985Z" fill="#263238"/>
<path d="M323.139 216.332H311.292V234.846H323.139V216.332Z" fill="#263238"/>
<path d="M323.139 239.692H311.292V258.206H323.139V239.692Z" fill="#EBEBEB"/>
<path d="M323.139 263.053H311.292V281.566H323.139V263.053Z" fill="#263238"/>
<path d="M323.139 286.399H311.292V304.913H323.139V286.399Z" fill="#263238"/>
<path d="M323.139 309.76H311.292V328.273H323.139V309.76Z" fill="#263238"/>
<path d="M323.139 333.119H311.292V351.633H323.139V333.119Z" fill="#263238"/>
<path d="M323.139 356.466H311.292V374.98H323.139V356.466Z" fill="#263238"/>
<path d="M323.139 379.826H311.292V398.34H323.139V379.826Z" fill="#263238"/>
<path d="M332.549 399.526C331.751 308.518 331.745 206.421 332.549 115.414C333.353 206.421 333.346 308.518 332.549 399.526Z" fill="#37474F"/>
<path d="M387.015 240.949H317.044V399.526H387.015V240.949Z" fill="#455A64"/>
<path d="M386.759 219.306H334.395V240.948H386.759V219.306Z" fill="#455A64"/>
<path d="M343.23 222.645H338.754V237.61H343.23V222.645Z" fill="#263238"/>
<path d="M351.065 222.645H346.588V237.61H351.065V222.645Z" fill="#263238"/>
<path d="M358.899 222.645H354.422V237.61H358.899V222.645Z" fill="#263238"/>
<path d="M366.73 222.645H362.255V237.61H366.73V222.645Z" fill="#263238"/>
<path d="M374.566 222.645H370.089V237.61H374.566V222.645Z" fill="#263238"/>
<path d="M382.399 222.645H377.922V237.61H382.399V222.645Z" fill="#263238"/>
<path d="M410.57 219.306H386.759V240.948H410.57V219.306Z" fill="#455A64"/>
<path d="M393.904 222.645H390.097V237.61H393.904V222.645Z" fill="#263238"/>
<path d="M400.568 222.645H396.761V237.61H400.568V222.645Z" fill="#263238"/>
<path d="M407.231 222.645H403.424V237.61H407.231V222.645Z" fill="#263238"/>
<path d="M422.643 240.949H387.016V399.526H422.643V240.949Z" fill="#455A64"/>
<path d="M345.928 208.34H344.325V219.306H345.928V208.34Z" fill="#455A64"/>
<path d="M376.827 208.34H375.224V219.306H376.827V208.34Z" fill="#455A64"/>
<path d="M383.924 189.166H337.228V208.34H383.924V189.166Z" fill="#455A64"/>
<path d="M344.281 255.765H331.365V275.569H344.281V255.765Z" fill="#EBEBEB"/>
<path d="M370.575 255.765H357.658V275.569H370.575V255.765Z" fill="#263238"/>
<path d="M344.281 286.973H331.365V306.777H344.281V286.973Z" fill="#263238"/>
<path d="M370.575 286.973H357.658V306.777H370.575V286.973Z" fill="#263238"/>
<path d="M344.281 318.18H331.365V337.984H344.281V318.18Z" fill="#263238"/>
<path d="M370.575 318.18H357.658V337.984H370.575V318.18Z" fill="#263238"/>
<path d="M344.281 349.387H331.365V369.192H344.281V349.387Z" fill="#263238"/>
<path d="M370.575 349.387H357.658V369.192H370.575V349.387Z" fill="#EBEBEB"/>
<path d="M344.279 380.596H331.361V399.527H344.279V380.596Z" fill="#263238"/>
<path d="M370.575 380.596H357.657V399.527H370.575V380.596Z" fill="#263238"/>
<path d="M400.725 255.765H393.302V275.569H400.725V255.765Z" fill="#263238"/>
<path d="M415.834 255.765H408.411V275.569H415.834V255.765Z" fill="#263238"/>
<path d="M400.725 286.973H393.302V306.777H400.725V286.973Z" fill="#263238"/>
<path d="M415.834 286.973H408.411V306.777H415.834V286.973Z" fill="#EBEBEB"/>
<path d="M400.725 318.18H393.302V337.984H400.725V318.18Z" fill="#263238"/>
<path d="M415.834 318.18H408.411V337.984H415.834V318.18Z" fill="#263238"/>
<path d="M400.725 349.387H393.302V369.192H400.725V349.387Z" fill="#EBEBEB"/>
<path d="M415.834 349.387H408.411V369.192H415.834V349.387Z" fill="#263238"/>
<path d="M400.724 380.596H393.304V399.527H400.724V380.596Z" fill="#263238"/>
<path d="M415.831 380.596H408.411V399.527H415.831V380.596Z" fill="#263238"/>
<path d="M387.017 399.526C386.202 348.576 386.222 291.934 387.017 240.949C387.811 291.945 387.831 348.565 387.017 399.526Z" fill="#37474F"/>
<path d="M295.773 264.736H262.092V399.527H295.773V264.736Z" fill="#455A64"/>
<path d="M269.887 276.789H265.318V294.724H269.887V276.789Z" fill="#263238"/>
<path d="M269.887 301.221H265.318V319.155H269.887V301.221Z" fill="#263238"/>
<path d="M269.887 325.653H265.318V343.587H269.887V325.653Z" fill="#263238"/>
<path d="M269.887 350.085H265.318V368.019H269.887V350.085Z" fill="#263238"/>
<path d="M269.887 374.517H265.318V392.452H269.887V374.517Z" fill="#263238"/>
<path d="M269.89 398.949H265.321V399.527H269.89V398.949Z" fill="#263238"/>
<path d="M277.439 276.789H272.87V294.724H277.439V276.789Z" fill="#263238"/>
<path d="M277.439 301.221H272.87V319.155H277.439V301.221Z" fill="#263238"/>
<path d="M277.439 325.653H272.87V343.587H277.439V325.653Z" fill="#EBEBEB"/>
<path d="M277.439 350.085H272.87V368.019H277.439V350.085Z" fill="#263238"/>
<path d="M277.439 374.517H272.87V392.452H277.439V374.517Z" fill="#263238"/>
<path d="M277.437 398.949H272.868V399.527H277.437V398.949Z" fill="#263238"/>
<path d="M284.991 276.789H280.423V294.724H284.991V276.789Z" fill="#263238"/>
<path d="M284.991 301.221H280.423V319.155H284.991V301.221Z" fill="#263238"/>
<path d="M284.991 325.653H280.423V343.587H284.991V325.653Z" fill="#263238"/>
<path d="M284.991 350.085H280.423V368.019H284.991V350.085Z" fill="#263238"/>
<path d="M284.991 374.517H280.423V392.452H284.991V374.517Z" fill="#263238"/>
<path d="M284.991 398.949H280.423V399.527H284.991V398.949Z" fill="#263238"/>
<path d="M292.543 276.789H287.975V294.724H292.543V276.789Z" fill="#263238"/>
<path d="M292.543 301.221H287.975V319.155H292.543V301.221Z" fill="#263238"/>
<path d="M292.543 325.653H287.975V343.587H292.543V325.653Z" fill="#263238"/>
<path d="M292.543 350.085H287.975V368.019H292.543V350.085Z" fill="#263238"/>
<path d="M292.543 374.517H287.975V392.452H292.543V374.517Z" fill="#263238"/>
<path d="M292.546 398.949H287.977V399.527H292.546V398.949Z" fill="#263238"/>
<path d="M262.092 264.736H193.045V399.527H262.092V264.736Z" fill="#455A64"/>
<path d="M290.943 256.015H196.352V264.738H290.943V256.015Z" fill="#455A64"/>
<path d="M209.018 276.789H199.646V294.724H209.018V276.789Z" fill="#263238"/>
<path d="M209.018 301.221H199.646V319.155H209.018V301.221Z" fill="#263238"/>
<path d="M209.018 325.653H199.646V343.587H209.018V325.653Z" fill="#263238"/>
<path d="M209.018 350.085H199.646V368.019H209.018V350.085Z" fill="#263238"/>
<path d="M209.018 374.517H199.646V392.452H209.018V374.517Z" fill="#263238"/>
<path d="M209.021 398.949H199.65V399.527H209.021V398.949Z" fill="#263238"/>
<path d="M224.508 276.789H215.136V294.724H224.508V276.789Z" fill="#263238"/>
<path d="M224.508 301.221H215.136V319.155H224.508V301.221Z" fill="#263238"/>
<path d="M224.508 325.653H215.136V343.587H224.508V325.653Z" fill="#263238"/>
<path d="M224.508 350.085H215.136V368.019H224.508V350.085Z" fill="#263238"/>
<path d="M224.508 374.517H215.136V392.452H224.508V374.517Z" fill="#263238"/>
<path d="M224.505 398.949H215.133V399.527H224.505V398.949Z" fill="#EBEBEB"/>
<path d="M239.999 276.789H230.627V294.724H239.999V276.789Z" fill="#263238"/>
<path d="M239.999 301.221H230.627V319.155H239.999V301.221Z" fill="#EBEBEB"/>
<path d="M239.999 325.653H230.627V343.587H239.999V325.653Z" fill="#263238"/>
<path d="M239.999 350.085H230.627V368.019H239.999V350.085Z" fill="#263238"/>
<path d="M239.999 374.517H230.627V392.452H239.999V374.517Z" fill="#263238"/>
<path d="M239.998 398.949H230.626V399.527H239.998V398.949Z" fill="#263238"/>
<path d="M255.488 276.789H246.116V294.724H255.488V276.789Z" fill="#263238"/>
<path d="M255.488 301.221H246.116V319.155H255.488V301.221Z" fill="#263238"/>
<path d="M255.488 325.653H246.116V343.587H255.488V325.653Z" fill="#263238"/>
<path d="M255.488 350.085H246.116V368.019H255.488V350.085Z" fill="#263238"/>
<path d="M255.488 374.517H246.116V392.452H255.488V374.517Z" fill="#EBEBEB"/>
<path d="M255.489 398.949H246.117V399.527H255.489V398.949Z" fill="#263238"/>
<path d="M262.092 399.526C261.278 356.22 261.298 308.071 262.092 264.735C262.887 308.08 262.908 356.21 262.092 399.526Z" fill="#37474F"/>
<path d="M295.773 264.738C262.708 265.546 226.119 265.546 193.045 264.738C226.122 263.93 262.704 263.93 295.773 264.738Z" fill="#37474F"/>
<path d="M193.045 264.736C193.86 308.042 193.84 356.19 193.045 399.527C192.251 356.182 192.231 308.052 193.045 264.736Z" fill="#37474F"/>
<path d="M196.352 264.738C195.513 261.841 195.506 258.912 196.352 256.015C197.199 258.913 197.192 261.842 196.352 264.738Z" fill="#37474F"/>
<path d="M68.1028 224.227L441.358 224.227V215.706L68.1028 215.706V224.227Z" fill="#C7C7C7"/>
<path d="M29.6469 432.504L479.812 432.504V408.049L29.6469 408.049V432.504Z" fill="#C7C7C7"/>
<path d="M68.1028 40.4043H441.358V399.528H68.1028V40.4043ZM433.476 48.296H75.9847V391.638H433.477L433.476 48.296Z" fill="#C7C7C7"/>
<path d="M319.968 40.4043H315.714V391.638H319.968V40.4043Z" fill="#C7C7C7"/>
<path d="M193.747 40.4043H189.492V391.638H193.747V40.4043Z" fill="#C7C7C7"/>
<path d="M422.295 378.431C419.313 378.541 395.205 380.736 387.972 384.794C380.74 388.855 368.028 405.751 366.493 407.397C364.959 409.043 355.205 413.541 353.452 413.98C351.699 414.418 346.658 415.296 345.233 417.271C343.808 419.246 342.603 422.656 343.808 422.981C345.013 423.306 353.013 423.644 354.766 422.981C356.52 422.318 361.232 421.551 362.109 421.222C362.986 420.893 372.191 415.077 372.191 415.077L391.851 403.776C391.851 403.776 371.66 408.268 362.576 410.406C362.576 410.406 357.278 410.222 355.229 410.725C352.746 411.334 349.311 413.36 349.42 415.389C349.529 417.418 360.022 418.554 361.336 417.127C362.018 416.388 373.001 411.948 381.805 409.948C389.986 408.09 396.04 408.649 396.409 408.385C397.177 407.836 411.751 408.824 420.079 405.862L422.295 378.431Z" fill="#E08F30"/>
<path opacity="0.1" d="M422.295 378.431C419.313 378.541 395.205 380.736 387.972 384.794C380.74 388.855 368.028 405.751 366.493 407.397C364.959 409.043 355.205 413.541 353.452 413.98C351.699 414.418 346.658 415.296 345.233 417.271C343.808 419.246 342.603 422.656 343.808 422.981C345.013 423.306 353.013 423.644 354.766 422.981C356.52 422.318 361.232 421.551 362.109 421.222C362.986 420.893 372.191 415.077 372.191 415.077L391.851 403.776C391.851 403.776 371.66 408.268 362.576 410.406C362.576 410.406 357.278 410.222 355.229 410.725C352.746 411.334 349.311 413.36 349.42 415.389C349.529 417.418 360.022 418.554 361.336 417.127C362.018 416.388 373.001 411.948 381.805 409.948C389.986 408.09 396.04 408.649 396.409 408.385C397.177 407.836 411.751 408.824 420.079 405.862L422.295 378.431Z" fill="black"/>
<path d="M347.4 418.559C347.028 418.793 346.621 418.967 346.328 419.302C346.026 419.647 345.785 420.053 345.633 420.477C345.462 420.953 345.369 421.462 345.379 421.967C345.386 422.371 345.398 422.867 345.685 423.19C345.745 423.257 345.87 423.18 345.84 423.1C345.691 422.716 346.143 421.033 346.274 420.63C346.389 420.275 346.518 419.938 346.709 419.612C346.908 419.273 347.106 418.868 347.457 418.649C347.516 418.61 347.458 418.521 347.4 418.559Z" fill="#263238"/>
<path d="M350.769 419.102C350.326 419.329 349.911 419.532 349.547 419.881C349.187 420.224 348.91 420.639 348.723 421.098C348.367 421.966 348.273 423.165 348.975 423.894C349.01 423.93 349.082 423.891 349.061 423.842C348.881 423.424 348.902 422.92 348.97 422.476C349.034 422.063 349.127 421.64 349.283 421.25C349.435 420.869 349.637 420.497 349.873 420.161C350.125 419.8 350.443 419.416 350.828 419.194C350.888 419.16 350.832 419.07 350.769 419.102Z" fill="#263238"/>
<path d="M361.77 410.207C360.622 410.698 359.506 411.204 358.394 411.779C357.289 412.35 356.199 412.98 355.04 413.437C354.056 413.825 353.004 413.946 351.972 414.139C351.497 414.228 351.018 414.337 350.566 414.509C350.089 414.689 349.711 414.959 349.289 415.232C349.23 415.27 349.289 415.366 349.347 415.325C350.204 414.733 351.455 414.62 352.454 414.487C353.459 414.352 354.462 414.225 355.425 413.884C356.511 413.498 357.524 412.889 358.537 412.345C359.102 412.042 359.675 411.749 360.23 411.425C360.788 411.099 361.309 410.735 361.853 410.39C361.947 410.332 361.88 410.16 361.77 410.207Z" fill="#263238"/>
<path d="M401.044 398.588C401.088 398.561 401.048 398.502 401.004 398.523C395.532 401 390.314 404.018 385.226 407.205C383.784 408.109 382.375 409.054 380.984 410.032C380.914 410.082 380.979 410.187 381.053 410.145C383.674 408.68 386.253 407.146 388.853 405.646C390.69 404.585 392.537 403.54 394.379 402.488C394.868 402.342 395.358 402.197 395.835 402.013C396.697 401.68 397.57 401.351 398.378 400.898C398.462 400.852 398.399 400.725 398.311 400.749C397.509 400.966 396.735 401.278 395.962 401.58C396.196 401.445 396.431 401.312 396.665 401.176C398.129 400.32 399.592 399.466 401.044 398.588Z" fill="#263238"/>
<path d="M410.727 358.411C409.243 358.185 407.747 358.056 406.251 357.92C404.752 357.814 403.253 357.731 401.752 357.677C398.749 357.57 395.742 357.604 392.739 357.719C389.739 357.875 386.738 358.087 383.757 358.472C382.265 358.65 380.781 358.881 379.299 359.121C377.818 359.367 376.348 359.682 374.88 359.985C377.857 359.601 380.824 359.189 383.809 358.934C385.299 358.79 386.791 358.674 388.283 358.557C389.777 358.469 391.27 358.364 392.766 358.321C395.756 358.157 398.75 358.131 401.743 358.139C404.738 358.151 407.733 358.231 410.727 358.411Z" fill="#263238"/>
<path d="M409.537 360.174C406.831 360.095 404.122 360.185 401.419 360.341C398.716 360.494 396.02 360.774 393.33 361.087C390.645 361.441 387.966 361.849 385.309 362.38C382.649 362.89 380.017 363.549 377.418 364.299C378.753 364.066 380.067 363.749 381.402 363.538L383.393 363.166L385.392 362.838L389.392 362.212C390.73 362.03 392.065 361.839 393.405 361.688C396.079 361.327 398.766 361.056 401.454 360.804C402.798 360.675 404.144 360.562 405.49 360.463C406.838 360.345 408.187 360.261 409.537 360.174Z" fill="#263238"/>
<path d="M410.335 361.858C408.084 362.022 405.847 362.348 403.622 362.723C401.395 363.096 399.184 363.555 396.986 364.071C394.792 364.604 392.603 365.163 390.448 365.835C389.366 366.158 388.294 366.514 387.223 366.864C386.157 367.235 385.095 367.618 384.041 368.019C386.226 367.451 388.391 366.837 390.573 366.283C392.752 365.72 394.934 365.177 397.123 364.659C399.309 364.13 401.508 363.657 403.706 363.177C404.805 362.935 405.909 362.715 407.013 362.498C408.118 362.269 409.225 362.066 410.335 361.858Z" fill="#263238"/>
<path d="M421.701 335.595C421.701 335.595 412.711 326.828 404.807 325.478C404.142 325.364 407.95 345.324 408.357 346.29C408.764 347.255 421.701 335.595 421.701 335.595Z" fill="#E08F30"/>
<path opacity="0.1" d="M421.701 335.595C421.701 335.595 412.711 326.828 404.807 325.478C404.142 325.364 407.95 345.324 408.357 346.29C408.764 347.255 421.701 335.595 421.701 335.595Z" fill="black"/>
<path opacity="0.1" d="M419.294 337.243C419.294 337.243 412.45 330.569 406.433 329.54C405.927 329.453 408.826 344.647 409.136 345.384C409.446 346.12 419.294 337.243 419.294 337.243Z" fill="black"/>
<path d="M469.506 407.611C466.324 411.566 417.121 409.147 415.913 409.487C414.705 409.815 393.676 420.343 392.683 420.997C391.702 421.665 386.544 422.206 384.142 422.206C381.727 422.206 375.917 421.665 374.822 420.997C373.728 420.343 376.683 416.728 378.219 415.406C379.753 414.084 385.338 414.311 386.771 413.542C388.192 412.774 396.745 407.951 397.839 406.074C398.933 404.211 412.889 379.086 412.889 378.43C412.889 378.43 400.295 367.201 400.936 362.945C401.565 358.701 411.115 338.196 415.227 336.811C422.309 334.444 435.434 334.869 435.434 334.869C435.434 334.869 435.937 319.895 437.673 320.701C446.766 324.882 457.005 341.064 459.822 348.041C460.174 348.922 460.413 349.653 460.513 350.194C461.205 353.959 458.381 376.673 458.381 376.673C458.267 377.217 472.688 403.67 469.506 407.611Z" fill="#E08F30"/>
<path opacity="0.1" d="M469.506 407.611C466.324 411.566 417.121 409.147 415.913 409.487C414.705 409.815 393.676 420.343 392.683 420.997C391.702 421.665 386.544 422.206 384.142 422.206C381.727 422.206 375.917 421.665 374.822 420.997C373.728 420.343 376.683 416.728 378.219 415.406C379.753 414.084 385.338 414.311 386.771 413.542C388.192 412.774 396.745 407.951 397.839 406.074C398.933 404.211 412.889 379.086 412.889 378.43C412.889 378.43 400.295 367.201 400.936 362.945C401.565 358.701 411.115 338.196 415.227 336.811C422.309 334.444 435.434 334.869 435.434 334.869C435.434 334.869 435.937 319.895 437.673 320.701C446.766 324.882 457.005 341.064 459.822 348.041C460.174 348.922 460.413 349.653 460.513 350.194C461.205 353.959 458.381 376.673 458.381 376.673C458.267 377.217 472.688 403.67 469.506 407.611Z" fill="black"/>
<path opacity="0.1" d="M423.415 377.787C423.439 377.734 423.362 377.687 423.335 377.741C422.375 379.687 421.604 381.74 421.285 383.896C421.119 385.013 420.987 386.189 421.107 387.316C421.168 387.89 421.28 388.451 421.509 388.981C421.663 389.335 421.919 389.707 422.346 389.714C422.892 389.724 423.037 389.111 423.193 388.705C423.266 388.513 423.334 388.317 423.403 388.122C423.376 389.177 423.567 390.238 423.948 391.23C424.504 392.678 425.525 394.12 426.906 394.881C427.001 394.934 427.099 394.806 427.021 394.729C425.925 393.645 425.016 392.49 424.462 391.032C423.922 389.611 423.77 388.061 423.997 386.56C424.033 386.324 423.712 386.228 423.634 386.463C423.417 387.121 423.095 387.762 422.805 388.39C422.745 388.521 422.686 388.651 422.625 388.78C422.567 388.901 422.525 389.137 422.357 389.073C422.149 388.993 422.067 388.485 422.018 388.314C421.687 387.142 421.713 385.865 421.788 384.658C421.932 382.307 422.422 379.932 423.415 377.787Z" fill="black"/>
<path d="M434.675 348.695C439.135 348.387 441.614 351.66 441.89 355.663C442.113 358.906 439.694 362.4 435.413 362.696C431.132 362.992 428.218 359.283 428.007 356.238C427.798 353.193 429.833 349.029 434.675 348.695Z" fill="#263238"/>
<path d="M434.303 349.564C438.496 349.274 440.827 352.351 441.085 356.114C441.295 359.162 439.022 362.447 434.997 362.724C430.973 363.001 428.234 359.516 428.036 356.653C427.84 353.792 429.752 349.879 434.303 349.564Z" fill="white"/>
<path d="M433.68 350.21C436.963 349.983 438.786 352.392 438.99 355.337C439.154 357.724 437.374 360.294 434.225 360.512C431.075 360.729 428.93 358 428.776 355.759C428.62 353.52 430.117 350.457 433.68 350.21Z" fill="#263238"/>
<path d="M412.672 347.509C409.189 346.845 406.82 349.758 406.099 353.552C405.515 356.625 406.985 360.156 410.329 360.793C413.671 361.43 416.44 358.137 416.988 355.252C417.536 352.366 416.454 348.23 412.672 347.509Z" fill="#263238"/>
<path d="M412.856 348.368C409.582 347.745 407.355 350.483 406.677 354.048C406.128 356.935 407.511 360.255 410.654 360.854C413.797 361.453 416.399 358.357 416.914 355.646C417.429 352.934 416.411 349.045 412.856 348.368Z" fill="white"/>
<path d="M412.336 348.777C409.773 348.289 408.03 350.432 407.499 353.224C407.07 355.484 408.151 358.083 410.611 358.552C413.071 359.021 415.107 356.598 415.511 354.475C415.915 352.352 415.12 349.308 412.336 348.777Z" fill="#263238"/>
<path d="M418.029 357.154C418.086 357.519 420.494 358.847 420.769 358.843C421.038 358.841 423.42 357.463 423.474 357.099C423.528 356.738 421.312 356.625 420.747 356.63C420.178 356.636 417.968 356.794 418.029 357.154Z" fill="#263238"/>
<path d="M427.179 360.118C426.702 360.671 426.192 361.192 425.644 361.644C425.103 362.077 424.464 362.494 423.889 362.444C423.271 362.394 422.74 362.006 422.321 361.502C421.91 360.997 421.556 360.372 421.333 359.759L420.695 358.006L420.456 359.85C420.384 360.406 420.237 360.989 420.051 361.51C419.859 362.022 419.568 362.521 419.198 362.537C419.004 362.548 418.76 362.453 418.538 362.293C418.315 362.132 418.107 361.927 417.908 361.709C417.517 361.264 417.166 360.765 416.84 360.244C417.018 360.833 417.264 361.404 417.598 361.941C417.763 362.21 417.958 362.467 418.202 362.698C418.447 362.919 418.759 363.151 419.183 363.178C419.612 363.215 420.023 362.972 420.265 362.707C420.515 362.434 420.683 362.133 420.823 361.834C421.102 361.226 421.243 360.616 421.355 359.968L420.478 360.059C420.78 360.801 421.145 361.471 421.697 362.059C421.972 362.347 422.287 362.614 422.659 362.806C423.031 362.995 423.46 363.1 423.881 363.084C424.332 363.079 424.726 362.886 425.048 362.674C425.375 362.456 425.655 362.199 425.909 361.922C426.414 361.375 426.833 360.763 427.179 360.118Z" fill="#263238"/>
<path d="M442.65 360.935C445.639 360.674 448.631 360.512 451.625 360.418C454.618 360.329 457.611 360.272 460.604 360.356C462.101 360.357 463.596 360.422 465.092 360.469C466.586 360.544 468.081 360.62 469.575 360.723C472.565 360.895 475.543 361.226 478.53 361.528C477.053 361.264 475.576 360.99 474.088 360.785C472.6 360.587 471.11 360.396 469.614 360.26C466.623 359.956 463.619 359.827 460.615 359.753C457.61 359.721 454.603 359.768 451.605 359.957C450.105 360.053 448.608 360.178 447.115 360.324C445.62 360.499 444.128 360.669 442.65 360.935Z" fill="#263238"/>
<path d="M443.888 362.665C445.241 362.715 446.591 362.762 447.94 362.842C449.289 362.904 450.637 362.981 451.985 363.073C454.679 363.251 457.372 363.447 460.056 363.736C461.401 363.85 462.741 364.004 464.083 364.149L468.097 364.666L470.104 364.939L472.104 365.256C473.446 365.431 474.766 365.711 476.108 365.907C473.489 365.229 470.841 364.642 468.168 364.206C465.499 363.748 462.809 363.414 460.115 363.134C457.417 362.896 454.716 362.688 452.008 362.61C449.301 362.528 446.591 362.513 443.888 362.665Z" fill="#263238"/>
<path d="M443.137 364.37C444.251 364.547 445.364 364.72 446.472 364.92C447.582 365.106 448.691 365.296 449.796 365.508C452.007 365.928 454.218 366.341 456.418 366.81C458.62 367.268 460.817 367.749 463.01 368.254C465.206 368.747 467.387 369.301 469.587 369.809C468.523 369.436 467.451 369.084 466.374 368.741C465.293 368.421 464.211 368.095 463.122 367.802C460.95 367.189 458.746 366.691 456.539 366.218C454.328 365.763 452.105 365.364 449.869 365.052C447.637 364.737 445.392 364.472 443.137 364.37Z" fill="#263238"/>
<path opacity="0.1" d="M448.414 339.697C448.414 339.697 444.71 328.201 438.857 324.873C438.421 324.625 437.632 335.743 437.921 335.795C442.879 336.703 448.414 339.697 448.414 339.697Z" fill="black"/>
<path d="M378.352 417.136C377.981 417.37 377.574 417.544 377.281 417.879C376.979 418.224 376.737 418.63 376.585 419.054C376.416 419.53 376.322 420.039 376.332 420.544C376.339 420.948 376.351 421.444 376.638 421.767C376.698 421.834 376.823 421.757 376.793 421.676C376.644 421.292 377.095 419.609 377.227 419.206C377.342 418.851 377.471 418.513 377.662 418.188C377.861 417.849 378.059 417.444 378.41 417.224C378.469 417.189 378.411 417.099 378.352 417.136Z" fill="#263238"/>
<path d="M381.722 417.68C381.279 417.907 380.864 418.111 380.499 418.459C380.14 418.802 379.863 419.217 379.675 419.676C379.32 420.544 379.225 421.744 379.928 422.473C379.962 422.508 380.035 422.469 380.014 422.42C379.834 422.003 379.854 421.498 379.923 421.055C379.987 420.641 380.08 420.219 380.236 419.828C380.388 419.447 380.59 419.076 380.826 418.739C381.078 418.378 381.396 417.994 381.781 417.772C381.842 417.738 381.784 417.648 381.722 417.68Z" fill="#263238"/>
<path d="M422.485 396.652C421.574 399.113 420.71 401.603 419.692 404.024C419.279 405.007 418.819 406.041 418.131 406.866C417.767 407.303 417.332 407.68 416.901 408.05C416.364 408.513 415.823 409.012 415.251 409.43C415.194 409.471 415.25 409.565 415.308 409.523C416.351 408.792 417.567 408.304 418.542 407.474C419.435 406.713 419.931 405.662 420.272 404.561C421.08 401.946 421.799 399.3 422.587 396.677C422.607 396.611 422.509 396.589 422.485 396.652Z" fill="#263238"/>
<path d="M395.079 408.481C396.044 407.475 397.182 406.685 397.778 405.37L398.423 404.095C401.05 399.027 403.882 394.077 407.094 389.395C404.737 394.615 401.976 399.608 399.018 404.47L398.267 405.677C397.579 406.956 396.217 407.712 395.079 408.481Z" fill="#263238"/>
<path d="M412.469 379.37C412.042 381.097 411.235 382.637 410.048 383.962C410.471 382.233 411.285 380.696 412.469 379.37Z" fill="#263238"/>
<path d="M449.166 389.838C445.554 391.396 437.769 395.872 435.029 398.067C432.29 400.261 422.691 411.782 421.354 412.66C420.016 413.538 414.755 413.867 413.222 415.073C411.688 416.28 408.947 419.353 409.605 420.011C410.263 420.669 423.303 420.56 425.385 420.011C427.467 419.462 428.354 418.365 429.335 418.256C430.317 418.146 442.809 413.538 445.329 413.209C447.85 412.88 465.772 409.35 467.791 407.594C469.808 405.839 466.259 397.092 463.678 391.042C462.289 387.785 453.688 387.887 449.166 389.838Z" fill="#E08F30"/>
<path opacity="0.1" d="M449.166 389.838C445.554 391.396 437.769 395.872 435.029 398.067C432.29 400.261 422.691 411.782 421.354 412.66C420.016 413.538 414.755 413.867 413.222 415.073C411.688 416.28 408.947 419.353 409.605 420.011C410.263 420.669 423.303 420.56 425.385 420.011C427.467 419.462 428.354 418.365 429.335 418.256C430.317 418.146 442.809 413.538 445.329 413.209C447.85 412.88 465.772 409.35 467.791 407.594C469.808 405.839 466.259 397.092 463.678 391.042C462.289 387.785 453.688 387.887 449.166 389.838Z" fill="black"/>
<path d="M413.868 415.808C413.496 416.041 413.089 416.215 412.796 416.55C412.494 416.895 412.253 417.302 412.101 417.725C411.93 418.2 411.837 418.711 411.847 419.216C411.854 419.62 411.867 420.116 412.153 420.439C412.214 420.506 412.339 420.429 412.308 420.348C412.16 419.963 412.611 418.28 412.742 417.878C412.857 417.523 412.986 417.185 413.177 416.86C413.376 416.521 413.575 416.116 413.925 415.896C413.984 415.859 413.928 415.77 413.868 415.808Z" fill="#263238"/>
<path d="M417.393 415.805C416.95 416.032 416.535 416.236 416.17 416.585C415.811 416.927 415.534 417.342 415.346 417.801C414.991 418.669 414.896 419.869 415.599 420.598C415.633 420.634 415.706 420.594 415.685 420.545C415.505 420.128 415.525 419.623 415.594 419.18C415.658 418.766 415.751 418.344 415.907 417.954C416.059 417.572 416.261 417.201 416.497 416.865C416.749 416.504 417.067 416.119 417.452 415.897C417.513 415.863 417.455 415.773 417.393 415.805Z" fill="#263238"/>
<path d="M459.88 388.09C457.212 388.004 454.482 388.058 451.884 388.745C450.606 389.084 449.426 389.627 448.259 390.239C446.961 390.921 445.669 391.613 444.381 392.313C441.859 393.684 439.304 395.064 436.889 396.621C434.555 398.126 432.718 400.183 430.818 402.183C428.534 404.586 426.309 407.085 424.192 409.64C424.147 409.694 424.219 409.764 424.272 409.716C426.403 407.727 428.44 405.632 430.475 403.547C432.378 401.594 434.102 399.356 436.366 397.803C437.511 397.018 438.74 396.353 439.945 395.666C441.149 394.981 442.357 394.302 443.57 393.633C444.833 392.934 446.092 392.232 447.359 391.54C448.527 390.901 449.693 390.232 450.913 389.696C453.746 388.451 456.837 388.303 459.884 388.208C459.958 388.204 459.954 388.092 459.88 388.09Z" fill="#263238"/>
<path d="M384.424 387.379C383.757 387.959 368.576 387.379 354.001 394.888C342.973 400.571 332.961 410.908 335.92 418.368C338.879 425.829 354.878 425.682 360.905 426.523C366.931 427.365 380.959 432.303 385.123 423.525C389.287 414.747 370.326 408.167 355.644 410.688C351.809 411.346 355.704 406.914 358.823 404.105C363.206 400.155 371.754 397.522 378.548 396.534L384.424 387.379Z" fill="#E08F30"/>
<path opacity="0.1" d="M384.424 387.379C383.757 387.959 368.576 387.379 354.001 394.888C342.973 400.571 332.961 410.908 335.92 418.368C338.879 425.829 354.878 425.682 360.905 426.523C366.931 427.365 380.959 432.303 385.123 423.525C389.287 414.747 370.326 408.167 355.644 410.688C351.809 411.346 355.704 406.914 358.823 404.105C363.206 400.155 371.754 397.522 378.548 396.534L384.424 387.379Z" fill="black"/>
<path d="M385.179 417.483C384.237 415.841 382.671 414.631 381.023 413.757C379.223 412.805 377.23 412.145 375.27 411.616C373.129 411.039 370.949 410.617 368.745 410.37C367.57 410.239 366.388 410.141 365.205 410.115C363.929 410.086 362.664 410.16 361.39 410.195C361.319 410.197 361.322 410.306 361.393 410.305C363.46 410.249 365.585 410.474 367.633 410.745C369.66 411.011 371.674 411.408 373.651 411.931C375.566 412.438 377.493 413.023 379.316 413.805C380.975 414.516 382.603 415.429 383.8 416.811C384.461 417.572 384.958 418.468 385.311 419.41C385.68 420.396 385.725 421.374 385.606 422.409C385.599 422.47 385.689 422.523 385.718 422.453C386.389 420.876 386.006 418.926 385.179 417.483Z" fill="#263238"/>
<path opacity="0.1" d="M384.421 387.378C381.392 389.973 377.976 393.661 374.941 397.18C373.779 397.434 372.595 397.722 371.419 398.054C371.792 395.466 372.356 391.623 372.8 388.802C379.364 387.667 384.061 387.694 384.421 387.378Z" fill="black"/>
<path d="M368.663 512.908C364.962 512.993 268.975 483.285 266.036 479.842C265.717 479.46 267.216 465.231 269.695 453.932C269.81 453.391 235.608 408.522 235.608 408.522L297.446 384.44L327.028 445.811L334.724 461.769C334.724 461.769 366.744 494 369.58 498.128C372.382 502.26 372.363 512.823 368.663 512.908Z" fill="#EBEBEB"/>
<path d="M371.365 513.448C367.506 513.551 267.301 482.925 264.216 479.339C263.039 477.985 264.83 471.779 269.694 453.932L335.391 461.853C335.391 461.853 369.298 493.731 372.259 498.027C375.198 502.319 375.223 513.346 371.365 513.448Z" fill="#97A97C"/>
<path d="M371.152 508.997C354.481 503.45 286.714 482.654 269.813 478.439C269.676 478.405 269.648 478.497 269.781 478.545C286.185 484.405 354.118 504.651 371.069 509.273C371.425 509.37 371.504 509.113 371.152 508.997Z" fill="#263238"/>
<path d="M366.913 492.45C362.979 491.07 358.509 491.774 355.612 493.486C352.83 495.131 350.066 497.794 349.121 501.319C349.094 501.419 349.278 501.478 349.325 501.38C352.289 495.092 360.032 491.138 366.85 492.661C366.987 492.692 367.048 492.496 366.913 492.45Z" fill="#263238"/>
<path d="M342.175 468.488C335.48 466.34 326.96 466.334 321.104 470.562C320.877 470.725 321.112 471.046 321.344 471.004C328.379 469.725 334.869 469.153 342.037 469.352C342.544 469.368 342.654 468.643 342.175 468.488Z" fill="#263238"/>
<path d="M346.747 472.102C340.052 469.953 331.534 469.947 325.676 474.175C325.449 474.338 325.686 474.66 325.916 474.617C332.95 473.338 339.441 472.766 346.61 472.965C347.116 472.979 347.226 472.255 346.747 472.102Z" fill="#263238"/>
<path d="M351.32 475.714C344.625 473.565 336.105 473.559 330.249 477.787C330.022 477.95 330.257 478.272 330.489 478.229C337.522 476.95 344.013 476.378 351.182 476.577C351.689 476.591 351.799 475.867 351.32 475.714Z" fill="#263238"/>
<path d="M355.892 479.325C349.197 477.177 340.677 477.171 334.821 481.399C334.594 481.564 334.83 481.884 335.061 481.841C342.096 480.562 348.586 479.99 355.756 480.189C356.261 480.203 356.371 479.479 355.892 479.325Z" fill="#263238"/>
<path d="M354.917 452.747C352.375 448.882 347.246 450.332 344.253 452.625C339.406 456.338 335.041 462.284 332.895 467.972C332.843 468.112 332.934 468.202 333.047 468.228C333.043 468.755 333.488 469.333 334.09 469.142C339.888 467.289 346.315 466.029 351.372 462.451C354.325 460.361 357.321 456.403 354.917 452.747ZM342.306 464.533C339.477 465.512 336.616 466.349 333.824 467.433C336.047 464.446 338.131 461.378 340.654 458.616C341.858 457.299 343.12 455.968 344.495 454.827C346.633 453.049 354.948 449.439 353.384 456.969C352.521 461.119 345.678 463.364 342.306 464.533Z" fill="#263238"/>
<path d="M315.431 465.362C321.01 468.051 327.558 468.227 333.583 469.093C334.208 469.182 334.55 468.538 334.461 468.02C334.567 467.975 334.642 467.871 334.567 467.742C331.512 462.489 326.222 457.348 320.827 454.491C317.495 452.727 312.197 452.148 310.33 456.381C308.563 460.386 312.173 463.791 315.431 465.362ZM312.54 460.29C309.752 453.125 318.548 455.305 320.952 456.703C322.495 457.601 323.961 458.704 325.366 459.802C328.311 462.107 330.873 464.787 333.561 467.364C330.627 466.757 327.669 466.408 324.716 465.91C321.197 465.319 314.076 464.239 312.54 460.29Z" fill="#263238"/>
<path d="M330.158 448.674L261.99 458.756C261.99 458.756 224.79 391.124 209.766 374.302L209.729 374.273C208.743 373.163 207.822 372.267 206.981 371.587L206.953 371.577C206.001 371.031 204.339 370.623 202.033 370.346L202.005 370.336C181.849 367.884 114.009 374.484 67.1304 371.455L89.0228 342.154L98.7244 329.157C151.536 323.125 216.347 301.507 245.593 316.195C277.355 332.149 330.158 448.674 330.158 448.674Z" fill="#263238"/>
<path d="M321.614 437.083C310.026 438.577 313.332 437.992 301.762 439.609C296.099 440.4 267.63 444.31 262.47 445.927C262.356 445.963 262.384 446.149 262.503 446.15C267.91 446.193 296.288 441.669 301.935 440.774C313.475 438.946 310.142 439.351 321.661 437.401C321.878 437.366 321.832 437.056 321.614 437.083Z" fill="#37474F"/>
<path d="M262.339 444.975C254.625 432.061 219.501 368.317 212.509 365.808C206.146 363.523 78.827 366.174 76.9424 366.187C76.8075 366.189 76.7965 366.397 76.9326 366.395C92.0024 366.202 208.379 365.787 211.698 367.102C218.598 369.835 260.602 443.78 261.632 445.323C261.91 445.734 262.604 445.419 262.339 444.975Z" fill="#37474F"/>
<path d="M31.5205 344.795C31.5205 344.795 27.4949 383.234 46.9754 402.353C70.289 425.235 224.139 419.454 247.981 411.739C271.824 404.023 272.57 365.501 246.505 356.574C221.716 348.085 111.781 343.205 109.178 342.165C106.574 341.125 98.9537 328.944 98.9537 328.944L31.5205 344.795Z" fill="#263238"/>
<path d="M64.0783 343.712C64.0476 343.528 63.7632 343.588 63.7632 343.762C63.784 348.616 61.9876 353.724 58.8044 357.404C55.1528 361.625 49.7699 363.988 44.8909 366.459C44.4212 366.697 44.7768 367.431 45.2624 367.285C48.2359 366.392 51.1665 365.093 53.8776 363.569C56.3459 362.18 58.6266 360.439 60.3568 358.175C63.5473 354.002 64.9415 348.913 64.0783 343.712Z" fill="#37474F"/>
<path d="M108.129 339.77C107.042 338.377 105.855 337.053 104.718 335.7C102.033 332.499 99.3338 329.285 96.5184 326.198C96.2523 325.906 95.73 326.32 95.9752 326.64C97.8709 329.122 99.8782 331.525 101.852 333.945C102.864 335.185 103.879 336.423 104.903 337.654C105.858 338.803 107.042 339.945 107.749 341.27C108.485 342.646 107.517 343.822 106.093 343.974C104.817 344.111 103.641 343.46 102.663 342.71C100.441 341.006 98.6925 338.565 96.8446 336.483C95.7141 335.209 94.5835 333.935 93.4346 332.677C92.2133 331.339 90.9111 330.069 89.6947 328.734C89.6162 328.648 89.4654 328.768 89.5341 328.864C90.5984 330.324 91.5818 331.852 92.6474 333.317C93.7129 334.779 94.7932 336.229 95.8943 337.666C96.9353 339.027 98.0132 340.359 99.1216 341.665C100.063 342.775 101.135 343.855 102.397 344.599C104.437 345.8 107.977 346.059 109.064 343.422C109.601 342.114 108.93 340.793 108.129 339.77Z" fill="#37474F"/>
<path d="M244.721 411.883C236.511 412.036 228.308 412.514 220.098 412.689C211.954 412.864 203.809 412.909 195.665 412.833C179.307 412.678 162.953 412.053 146.632 410.924C130.141 409.782 112.352 408.138 95.9715 405.866C88.1325 404.778 80.1868 403.873 72.4409 402.205C65.4517 400.699 59.1123 397.792 53.8801 392.711C43.2699 382.408 39.145 367.259 37.4504 352.787C37.2235 350.845 37.0372 348.899 36.8802 346.95C36.8692 346.818 36.6705 346.821 36.6791 346.955C37.6368 361.796 39.942 377.267 49.2647 389.198C53.2977 394.359 58.4305 398.589 64.4499 401.004C71.7862 403.947 79.9293 404.637 87.6751 405.689C104.123 407.922 121.981 409.647 138.524 410.932C155.172 412.225 171.859 413.03 188.553 413.277C205.244 413.524 221.953 413.288 238.628 412.467C240.664 412.366 242.695 412.247 244.727 412.069C244.84 412.061 244.838 411.881 244.721 411.883Z" fill="#37474F"/>
<path d="M266.638 375.961C265.072 369.444 261.152 363.982 255.644 360.216C249.736 356.177 242.667 354.337 235.672 353.318C227.756 352.166 219.74 351.578 211.78 350.804C195.448 349.215 179.105 347.75 162.751 346.402C146.409 345.056 111.205 342.318 109.226 342.241C109.054 342.235 109.017 342.527 109.192 342.547C124.97 344.302 139.324 345.809 155.133 347.246C171.019 348.691 186.9 350.205 202.774 351.776C210.683 352.56 218.592 353.352 226.497 354.169C233.822 354.927 241.36 355.674 248.231 358.507C254.127 360.938 259.427 364.847 262.433 370.589C265.338 376.135 265.95 382.765 264.787 388.865C263.708 394.529 261.048 400.047 257.16 404.317C253.331 408.525 248.472 411.746 242.869 412.956C241.424 413.267 239.679 413.491 238.35 413.757C238.249 413.778 238.145 413.991 238.248 413.994C250.065 414.294 260.995 405.653 265.262 394.847C267.611 388.895 268.136 382.195 266.638 375.961Z" fill="#37474F"/>
<path d="M93.6405 256.739C100.085 285.142 113.486 319.202 119.226 324.738C126.485 331.739 171.567 341.032 173.969 341.297C179.916 341.912 188.331 303.882 184.836 303.835C175.096 303.702 143.952 298.368 141.857 296.203C139.683 293.939 124.933 275.227 109.769 254.084C99.3019 239.474 89.6419 239.115 93.6405 256.739Z" fill="#AD6359"/>
<path d="M170.596 340.715C171.225 341.037 180.165 345.564 185.696 347.184C189.822 348.392 201.792 351.549 203.571 347.133C204.789 344.123 197.967 341.436 193.186 339.428C190.668 338.37 187.567 335.721 188.313 334.1C189.619 331.266 196.103 334.131 200.364 336.624C208.607 341.445 219.58 350.113 224.632 345.934C226.54 344.354 224.334 341.463 221.103 338.625C226.349 341.935 231.945 344.653 234.133 342.982C235.389 342.031 235.451 340.72 234.755 339.222C236.376 339.754 237.81 339.654 238.812 338.598C240.523 336.813 239.698 334.17 237.836 331.459C238.435 331.398 238.974 331.095 239.389 330.443C243.019 324.932 224.958 309.041 218.702 307.543C200.298 303.118 180.893 303.887 180.893 303.887C173.648 309.655 170.582 340.703 170.596 340.715Z" fill="#AD6359"/>
<path d="M197.714 323.807C202.048 324.497 206.314 326.131 209.985 328.569C214.646 331.665 217.735 335.284 221.643 338.929C221.746 339.024 221.6 339.188 221.497 339.092C219.634 337.358 211.916 330.843 209.921 329.361C206.266 326.647 202.181 324.736 197.698 323.882C197.65 323.872 197.666 323.8 197.714 323.807Z" fill="#263238"/>
<path d="M201.164 315.991C206 317.327 210.956 318.679 215.443 320.981C220.353 323.5 224.191 327.598 227.964 331.543C230.23 333.911 232.447 336.327 234.602 338.797C234.693 338.9 234.554 339.064 234.456 338.96C230.628 334.886 226.679 330.923 222.608 327.09C218.779 323.484 214.505 320.722 209.594 318.836C206.827 317.773 203.984 316.923 201.146 316.077C201.092 316.061 201.109 315.977 201.164 315.991Z" fill="#263238"/>
<path d="M206.35 309.162C211.05 310.139 215.15 310.976 219.308 313.509C224.812 316.862 230.121 322.502 231.983 324.501C234.041 326.709 236.021 328.984 237.969 331.29C238.049 331.383 237.887 331.524 237.805 331.431C233.355 326.389 228.558 321.598 223.494 317.174C221.074 315.059 218.442 313.217 215.486 311.933C212.563 310.663 209.43 309.941 206.343 309.192C206.323 309.189 206.329 309.158 206.35 309.162Z" fill="#263238"/>
<path d="M180.486 299.444L165.566 346.377C165.566 346.377 125.502 334.824 118.195 326.896C110.887 318.966 97.4614 278.087 93.5302 258.279C89.599 238.471 99.5974 238.985 108.757 251.489C117.917 263.993 140.725 294.301 142.003 294.962C143.279 295.621 180.486 299.444 180.486 299.444Z" fill="#455A64"/>
<path d="M161.769 325.502C163.575 319.969 165.427 314.448 167.028 308.847C167.938 305.665 168.866 302.487 169.745 299.295C169.778 299.174 169.577 299.101 169.533 299.22C167.5 304.701 165.474 310.204 163.693 315.779C161.92 321.324 160.1 326.857 158.399 332.427C157.432 335.594 156.564 338.778 155.789 342.001C155.774 342.065 155.875 342.103 155.9 342.041C158.119 336.623 159.951 331.074 161.769 325.502Z" fill="#263238"/>
<path opacity="0.1" d="M145.363 339.874C144.77 339.665 144.179 339.456 143.587 339.247C140.251 338.045 136.848 336.754 133.645 335.435C133.231 335.27 132.824 335.099 132.425 334.927C131.781 334.659 131.138 334.384 130.517 334.107C130.198 333.974 129.896 333.831 129.585 333.697C129.475 333.646 129.363 333.6 129.252 333.549C128.927 333.399 128.608 333.25 128.29 333.102C127.018 332.514 125.812 331.924 124.689 331.329C124.43 331.195 124.164 331.054 123.913 330.912C121.864 329.794 120.165 328.693 118.975 327.646C118.834 327.519 118.694 327.393 118.569 327.267C118.429 327.14 118.311 327.014 118.2 326.895C110.888 318.967 97.464 278.087 93.5341 258.276C93.49 258.046 93.4458 257.816 93.4029 257.593C93.3955 257.541 93.3882 257.496 93.3808 257.444C93.1184 255.939 92.8855 254.078 92.6978 252.061V252.039C92.1657 242.185 96.8264 240.587 102.57 244.93C116.894 275.805 138.744 326.78 145.363 339.874Z" fill="black"/>
<path d="M29.5538 351.263C29.7782 351.532 123.89 338.894 124.835 337.886C126.157 336.467 115.37 265.508 99.6514 243.298C95.7202 237.743 81.8152 236.956 75.173 241.686C42.2547 265.121 28.7531 350.293 29.5538 351.263Z" fill="#97A97C"/>
<path d="M73.6757 242.306C73.6757 242.306 87.7463 268.507 89.5157 279.058C91.2851 289.609 93.6394 342.308 93.2494 344.27C92.8595 346.231 91.2716 347.521 91.2716 347.521V352.584L27.8616 357.981V353.542C27.8616 353.542 24.855 351.966 25.5711 342.935C26.2872 333.902 53.4902 251.193 73.6757 242.306Z" fill="#455A64"/>
<path d="M31.1785 353.629C49.7994 351.161 68.6374 349.503 87.4067 348.679C68.7808 351.148 49.9453 352.805 31.1785 353.629Z" fill="#37474F"/>
<path d="M99.6514 243.298C99.6514 243.298 102.974 270.544 103.429 275.562C103.884 280.579 111.187 339.853 111.905 341.458C112.622 343.062 113.822 345.293 113.822 345.293L114.325 348.68L126.702 345.949L126.252 342.335C126.252 342.335 128.836 340.531 128.457 335.783C128.081 331.036 113.458 254.753 99.6514 243.298Z" fill="#455A64"/>
<path d="M115.225 345.346C118.353 343.75 121.698 342.959 125.211 343.006C122.086 344.608 118.737 345.386 115.225 345.346Z" fill="#37474F"/>
<path d="M67.5754 246.071C47.9711 258.746 -5.34491 312.134 3.68966 326.593C12.788 341.154 82.7041 342.264 103.498 338.081C109.683 336.838 97.351 297.072 91.0606 294.634C85.8236 292.604 55.0131 298.304 54.6133 296.51C54.1621 294.484 61.8847 282.31 74.5684 259.947C89.1919 234.161 76.2348 240.473 67.5754 246.071Z" fill="#AD6359"/>
<path d="M119.761 292.489C133.164 293.943 136.383 296.376 148.346 291.588C156.196 288.447 161.568 292.117 155.859 298.812C146.52 309.762 128.833 311.522 122.526 310.365L119.761 292.489Z" fill="#AD6359"/>
<path d="M82.2296 296.312C82.2296 296.312 98.8114 291.885 113.249 292.019C123.232 292.112 144.93 294.739 159.833 320.577C163.368 326.706 164.064 337.948 154.659 330.038C147.979 324.418 145.439 318.835 140.959 316.275C140.959 316.275 140.15 330.681 133.879 333.986C131.077 335.464 123.335 339.317 116.879 341.456C116.879 341.456 116.036 340.175 115.198 338.397C115.198 338.397 109.05 340.931 99.5238 337.545L82.2296 296.312Z" fill="#AD6359"/>
<path d="M122.763 293.631C126.673 297.113 134.836 304.633 139.377 313.107C144.422 322.523 151.604 342.02 144.624 345.676C139.506 348.357 136.111 341.154 136.111 341.154C136.111 341.154 137.382 349.84 132.231 351.25C127.536 352.534 125.243 346.804 125.243 346.804C125.243 346.804 125.109 352.206 120.349 352.571C114.623 353.01 115.842 341.617 109.658 337.045C108.268 336.019 122.763 293.631 122.763 293.631Z" fill="#AD6359"/>
<path d="M128.553 316.786C131.694 320.664 136.569 331.305 136.231 340.97C136.224 341.189 136.054 341.301 136.019 341.099C134.135 330.379 130.324 320.802 128.464 316.834C128.439 316.781 128.517 316.743 128.553 316.786Z" fill="#263238"/>
<path d="M119.208 322.161C121.574 325.786 126.111 336.978 125.432 346.76C125.417 346.979 125.239 347.079 125.212 346.877C123.704 335.594 120.737 326.275 119.116 322.202C119.095 322.148 119.177 322.114 119.208 322.161Z" fill="#263238"/>
<path d="M140.983 316.19C144.89 318.496 147.115 321.261 150.055 324.633C151.509 326.302 152.994 327.952 154.626 329.448C156.113 330.812 158.294 332.858 160.491 331.861C161.714 331.306 162.071 329.825 162.136 328.605C162.209 327.233 161.525 324.493 161.023 323.213C160.998 323.148 161.111 323.101 161.137 323.166C161.61 324.312 162.468 326.85 162.599 328.085C162.718 329.204 162.713 330.468 162.152 331.479C160.946 333.653 158.126 333.269 156.343 332.138C155.276 331.462 154.331 330.567 153.426 329.693C152.55 328.848 151.715 327.96 150.904 327.053C149.239 325.191 147.681 323.235 146.038 321.354C144.232 319.288 142.908 318.166 140.884 316.314C140.816 316.253 140.905 316.145 140.983 316.19Z" fill="#263238"/>
<path d="M146.087 333.282C145.6 330.599 142.206 319.074 140.871 316.27C140.837 316.199 140.936 316.141 140.979 316.21C143.484 320.159 146.689 329.782 147.253 332.75C147.811 335.681 148.372 339.39 147.637 342.317C146.53 346.732 143.394 346.833 142.259 346.776C140.904 346.709 139.668 346.109 138.66 345.217C137.538 344.222 136.639 342.521 136.063 341.161C136.032 341.088 136.133 341.027 136.171 341.099C137.262 343.222 139.37 345.578 141.846 345.866C142.92 345.992 144.091 345.783 144.942 345.079C145.943 344.253 146.337 342.935 146.54 341.701C146.997 338.906 146.587 336.04 146.087 333.282Z" fill="#263238"/>
<path d="M82.389 294.376L92.3568 344.269C92.3568 344.269 4.91833 342.048 1.39794 325.826C-2.12245 309.604 44.1981 261.238 62.8105 248.443C84.3804 233.615 84.8966 240.635 76.957 256.592C68.6447 273.299 54.7483 296.989 54.7483 296.989L82.389 294.376Z" fill="#455A64"/>
<path d="M26.6132 302.522C31.1085 300.801 35.7717 299.513 40.4643 298.461C45.1128 297.419 49.8508 296.883 54.5961 296.536C57.3072 296.337 60.0171 296.271 62.7331 296.186C62.8165 296.183 62.8165 296.31 62.7344 296.315C57.9657 296.589 53.2007 297.282 48.4983 298.104C43.8155 298.923 39.1547 299.824 34.505 300.814C31.8748 301.374 29.2716 302.059 26.6623 302.708C26.5421 302.738 26.4992 302.566 26.6132 302.522Z" fill="#263238"/>
<path d="M82.199 294.191C81.7551 294.195 57.2423 295.981 56.4134 296.141C56.5937 295.823 63.6798 284.794 64.7307 283.182C64.8349 283.021 64.9318 282.857 65.0348 282.696C65.6454 282.013 66.2585 281.334 66.8422 280.626C67.5902 279.719 68.3308 278.807 69.0726 277.896C69.0959 277.867 69.0567 277.831 69.0309 277.858C68.2498 278.732 67.4663 279.605 66.6901 280.485C66.3309 280.891 65.9851 281.309 65.6417 281.728C66.3529 280.582 67.0494 279.429 67.7471 278.27C68.8593 276.422 69.9089 274.544 70.956 272.658C70.9904 272.597 70.8984 272.551 70.8616 272.608C68.7783 275.821 66.5945 278.965 64.5014 282.17C62.4119 285.371 54.5042 297.137 54.5435 297.136C54.5766 297.179 81.684 294.603 82.2149 294.522C82.4221 294.492 82.4172 294.188 82.199 294.191Z" fill="#263238"/>
<path d="M76.426 323.647C75.3458 318.087 74.3096 312.516 73.0233 306.995C72.2925 303.858 71.5789 300.716 70.8174 297.586C70.7892 297.468 70.5832 297.5 70.6016 297.622C71.4649 303.246 72.344 308.885 73.4648 314.469C74.5794 320.024 75.6474 325.59 76.8344 331.131C77.5088 334.283 78.2764 337.401 79.142 340.51C79.1592 340.571 79.2634 340.555 79.2561 340.49C78.5792 334.833 77.5137 329.247 76.426 323.647Z" fill="#263238"/>
<path d="M93.2494 345.237C92.765 343.656 92.2157 341.415 91.6652 339.855C91.5192 339.443 91.2299 339.449 91.3243 339.867C91.6419 341.271 91.8123 342.803 92.1164 344.238C90.8963 344.177 89.6775 344.09 88.4562 344.042C87.0436 343.986 85.6311 343.936 84.2185 343.876C81.4534 343.757 78.6896 343.61 75.927 343.433C70.3331 343.077 64.7466 342.601 59.1723 342.008C47.9993 340.818 36.841 339.216 25.8482 336.872C22.7729 336.217 19.7086 335.502 16.6701 334.692C13.585 333.869 10.2547 332.962 7.77534 331.993C7.69686 331.963 7.64536 332.098 7.72261 332.134C10.2412 333.349 12.6274 334.309 15.298 335.123C18.0238 335.954 20.773 336.709 23.5441 337.373C29.062 338.695 34.6485 339.723 40.2522 340.597C51.3652 342.332 62.5579 343.584 73.7763 344.389C76.9202 344.615 80.0654 344.803 83.2143 344.955C84.8022 345.031 86.3913 345.108 87.9817 345.154C89.5696 345.2 93.3315 345.505 93.2494 345.237Z" fill="#263238"/>
<path d="M199.111 349.623H99.8966V353.63H199.111V349.623Z" fill="#455A64"/>
<path d="M154.794 349.623H99.8966V353.63H154.794V349.623Z" fill="#A6A6A6"/>
<path d="M153.129 353.625H240.085L252.371 294.495H165.416L153.129 353.625Z" fill="#A6A6A6"/>
<path d="M157.073 353.625H244.028L256.313 294.495H169.359L157.073 353.625Z" fill="#C7C7C7"/>
<path d="M200.898 325.381C200.562 328.585 202.883 331.184 206.085 331.184C209.285 331.184 212.153 328.586 212.489 325.381C212.826 322.177 210.504 319.577 207.302 319.577C204.102 319.579 201.234 322.177 200.898 325.381Z" fill="#EBEBEB"/>
<path d="M92.0184 263.567C92.0184 263.567 75.4084 247.592 64.743 248.056L53.8814 255.438C53.8814 255.438 50.1476 253.613 49.212 251.734C46.8958 247.091 48.9913 239.391 58.6157 231.981C67.4283 225.195 81.9636 225.56 94.1151 228.649C105.785 231.615 115.956 239.258 112.453 246.894C108.95 254.529 92.0184 263.567 92.0184 263.567Z" fill="#97A97C"/>
<path opacity="0.1" d="M93.1526 259.983C93.1526 259.983 106.419 250.319 107.747 244.638C109.073 238.958 97.7067 233.659 90.3778 231.606C79.0343 228.43 71.3363 229.227 65.052 235.331C58.7678 241.434 93.1526 259.983 93.1526 259.983Z" fill="black"/>
<path d="M91.5867 259.478C87.3907 258.821 80.3217 249.289 78.2764 242.047C78.1391 241.549 79.8778 237.053 81.7343 231.492C82.8464 228.112 84.0064 224.322 84.8157 220.788L105.725 231.251C105.725 231.251 101.852 238.162 100.48 244.333C100.371 244.849 100.312 245.34 100.3 245.818C100.291 245.887 100.293 245.972 100.277 246.066C100.096 248.924 98.1579 260.506 91.5867 259.478Z" fill="#AD6359"/>
<path d="M100.298 245.819C100.29 245.889 100.299 245.965 100.28 246.068C99.5582 246.006 98.8041 245.877 97.9715 245.665C85.4497 242.49 85.8838 226.425 86.3289 221.544L105.735 231.249C105.735 231.249 101.861 238.16 100.473 244.335C100.377 244.848 100.311 245.333 100.298 245.819Z" fill="#263238"/>
<path d="M107.253 216.024C106.278 221.408 109.311 226.467 114.029 227.324C118.746 228.181 123.361 224.511 124.336 219.126C125.311 213.743 122.277 208.685 117.56 207.828C112.843 206.971 108.229 210.641 107.253 216.024Z" fill="#37474F"/>
<path d="M103.796 215.862C102.711 221.851 106.085 227.479 111.333 228.432C116.581 229.385 121.716 225.303 122.799 219.313C123.885 213.324 120.51 207.697 115.262 206.744C110.014 205.79 104.881 209.872 103.796 215.862Z" fill="#DBDBDB"/>
<path d="M86.4686 196.564C82.5166 204.01 82.2469 227.69 86.8794 233.884C93.5952 242.863 106.804 246.17 114.982 237.581C122.911 229.255 122.717 198.388 117.337 192.532C109.413 183.906 92.3053 185.566 86.4686 196.564Z" fill="#AD6359"/>
<path d="M103.833 212.73C104.554 212.69 105.212 212.53 105.921 212.416C106.72 212.286 107.372 212.266 107.99 211.689C108.321 211.38 108.335 210.712 108.066 210.362C107.437 209.544 106.418 209.46 105.449 209.575C104.397 209.701 103.618 210.067 102.884 210.83C102.172 211.569 102.881 212.785 103.833 212.73Z" fill="#263238"/>
<path d="M118.954 214.17C118.269 213.943 117.674 213.619 117.019 213.326C116.28 212.993 115.657 212.805 115.209 212.087C114.969 211.701 115.127 211.054 115.479 210.785C116.298 210.159 117.304 210.342 118.21 210.706C119.193 211.101 119.85 211.656 120.362 212.583C120.86 213.479 119.859 214.47 118.954 214.17Z" fill="#263238"/>
<path d="M102.721 230.63C103.057 231.046 103.374 231.601 103.942 231.717C104.488 231.828 105.162 231.655 105.689 231.519C105.741 231.505 105.786 231.564 105.748 231.609C105.265 232.168 104.356 232.447 103.639 232.231C102.938 232.021 102.656 231.359 102.56 230.683C102.546 230.59 102.672 230.57 102.721 230.63Z" fill="#263238"/>
<path d="M104.942 226.084C105.666 227.563 106.88 228.468 108.256 228.909C108.869 229.109 109.528 229.21 110.183 229.227C110.311 229.239 110.441 229.24 110.558 229.228C110.675 229.228 110.782 229.227 110.912 229.216C111.099 229.211 111.219 229.07 111.271 228.899L111.272 228.888C111.277 228.83 111.283 228.782 111.276 228.725C111.276 228.725 111.276 228.725 111.277 228.712L111.29 228.574C111.467 227.358 111.568 225.488 111.568 225.488C111.987 225.765 114.135 227.055 114.174 226.413C114.481 221.101 114.823 215.193 114.008 209.841C113.989 209.663 113.72 209.672 113.715 209.847C113.218 214.941 113.619 220.088 113.202 225.212C112.511 224.851 111.389 224.202 110.751 224.139C110.572 224.169 110.621 227.755 110.498 228.294C110.498 228.294 110.496 228.317 110.481 228.35C108.404 228.371 106.934 227.569 105.109 225.959C105 225.854 104.862 225.946 104.942 226.084Z" fill="#263238"/>
<path d="M106.678 216.348C106.671 216.287 106.548 216.411 106.543 216.476C106.446 218.058 106.068 219.854 104.594 220.244C104.549 220.256 104.545 220.336 104.599 220.333C106.361 220.251 106.838 217.863 106.678 216.348Z" fill="#263238"/>
<path d="M105.424 214.569C102.908 214.14 102.234 219.21 104.566 219.608C106.86 219.999 107.533 214.929 105.424 214.569Z" fill="#263238"/>
<path d="M115.657 217.12C115.678 217.063 115.77 217.212 115.757 217.276C115.486 218.838 115.44 220.672 116.784 221.394C116.825 221.416 116.81 221.495 116.758 221.48C115.063 220.991 115.15 218.557 115.657 217.12Z" fill="#263238"/>
<path d="M117.286 215.679C119.833 215.842 119.319 220.932 116.959 220.78C114.637 220.63 115.152 215.542 117.286 215.679Z" fill="#263238"/>
<path d="M83.2315 219.964C86.6317 221.134 92.3322 216.374 93.3475 214.268C94.3628 212.162 94.0734 201.675 95.9483 198.539C97.8231 195.402 101.53 193.822 104.324 194.835C107.12 195.848 110.338 199.816 112.45 199.75C114.563 199.682 114.817 195.577 116.28 195.665C119.499 195.858 120.696 203.924 121.064 207.492C121.064 207.492 123.921 189.59 106.766 186.959C91.816 184.667 86.3472 194.757 84.7642 199.216C81.7343 207.758 83.2315 219.964 83.2315 219.964Z" fill="#263238"/>
<path d="M89.859 217.014C89.859 217.014 87.3956 208.159 83.5515 208.795C79.7074 209.431 79.8178 221.048 83.1027 223.789C86.3877 226.531 88.9823 223.535 88.9823 223.535L89.859 217.014Z" fill="#AD6359"/>
<path d="M83.6655 212.124C83.6067 212.097 83.565 212.178 83.6104 212.218C85.8837 214.228 86.4134 217.181 86.4931 220.077C86.0505 218.817 85.1664 217.9 83.5221 218.376C83.4362 218.402 83.4632 218.534 83.5441 218.543C84.7115 218.693 85.4288 219.157 85.8567 220.287C86.1596 221.086 86.2405 221.991 86.3619 222.834C86.4024 223.115 86.8745 223.139 86.8806 222.834C86.8806 222.812 86.8806 222.788 86.8806 222.765C88.1374 219.405 87.1749 213.744 83.6655 212.124Z" fill="#263238"/>
<path d="M117.311 191.943C115.251 189.968 112.735 187.777 109.49 186.102C106.246 184.428 95.22 181.327 91.8615 182.535C88.503 183.743 84.1255 193.61 83.5136 195.066C82.9017 196.521 80.2936 205.708 82.7386 209.052C85.1837 212.396 91.051 197.315 98.0035 194.149C104.956 190.981 117.311 191.943 117.311 191.943Z" fill="#97A97C"/>
<path opacity="0.1" d="M117.311 191.946C117.311 191.946 104.953 190.981 98.0046 194.151C91.0509 197.31 85.1848 212.396 82.7336 209.053C81.657 207.579 81.4817 205.911 81.7637 203.32C84.0653 199.128 88.379 192.897 93.8221 189.48C98.9206 186.279 105.704 186.204 112.342 187.82C114.275 189.135 115.898 190.588 117.311 191.946Z" fill="black"/>
<path d="M80.2335 218.362C81.9698 214.496 89.8873 205.347 96.3444 200.807C102.802 196.265 116.561 197.212 118.238 198.004C120.003 198.836 119.501 201.514 120.308 201.381C121.115 201.249 120.789 195.577 119.86 194.429C118.932 193.281 117.327 191.418 115.477 190.79C113.625 190.161 101.903 187.14 96.0244 190.462C90.146 193.784 79.3788 205.187 79.1765 209.043C79.1287 209.968 80.0373 210.909 79.9576 212.217C79.8534 213.934 79.5235 215.844 79.5946 217.097C79.6523 218.107 80.0827 218.698 80.2335 218.362Z" fill="#97A97C"/>
<path d="M98.3185 198.429C97.5644 197.47 96.8961 196.483 96.3137 195.41C95.7386 194.351 95.1942 193.21 94.8852 192.042C94.8631 191.956 94.7319 191.972 94.7466 192.063C94.9551 193.324 95.2604 194.52 95.8514 195.661C96.4192 196.758 97.2211 197.788 98.1542 198.598C98.2572 198.689 98.3995 198.533 98.3185 198.429Z" fill="#263238"/>
<path d="M81.646 214.383C81.6411 214.056 81.5455 213.733 81.5099 213.408C81.4695 213.037 81.4609 212.663 81.4989 212.291C81.5725 211.579 81.8336 210.923 81.7539 210.199C81.6902 209.624 81.4977 209.08 81.3076 208.538C81.0918 207.919 80.8895 207.28 81.1163 206.638C81.1458 206.554 81.017 206.502 80.9851 206.587C80.5388 207.791 81.0342 208.944 81.1911 210.146C81.2917 210.916 81.0072 211.642 80.9802 212.407C80.9569 213.054 81.006 213.915 81.4204 214.449C81.483 214.527 81.6473 214.498 81.646 214.383Z" fill="#263238"/>
<path d="M84.5828 210.594C84.3719 210.003 84.1156 209.451 83.9624 208.837C83.8152 208.249 83.7196 207.643 83.6534 207.04C83.5872 206.444 83.57 205.845 83.516 205.25C83.4523 204.545 83.3039 203.84 83.2745 203.134C83.2708 203.044 83.1322 203.067 83.1359 203.156C83.1678 203.889 83.0709 204.628 83.0771 205.363C83.0832 205.996 83.1519 206.633 83.2389 207.261C83.3247 207.865 83.4547 208.455 83.6546 209.032C83.8434 209.579 84.1169 210.207 84.5178 210.633C84.546 210.665 84.5975 210.636 84.5828 210.594Z" fill="#263238"/>
<path d="M87.4434 207.242C86.8806 206.244 86.4281 205.131 86.1768 204.011C85.9291 202.906 85.7452 201.78 85.5723 200.661C85.5612 200.584 85.4337 200.582 85.4337 200.664C85.4276 201.848 85.4153 203.02 85.6973 204.179C85.831 204.728 85.9916 205.3 86.2503 205.805C86.5324 206.353 86.9149 206.853 87.3184 207.318C87.3699 207.376 87.4863 207.318 87.4434 207.242Z" fill="#263238"/>
<path d="M90.3728 204.102C90.0221 203.671 89.875 203.172 89.7106 202.653C89.5304 202.082 89.3624 201.506 89.214 200.927C89.0718 200.37 88.9136 199.817 88.7714 199.261C88.6279 198.701 88.493 198.12 88.5936 197.542C88.6071 197.465 88.482 197.434 88.4587 197.509C88.2809 198.073 88.2919 198.646 88.3471 199.228C88.4072 199.865 88.5078 200.492 88.6757 201.11C88.8425 201.716 89.0375 202.314 89.279 202.895C89.4899 203.401 89.7609 203.941 90.2379 204.241C90.3274 204.297 90.4476 204.193 90.3728 204.102Z" fill="#263238"/>
<path d="M93.2286 199.805C92.9919 199.309 92.7614 198.814 92.5652 198.301C92.3702 197.79 92.1998 197.268 92.0379 196.747C91.8687 196.2 91.6836 195.65 91.5487 195.095C91.5266 195.007 91.404 195.027 91.4101 195.117C91.4469 195.696 91.4874 196.26 91.6137 196.829C91.7363 197.385 91.9031 197.925 92.1029 198.459C92.2991 198.983 92.5149 199.508 92.7761 200.002C93.0287 200.48 93.312 201.031 93.735 201.378C93.7975 201.429 93.9116 201.368 93.8907 201.284C93.7607 200.767 93.4554 200.282 93.2286 199.805Z" fill="#263238"/>
<path d="M102.182 197.287C101.97 196.656 101.763 196.039 101.491 195.431C101.215 194.812 100.896 194.21 100.553 193.627C99.8807 192.484 99.1401 191.395 98.2351 190.424C98.1849 190.37 98.0733 190.421 98.115 190.496C99.4025 192.792 100.787 195.035 102.052 197.344C102.098 197.423 102.212 197.373 102.182 197.287Z" fill="#263238"/>
<path d="M105.823 194.769C105.596 194.145 105.307 193.553 104.945 192.997C104.188 191.833 103.228 190.828 102.24 189.859C102.177 189.798 102.074 189.871 102.13 189.946C102.907 191.007 103.704 192.056 104.42 193.16C104.773 193.704 105.122 194.262 105.412 194.842C105.705 195.427 105.863 196.057 106.129 196.648C106.15 196.694 106.226 196.686 106.23 196.632C106.264 196.01 106.033 195.347 105.823 194.769Z" fill="#263238"/>
<path d="M109.694 194.423C109.498 193.817 109.233 193.243 108.918 192.69C108.321 191.641 107.551 190.721 106.644 189.927C106.584 189.874 106.498 189.966 106.548 190.026C107.299 190.959 107.974 191.965 108.555 193.012C108.847 193.539 109.11 194.08 109.381 194.617C109.651 195.151 109.821 195.764 110.143 196.268C110.17 196.308 110.229 196.274 110.224 196.232C110.153 195.626 109.882 195.001 109.694 194.423Z" fill="#263238"/>
<path d="M112.802 193.319C112.511 192.827 112.193 192.351 111.872 191.879C111.554 191.411 111.227 190.947 110.778 190.598C110.71 190.547 110.642 190.635 110.681 190.699C111.256 191.642 111.813 192.601 112.367 193.557C112.891 194.458 113.099 195.448 113.423 196.425C113.438 196.468 113.507 196.456 113.51 196.411C113.565 195.316 113.364 194.264 112.802 193.319Z" fill="#263238"/>
<path d="M116.012 193.771C115.531 192.741 114.789 191.921 113.971 191.15C113.913 191.095 113.819 191.192 113.874 191.249C114.612 192.022 115.149 192.991 115.618 193.943C116.096 194.915 116.399 195.946 116.655 196.995C116.667 197.045 116.751 197.052 116.752 196.992C116.781 195.881 116.48 194.77 116.012 193.771Z" fill="#263238"/>
<path d="M119.259 196.976C119.24 196.732 119.192 196.488 119.14 196.248C119.034 195.764 118.855 195.294 118.651 194.845C118.233 193.92 117.627 193.104 117.036 192.286C116.984 192.213 116.872 192.301 116.926 192.374C117.517 193.158 117.99 194.026 118.379 194.928C118.57 195.373 118.719 195.828 118.843 196.296C118.904 196.524 118.949 196.755 118.99 196.987C119.028 197.206 119.033 197.464 119.112 197.67C119.133 197.725 119.224 197.725 119.242 197.667C119.308 197.459 119.277 197.191 119.259 196.976Z" fill="#263238"/>
<path d="M120.465 198.611C120.465 198.2 120.446 197.796 120.4 197.387C120.353 196.981 120.286 196.585 120.188 196.187C120.088 195.782 119.973 195.379 119.892 194.969C119.872 194.871 119.73 194.906 119.758 195.004C119.869 195.41 119.918 195.831 119.957 196.247C119.994 196.641 120.037 197.035 120.075 197.429C120.113 197.823 120.152 198.216 120.188 198.61C120.223 199.008 120.207 199.427 120.287 199.818C120.299 199.883 120.384 199.88 120.399 199.818C120.489 199.435 120.465 199.004 120.465 198.611Z" fill="#263238"/>
<path d="M82.3768 210.542C82.3768 210.542 82.4014 198.114 87.2657 192.463C95.1991 183.247 110.686 186.371 116.071 190.581C116.071 190.581 101.401 184.451 91.8859 193.55C87.8775 197.383 86.2933 211.334 86.2933 211.334L82.3768 210.542Z" fill="#DBDBDB"/>
<path d="M92.7517 217.873C92.0859 223.923 87.2485 228.354 81.9477 227.77C76.6469 227.185 72.8886 221.807 73.5532 215.756C74.219 209.706 79.0564 205.275 84.3572 205.86C89.6592 206.443 93.4175 211.823 92.7517 217.873Z" fill="#DBDBDB"/>
<path d="M89.9927 217.221C89.3943 222.66 85.0463 226.643 80.2801 226.117C75.5151 225.592 72.1369 220.757 72.7353 215.318C73.3337 209.879 77.6818 205.897 82.4467 206.422C87.2129 206.948 90.5911 211.782 89.9927 217.221Z" fill="#37474F"/>
<path opacity="0.1" d="M85.2841 216.801C84.9163 220.143 82.2444 222.591 79.3163 222.268C76.3881 221.945 74.3122 218.974 74.6801 215.632C75.0479 212.291 77.7198 209.843 80.6479 210.165C83.5761 210.488 85.652 213.459 85.2841 216.801Z" fill="black"/>
<path d="M93.1525 259.983C93.1525 259.983 79.7478 237.731 63.2433 235.67L64.7417 248.057C64.7417 248.057 74.577 247.991 92.0171 263.568L93.1525 259.983Z" fill="#97A97C"/>
<path d="M60.3004 248.324C63.3144 247.921 66.3198 248.563 69.1584 249.431C72.0167 250.311 74.7167 251.635 77.2954 253.141C79.8974 254.613 82.3302 256.371 84.72 258.177L88.1926 261.042L91.5364 264.067L91.9116 264.407L92.3248 264.189C95.4075 262.574 98.3405 260.756 101.161 258.746C102.565 257.735 103.955 256.702 105.23 255.528C106.512 254.367 111.825 249.334 112.894 245.687C110.992 249.226 103.521 256.141 100.652 257.985C99.2111 258.899 97.7274 259.75 96.2315 260.571C94.7368 261.39 93.231 262.214 91.7105 262.951L92.499 263.073L89.1502 259.949C87.9939 258.952 86.8094 257.981 85.6237 257.016C84.3828 256.118 83.1603 255.196 81.8863 254.346C80.5816 253.539 79.3064 252.687 77.9306 252C75.2477 250.512 72.36 249.378 69.3853 248.622C68.6459 248.42 67.8832 248.297 67.1315 248.153C66.3676 248.065 65.6086 247.957 64.8422 247.928C63.3193 247.834 61.7633 247.897 60.3004 248.324Z" fill="#263238"/>
<path d="M53.8813 255.438C55.9291 254.406 57.7941 253.221 59.6162 252.002C61.4151 250.762 63.171 249.486 64.7429 248.056C62.694 249.087 60.829 250.272 59.0081 251.493C57.2092 252.734 55.4546 254.011 53.8813 255.438Z" fill="#263238"/>
<path d="M86.4122 256.055C86.4122 256.055 85.1492 262.463 85.1112 271.703C85.0965 275.36 86.7236 288.451 90.775 287.909C94.8251 287.366 88.07 279.014 86.7923 272.117C85.495 265.115 87.2742 260.123 87.4508 255.977L86.4122 256.055Z" fill="#263238"/>
<path d="M100.824 256.531C100.824 256.531 102.836 263.407 104.105 271.691C104.606 274.969 104.896 286.929 101.19 286.984C97.4847 287.041 102.427 278.644 102.652 272.287C102.88 265.833 100.594 260.296 99.8831 256.602L100.824 256.531Z" fill="#263238"/>
<path d="M125.904 171.418C125.311 172.695 123.796 173.248 122.521 172.655C121.246 172.061 120.693 170.545 121.285 169.268C121.879 167.991 123.393 167.438 124.668 168.03C125.943 168.625 126.496 170.141 125.904 171.418Z" fill="#97A97C"/>
<path d="M131.305 159.776L129.542 158.955L124.145 170.578L125.908 171.399L131.305 159.776Z" fill="#97A97C"/>
<path d="M134.939 171.534C134.345 172.811 132.831 173.365 131.556 172.772C130.28 172.178 129.727 170.661 130.32 169.385C130.913 168.108 132.427 167.554 133.703 168.147C134.979 168.741 135.532 170.258 134.939 171.534Z" fill="#97A97C"/>
<path d="M140.341 159.893L138.577 159.072L133.18 170.695L134.944 171.516L140.341 159.893Z" fill="#97A97C"/>
<path d="M140.339 159.909L128.827 160.502L129.548 158.948L141.06 158.356L140.339 159.909Z" fill="#97A97C"/>
<g opacity="0.3">
<path d="M125.904 171.418C125.311 172.695 123.796 173.248 122.521 172.655C121.246 172.061 120.693 170.545 121.285 169.268C121.879 167.991 123.393 167.438 124.668 168.03C125.943 168.625 126.496 170.141 125.904 171.418Z" fill="white"/>
<path d="M131.305 159.776L129.542 158.955L124.145 170.578L125.908 171.399L131.305 159.776Z" fill="white"/>
<path d="M134.939 171.534C134.345 172.811 132.831 173.365 131.556 172.772C130.28 172.178 129.727 170.661 130.32 169.385C130.913 168.108 132.427 167.554 133.703 168.147C134.979 168.741 135.532 170.258 134.939 171.534Z" fill="white"/>
<path d="M140.341 159.893L138.577 159.072L133.18 170.695L134.944 171.516L140.341 159.893Z" fill="white"/>
<path d="M140.339 159.909L128.827 160.502L129.548 158.948L141.06 158.356L140.339 159.909Z" fill="white"/>
</g>
<path d="M155.33 136.257C155.33 138.512 153.506 140.338 151.254 140.338C149.003 140.338 147.177 138.512 147.179 136.257C147.179 134.003 149.003 132.177 151.254 132.177C153.506 132.177 155.33 134.003 155.33 136.257Z" fill="#97A97C"/>
<path d="M155.33 115.693H152.217V136.211H155.33V115.693Z" fill="#97A97C"/>
<path d="M165.906 110.412H162.793V116.343H165.906V110.412Z" fill="#97A97C"/>
<path d="M165.906 111.2L152.217 118.437V115.693L165.906 108.457V111.2Z" fill="#97A97C"/>
<path d="M165.906 116.371L152.217 123.607V120.864L165.906 113.628V116.371Z" fill="#97A97C"/>
<path d="M146.073 192.545C145.651 193.73 144.349 194.346 143.167 193.924C141.983 193.502 141.366 192.198 141.789 191.014C142.211 189.83 143.514 189.213 144.696 189.636C145.879 190.058 146.496 191.362 146.073 192.545Z" fill="#97A97C"/>
<path d="M149.931 181.742L148.294 181.157L144.45 191.938L146.087 192.523L149.931 181.742Z" fill="#97A97C"/>
<path d="M156.48 180.962L154.844 180.377L153.732 183.493L155.369 184.078L156.48 180.962Z" fill="#97A97C"/>
<path d="M156.324 181.366L147.776 182.597L148.29 181.156L156.839 179.925L156.324 181.366Z" fill="#97A97C"/>
<path d="M155.356 184.083L146.807 185.314L147.321 183.873L155.87 182.641L155.356 184.083Z" fill="#97A97C"/>
<path d="M170.075 4.34406C170.914 6.46062 170.92 8.62015 170.075 10.7367C169.229 8.62015 169.235 6.46185 170.075 4.34406Z" fill="#263238"/>
<path d="M161.599 13.0362C163.712 12.1965 165.869 12.1903 167.983 13.0362C165.869 13.8833 163.712 13.876 161.599 13.0362Z" fill="#263238"/>
<path d="M170.279 21.5233C169.44 19.4068 169.434 17.2472 170.279 15.1307C171.125 17.2472 171.117 19.4068 170.279 21.5233Z" fill="#263238"/>
<path d="M178.755 12.8312C176.641 13.671 174.485 13.6771 172.371 12.8312C174.485 11.9853 176.641 11.9915 178.755 12.8312Z" fill="#263238"/>
<path d="M486.362 343.994C487.201 346.111 487.207 348.27 486.362 350.387C485.518 348.27 485.524 346.112 486.362 343.994Z" fill="#263238"/>
<path d="M477.886 352.686C480 351.847 482.157 351.84 484.271 352.686C482.157 353.533 480 353.526 477.886 352.686Z" fill="#263238"/>
<path d="M486.567 361.173C485.729 359.057 485.721 356.897 486.567 354.781C487.412 356.897 487.406 359.057 486.567 361.173Z" fill="#263238"/>
<path d="M495.044 352.482C492.93 353.322 490.773 353.328 488.659 352.482C490.773 351.635 492.93 351.641 495.044 352.482Z" fill="#263238"/>
<path d="M22.8931 185.455C23.7318 187.572 23.7379 189.731 22.8931 191.848C22.0482 189.731 22.0543 187.572 22.8931 185.455Z" fill="#263238"/>
<path d="M14.4164 194.148C16.5303 193.308 18.6872 193.302 20.8012 194.148C18.6872 194.993 16.5303 194.987 14.4164 194.148Z" fill="#263238"/>
<path d="M23.0978 202.635C22.2591 200.518 22.2529 198.359 23.0978 196.242C23.9426 198.359 23.9365 200.517 23.0978 202.635Z" fill="#263238"/>
<path d="M31.5745 193.943C29.4605 194.782 27.3036 194.788 25.1897 193.943C27.3036 193.097 29.4605 193.103 31.5745 193.943Z" fill="#263238"/>
<path d="M474.976 62.9302C475.814 64.3237 475.821 65.7724 474.976 67.1658C474.133 65.7736 474.139 64.3237 474.976 62.9302Z" fill="#263238"/>
<path d="M469.36 68.6894C470.752 67.8509 472.2 67.8448 473.59 68.6894C472.2 69.5341 470.752 69.5279 469.36 68.6894Z" fill="#263238"/>
<path d="M475.112 74.3123C474.275 72.9189 474.267 71.4689 475.112 70.0767C475.956 71.4689 475.95 72.9189 475.112 74.3123Z" fill="#263238"/>
<path d="M480.728 68.5544C479.336 69.3929 477.89 69.399 476.498 68.5544C477.888 67.7085 479.336 67.7146 480.728 68.5544Z" fill="#263238"/>
<path d="M478.87 374.422C479.708 375.815 479.715 377.264 478.87 378.657C478.027 377.264 478.033 375.814 478.87 374.422Z" fill="#263238"/>
<path d="M473.254 380.18C474.645 379.34 476.093 379.334 477.484 380.18C476.094 381.025 474.646 381.019 473.254 380.18Z" fill="#263238"/>
<path d="M479.006 385.802C478.169 384.409 478.162 382.959 479.006 381.567C479.85 382.96 479.844 384.41 479.006 385.802Z" fill="#263238"/>
<path d="M484.622 380.044C483.232 380.883 481.784 380.889 480.393 380.044C481.783 379.199 483.231 379.205 484.622 380.044Z" fill="#263238"/>
<path d="M39.2627 209.116C40.1002 210.509 40.1075 211.958 39.2627 213.351C38.4178 211.958 38.424 210.508 39.2627 209.116Z" fill="#263238"/>
<path d="M33.6467 214.874C35.0385 214.035 36.4866 214.029 37.8771 214.874C36.4854 215.72 35.0372 215.712 33.6467 214.874Z" fill="#263238"/>
<path d="M39.3976 220.497C38.5601 219.103 38.5528 217.653 39.3976 216.261C40.2424 217.653 40.2363 219.103 39.3976 220.497Z" fill="#263238"/>
<path d="M45.0136 214.739C43.6218 215.577 42.1749 215.583 40.7832 214.739C42.1737 213.893 43.6218 213.899 45.0136 214.739Z" fill="#263238"/>
</svg>
